<!-- by TradingView --><svg width="56" height="56" viewBox="0 0 56 56" xmlns="http://www.w3.org/2000/svg"><path fill="#F0F3FA" d="M0 0h56v56H0z"/><path d="M17 32h2v2h-2v-2ZM34 31h3v3h-3v-3Z" fill="#104287"/><path d="M9 31h2v3H9v-3ZM8 30h4v1H8v-1Z" fill="#6E8DBB"/><path d="M6 36h2v-.55l10-4.17v-.8L7.04 35.12 6 36ZM23.11 33.54 18 31.28v-.8l6.33 2.73c2.03 1.7-1.22 1.05-1.22.33Z" fill="#104287"/><path d="m6 36 12-5v-1L6 35.06V36ZM25 34l-7-3v-1l7 3.01V34Z" fill="#6E8DBB"/><path d="M20 36h2.53v-.58L35 29.85V29l-13.93 6.08L20 36ZM50 36h-2.53v-.58L35 29.85V29l13.93 6.08L50 36Z" fill="#104287"/><path d="M20 34.63 35 28v1.37L20 36v-1.37ZM50 34.63 35 28v1.37L50 36v-1.37ZM19 23v1.02s-3.94 2.6-4.95 6.35L13 31s1.05-4.87 6-8ZM19 25v.95s-2.13 2.12-2.66 3.42L15 30s1.43-3.1 4-5ZM35 23v.99s2.57 1.77 3.97 4.48L40 29a13.59 13.59 0 0 0-5-6ZM35 25v1.04s.42.4.95.97L38 28c-.75-1-1.76-2.12-3-3Z" fill="#6E8DBB"/><path d="M29 15v15l5-2.39V17.2L29 15Z" fill="#10438E"/><path d="M26 17v14.34L29 30V15l-3 2Z" fill="url(#a2xlu0g24)"/><path d="M20 19.11v10.64l4 1.95V17l-4 2.11Z" fill="#0D438C"/><path d="M27 19.07v11.8L24.65 32l-.65-.3V17l3 2.07Z" fill="url(#b2xlu0g24)"/><defs><linearGradient id="a2xlu0g24" x1="26" y1="23.12" x2="30.07" y2="23.12" gradientUnits="userSpaceOnUse"><stop stop-color="#6E8DBB"/><stop offset="1" stop-color="#5779B1"/></linearGradient><linearGradient id="b2xlu0g24" x1="24" y1="24.5" x2="28" y2="24.5" gradientUnits="userSpaceOnUse"><stop stop-color="#6E8DBB"/><stop offset="1" stop-color="#5779B1"/></linearGradient></defs></svg>