<!-- by TradingView --><svg width="56" height="56" viewBox="0 0 56 56" xmlns="http://www.w3.org/2000/svg"><path fill="#F0F3FA" d="M0 0h56v56H0z"/><path d="M34 31v1l-30-.5 30-.5ZM40.83 34 52 28l-11.23 5.48L37 31.61 40.83 34Z" fill="#C51C1E"/><path d="m40.8 32 9.2-5-9.26 4.44-3.74-1.8L40.8 32Z" fill="#C51C1E"/><path d="M40.85 30 48 26l-7.2 3.39-3.8-1.73L40.85 30Z" fill="#C51C1E"/><path d="M40.61 27 46 25l-5.45 1.5-3.55-.9 3.61 1.4ZM41.41 24 38 25l3.44-.77 2.56.34-2.59-.57ZM5 30h1l2-4 1 2H7.76l-.5 1H9.4l.59 1h1l-2.5-5h-1L5 30ZM16 26.22v-.94s-.4-.28-1.45-.28c-1.05 0-2.55.87-2.55 2.5s1.02 2.5 2.47 2.5c1.45 0 1.53-.36 1.53-.36v-.89s-.7.25-1.48.25S13 28.7 13 27.57 13.58 26 14.63 26c1.07 0 1.37.22 1.37.22ZM17 25.01V30h1v-4h1.3s.7 0 .7.6c0 .9-1.53 1.09-1.53 1.09L20 30h1l-1.44-2.03S21 27.5 21 26.48c0-1.25-1.22-1.47-1.47-1.47-.28-.03-2.53 0-2.53 0ZM28 25l.86 5h.85L31 26l1.29 4h.85l.86-5h-.86l-.59 3.5-1.12-3.5h-.86l-1.18 3.5-.53-3.5H28Z" fill="#201B48"/><path fill-rule="evenodd" d="M27 27.5a2.5 2.5 0 1 0-2.5 2.5 2.5 2.5 0 0 0 2.5-2.5Zm-1 0c0-.83-.69-1.5-1.5-1.5s-1.48.67-1.5 1.5c0 .83.69 1.5 1.5 1.5.84 0 1.5-.67 1.5-1.5Z" fill="#201B48"/></svg>