<!-- by TradingView --><svg width="56" height="56" viewBox="0 0 56 56" xmlns="http://www.w3.org/2000/svg"><path fill="#F0F3FA" d="M0 0h56v56H0z"/><path d="M9 25.77 6.02 31H4l4-7 1 1.77ZM10.5 29l1.5 2H9l1.5-2ZM28 25.77 25.02 31H23l4-7 1 1.77ZM29.5 29l1.5 2h-3l1.5-2ZM49 25.77 46.02 31H44l4-7 1 1.77ZM50.5 29l1.5 2h-3l1.5-2ZM41 24h2v7h-2zM33 24h2v7h-2zM14 24h2v7h-2zM36.76 24c1.03 0 1.86.76 1.86 1.7 0 .6-.34 1.13-.85 1.43A2.03 2.03 0 0 1 39 28.96c0 1.13-1 2.04-2.23 2.04a2.4 2.4 0 0 1-.77-.13 2.33 2.33 0 0 0 1.05-1.91c0-1.17-.91-1.82-.91-1.82s.67-.81.67-1.44c0-.63-.31-1.19-.8-1.55a2 2 0 0 1 .75-.15ZM17.93 24c1.23 0 2.23.9 2.23 2.03 0 .78-.48 1.45-1.2 1.8 1.04.24 1.2 1.31 1.2 2 0 .57.56 1.02.84 1.17h-1.34c-1.06 0-1.79-1.07-1.79-1.88 0-.65-.6-1.1-.87-1.24a2.31 2.31 0 0 0 1.04-1.9c0-.74-.37-1.4-.95-1.83.26-.1.54-.15.84-.15Z" fill="#231E1F"/></svg>