<!-- by TradingView --><svg width="56" height="56" viewBox="0 0 56 56" xmlns="http://www.w3.org/2000/svg"><path fill="#F0F3FA" d="M0 0h56v56H0z"/><path d="M32 14.36a4.5 4.5 0 1 1-9 .26 4.5 4.5 0 0 1 9-.26Z"/><path d="M25.1 11.57c1.06-.96 3.06-1.33 4.2-.25.14.13.12.17-.06.12-1.52-.47-2.77-.27-3.73.6-.97.87-1.31 2.1-1.04 3.7.03.2-.01.2-.12.05-.9-1.29-.3-3.27.75-4.22Z" fill="#fff"/><path d="m30.44 19.5-.1.06a.84.84 0 0 0-.2 1.2l1.7 2.32c.27.39.81.48 1.2.2l.1-.06c.38-.27.47-.8.2-1.19l-1.7-2.33a.87.87 0 0 0-1.2-.2Z" fill="#95AAB1"/><path d="M40 27.36a4.5 4.5 0 1 1-9 .27 4.5 4.5 0 0 1 9-.27Z"/><path d="M33.08 24.37c1.12-.93 3.19-1.23 4.32-.08.14.13.12.17-.07.11-1.54-.54-2.82-.38-3.85.47-1.02.85-1.42 2.1-1.2 3.73.02.2-.02.22-.13.05-.88-1.35-.19-3.34.93-4.28Z" fill="#fff"/><circle cx="19.5" cy="30.5" r="4.5"/><path d="M16.16 31.61v.03l-.02.01h-.05c-.04-.01-.05-.03-.06-.04-.14-1.01-.4-2.73.3-3.6 1.3-1.58 3.45-1.98 5.15-.75.03.03.04.06.02.1l-.04.07h-.03a3.5 3.5 0 0 0-2.88-.3c-2.03.72-2.83 2.22-2.39 4.48Z" fill="#fff"/><path d="m29.3 27.61-2.9.7a.85.85 0 0 0-.63 1.03l.01.08c.12.45.58.73 1.05.62l2.9-.7a.85.85 0 0 0 .63-1.03l-.02-.08a.86.86 0 0 0-1.04-.62ZM33.89 32.36l-.27-.15a.81.81 0 0 0-1.1.33l-1.42 2.6a.79.79 0 0 0 .33 1.08l.26.14c.4.2.88.07 1.1-.32l1.42-2.61a.79.79 0 0 0-.32-1.07Z" fill="#95AAB1"/><path d="M34 41.52a4.5 4.5 0 1 1-9-.04 4.5 4.5 0 0 1 9 .04Z"/><path d="M27.52 39.02c-.97.87-1.31 2.1-1.04 3.7.03.18 0 .2-.12.05-.9-1.29-.3-3.26.75-4.21 1.05-.95 3.05-1.32 4.2-.25.13.13.1.17-.07.11-1.52-.46-2.76-.26-3.72.6Z" fill="#fff"/></svg>