<!-- by TradingView --><svg width="56" height="56" viewBox="0 0 56 56" xmlns="http://www.w3.org/2000/svg"><path fill="#F0F3FA" d="M0 0h56v56H0z"/><path d="M33.58 29.37c.44.01 1.28-.37 1.88-.47.88-.14 1.48-.04 2.33-.04h.53c.77-.07.87-.04 1.39.3l.62.42c-.1.3-.27.84-.48 1.04-.37.08-.67.27-1.22.35-1.68.25-.94.05-2.27.89l-.94.6c-.14.17.14.02-.24.22-.25-.14-.05.09-.14-.21l.41-.77-1.42.37c.31-.57.76-.57 1.02-1.2l-1.46-.1c.22-.4.7-.54 1.13-.87-.24-.23-.92-.23-1.34-.25.06-.23 0-.11.2-.28Zm-2.74-1.75-1 .02c-.25-.44-.88-1.05-1.24-1.5-.44-.55-.84-1-1.33-1.52-4.07-4.38-3.7-4.67-11.8-5.08.9-.46 4.32-.18 5.43.04a7.2 7.2 0 0 1 3.95 1.94c1.12 1.02 5.48 5.13 5.99 6.1Zm-5.94 1.75c.46-.29 1.6-.26 2.04 0-.49.32-1.48.33-2.34 1.08-.72.61-1.17 1.13-2.16 1.44-1.01.91 1.36 1.95 1.1 2.05.36.26.76.17 1.28.04.44-.1.8-.26 1.21-.3-.21.43-.24.08-.41.6 3.62-.51 3.88-2.53 8.58-2-.24.26-.08.1-.03.2l.62-.18c-.04.34-.25.58-.32 1.1.75-.26 2.14-1.4 2.73-1.52.68-.12 1.14-.08 1.83-.29.96-.28 1.02-.54 1.42-.73.04-.77-.04-1.1.5-1.58-.34-.6-2.92-1.14-3.8-1.25-.85-.1-3.95-.26-4.38-.58l-.53-.2-.14.17c-.52.17-1.6-1-1.65-1.18-.48-.02-.74-.5-1.05-.81-5.43-5.55-5.65-7.1-15.45-6.18-1.63.16-5.67.51-6.95 1.05.61.66 7.3.8 8.9 1.6-.17.56-.69.24-1.23.74.48.39 2.98.57 3.78.92.37.17.28.14.38.4-.2.11-.49.25-.75.36-.3.14-.56.2-.74.46.86.62 3.59.56 4.02 1.39-.17.36-.21.34-.56.5-.29.15-.49.2-.72.46.52.4 2.1.32 3.24.53.52.09.76.1.9.54-.37.49-.97.37-1.59.61.53.27 1.21.22 1.68.27.78.07.44-.02.59.29Z" fill="#0B3C8B"/><path d="M25.71 36.98c.04-.53-.02-.59.25-.91.11.08.21-.1.32.56-.23.3-.15.26-.57.35Zm-1.77-1.26c-.01.03-.11.06-.15.33-.07.39.06.23.07.24.43-.3.08 0 .26-.29.46-.05.74.49.77.95-.22.24-.3.33-.72.4-.2.08-.12 0-.22.17l.3.06 1.22.36.18-.6.7.17c.05.04.06.1.23.13.38.08.09.02.33-.04l.12-.46c.01-.33.03-.88.16-1.18.06-.15.49-.58.67-.68.57-.3 2.14.22 4.12-1.16.75-.52.9-.97 1.35-1.19l-.14-.11c-1.15.91-2.08 2.03-4.4 2.17l.92-.7c-.25-.13-1.26.17-1.7.25-.8.16-3.3.5-4 .23-.14-.06-1.03-.8-1.14-.91-.35-.14-.27-.06-.53-.46.4.17.34.07.56.4l.65.14c.25-.1.14.01.23-.2l-.17-.06c-.55-.2-.3-.1-.5-.34-.31-.4-.2-.18-.57-.34.07-.3.15-.29.33-.53-.12-.27-.04-.05-.21-.27l-.22-.31c1-.31 1.44-.83 2.16-1.44.86-.75 1.85-.76 2.34-1.08-.45-.26-1.58-.29-2.04 0-.49-.06-3.41 2.32-3.87 2.67-.53.4-1.44.94-2.2 1.16-2.53.72-2.9-.24-2.93 1.74-1.39.24-1.4 0-2.02 1.14-.34.62-.77 1.5-.55 2.37.13.07.03.25.77-.12.95-.48 4.04-2.07 4.61-2.22-.66.46-1.7 1-2.48 1.4-.8.41-1.82.8-2.54 1.36-.18.95.3 2.42.6 3.13.54-.16.88-.66 1.28-1.1l3-2.72c1.47-1.24 2.47-2.36 4.88-3.01a6.6 6.6 0 0 1 1.88.07c-.1.9-.6.23-1.31.17l-.08.31Zm-7.97 4.44c-.18.3.17.1-.13.24l-.38-.51.16-.4-.9.05.17-.19.23-.2c1.14-.9 6.27-4.4 7.28-4.46.48-.02.2-.07.52.34-.28.2-.67.28-1.02.46-1.56.84-5.26 3.64-5.93 4.67Zm8.81-10.36c-.84.51-1.76 1.26-2.6 1.68.52-.76 1.54-1.32 2.46-1.78.15-.15-.15 0 .29-.22l.27-.06c-.14.3-.14.26-.42.38ZM41.18 22.52v.24c.26.07 0-.04.19.08.5.33-.2-.35.09.15l-.73.4c-.06.45-.11.51-1.13.6l.12.16.4.08c.42.13.06.01.27.16l-.28.14c-.42.07-.98.5-1.59.66-.78.2-1.3.08-2.02.17.03.02.73.68.75.75l-1.13.15c-.17.35.03.06.07.37-.8.19-1.66.42-2.46.15.04-.36.31-.52.56-.77.25-.25.36-.35.62-.65.5-.54.68-.64 1.53-1.05v-.07c.11-.58.98-.85 2.12-1.68 1.36-.99 1.23-.67 2.27-.84.66-.1.19.02.32-.35.95-.2 2.27-.2 3.26-.12.39.03.62 0 .8.22-.88.45-2.96 1.14-4.03 1.05Zm-10.73 3.72c.19.64 1.09 1.14 1.43 1.74l-.18.3c-.01.02-.13.17-.15.23l.63.03-.08-1.12c-.29-.1-.2.09-.17-.43.32.03.56.1.85.4.33-.01 1.41.17 1.94.21.7.06 1.4.03 2.08.09.73.06 2-.22 2.83-.39.28-.05.6-.1.83-.28-.48-.4-.52-.22-.81-.64.29-.26.77-.38 1.48-.55l1.32-.26c.29-.1.18-.06.29-.17l-1.23-.51c.32-.61 2.54-.79 3.45-.84-.14-.38.02-.15-.3-.38-.35-.24-.8-.26-.97-.7.46-.36 2.24-.86 2.94-1.04 1.16-.29 2.32-.3 3.37-.65-1.47-.26-2.97-.47-4.42-.81-4.18-.44-5.4-.99-8.92 1.12-1.28.77-2.1 1.51-3.19 2.3-1 .73-2.06 1.56-3.02 2.35Z" fill="#0A305F"/><path d="M18.93 20.74c-.17-.22.1.01 0-.4-1.58-.07-6.86-.23-7.81.17.57.3 4.93.83 6.16 1.02.45.07 1.45.17 1.84.39.02 0 .06.07.07.05 0-.02.04.03.05.03l-.55.43c.3.23.59.27 1.04.37-.04.3-.68.77 1.29.85-.22.38-.49.34-.88.49a6.17 6.17 0 0 0 4.6.93c-.19.49-.6.65-.76 1.07.45.12 1.03.1 1.57.11-.18.24-.2.17-.36.48 1.09.24 2.48 1.08 3.7.7-.09-.6-1.46-1.66-1.89-2.12a4.87 4.87 0 0 0-2.42-1.6c.07-.28.19-.18.12-.4l-2.36-1.46c-1.55-1.09-1.25-.91-3.4-1.1Z" fill="#058EC9"/><path d="M28.09 33.53c.83-.26 1.67-.64 2.5-.94.47-.16.83-.29 1.34-.35.71-.1 1.25-.13 1.26.58l.14.11.84-.45c-.05-.1-.2.06.03-.2-.35-.03-.45.03-.65-.14l.8-.85c-1.71-1.28-5.14.18-8.15.03.4 1.06 1 .39 1.9.57.03.52-.35.42-.69.81.6 0 1.08-.2 1.38-.02-.24.31-.4.34-.89.43l.06.06.14.16c.09.18.22-.13-.01.2Z" fill="#0C6CB2"/><path d="m46.34 20.65-.76-.18c-.06.1.13.2-.52.15-1.36-.09-1.67-.42-4.08-.27-1.65.1-2.7.65-3.82 1.31-1.12.68-5.5 3.8-5.72 4.5l1 .58c.4-.28.88-.8 1.27-1.21.41-.44.77-.7 1.27-1.17.75-.72 1.75-1.5 2.68-2.18 3.32-2.37 4.69-1.23 8.2-1.4l.48-.13Z" fill="#048AC4"/><path d="M33.58 29.37c-.2.17-.14.05-.2.28.42.02 1.1.02 1.34.25-.42.33-.9.48-1.13.88l1.46.1c-.26.62-.7.62-1.02 1.2l1.42-.38-.4.77c.22-.39-.04 0 .22-.2.1-.11.29-.36.38-.51.3-.55-.38-.43.69-1.33.34-.28.23-.13.46-.14.66-.02 1.83-.83 3.04-.24.12.48.12.2 0 .57.22-.2.4-.75.49-1.04l-.62-.41c-.07.1.14.26-.33.09-.02.14.03.4-.33.41-.26 0-.3-.15-.37-.46l.21-.02-.55-.18-.02-.15h-.53c-.48.24-1.57.2-2.2.32-.35.07-.65.16-.96.3-1.2.5-1.02-.04-1.05-.1Z" fill="#068DC6"/><path d="M14.33 36.62c1.31-.29 3.03-1.4 4.23-1.67-.33-.22-.64-.03-1.16.1-.46.13-.8.24-1.25.34-1.18.28-1.43.17-1.82 1.23Z" fill="#133D84"/><path d="M40.92 30.46c.67-.1.98.44 1.42.44.31-.98-.48-1.37-1.16-1.66-.02.02-.06.02-.07.06l-.16.19-.17.34c-.4.86.07.61.14.63Z" fill="#0A6FB6"/><path d="m40.45 30.86.47-.4c-.07-.02-.54.23-.14-.63l.17-.34.16-.19c.01-.04.05-.04.07-.06l-.23.04c-.54.47-.46.81-.5 1.58Z" fill="#8CB8D4"/><path d="m39.38 29.26-.49-.07-.21.02c.07.31.11.47.37.46.36 0 .31-.27.33-.41Z" fill="#063161"/><path d="m32.1 27.42.14-.17.53.2.01-.07a1.2 1.2 0 0 0-.85-.4c-.03.53-.12.34.17.44Z" fill="#C5CFE2"/><path d="M35.04 32.47c.09.3-.1.07.14.21.38-.2.1-.05.24-.23-.22 0-.16.05-.15-.19-.26.21 0-.18-.23.2Z" fill="#75C2DB"/></svg>