<!-- by TradingView --><svg width="56" height="56" viewBox="0 0 56 56" xmlns="http://www.w3.org/2000/svg"><path fill="#F0F3FA" d="M0 0h56v56H0z"/><path d="M28 9 9 28l19 19 19-19L28 9Zm-9.57 26.97v-.4h.07c.74 0 1.5-.58 1.5-1.3V20l10 11.93v-10.1c0-.73-.28-1.31-1.02-1.31h-.54V20h7.14c2.5 0 4.42 1.98 4.42 4.42 0 3.34-2.98 4.29-4.67 4.29-1.35 0-2.24-.31-2.52-.47V28c4.21.56 5.15-2.3 5.19-3.8v-.12c0-1.82-1.32-3.08-3.17-3.08H32v13.3c0 .73.59 1.32 1.33 1.32h.6V36h-5.49v-.38h.54c.74 0 1.02-.59 1.02-1.32v-.13l-9-10.78v10.89c0 .71.49 1.3 1.23 1.3h.15v.4h-3.95Z" fill="#8F0506"/></svg>