<!-- by TradingView --><svg width="56" height="56" viewBox="0 0 56 56" xmlns="http://www.w3.org/2000/svg"><path fill="#F0F3FA" d="M0 0h56v56H0z"/><path d="M17.75 17.17a1.61 1.61 0 0 1-.53-.47.16.16 0 0 0-.07-.06.31.31 0 0 0-.1-.01l-2.57-2.12c-.07-.06-.07-.11-.02-.18l1.88-2.24c.1-.11.2-.12.32-.02l5.7 5.07c.1.08.2.1.32.08 3.71-.73 6.75.05 9.12 2.34 2 1.93 3.4 4.8 4.22 8.6.61 2.83.95 6.3 1.02 10.41 0 .03-.01.04-.03.05-.03 0-.05 0-.06-.02-1.13-1.4-2.96-2.5-5.48-3.33-3.41-1.12-5.45-1.8-6.11-2.04a15.41 15.41 0 0 1-4.95-2.67 6.65 6.65 0 0 1-2.43-4.88c-.04-1.05.04-2.03.26-2.93.03-.13-.01-.23-.12-.3l-1.58-.98a.13.13 0 0 1-.06-.11c0-.05.02-.1.06-.12L19.98 19c.06-.04.06-.08 0-.12l-2.23-1.7Z" fill="#18AC68"/><path d="m30.88 30.2-14.07-8.8c-.05-.03-.05-.06 0-.1l3.44-2.24c.1-.06.1-.13 0-.2l-5.48-4.36c-.07-.05-.08-.12-.02-.18l1.7-2.03c.05-.05.1-.06.15 0l9.6 8.52c.08.07.07.13-.02.17l-3.06 1.52c-.1.05-.1.12-.02.2l7.8 7.48c.04.05.04.05-.02.01Z" fill="#F0F3FA"/><path d="m17.05 16.63.1.01c.03.01.05.03.07.06.2.24.37.4.53.47-.83.75-1.57 1.6-2.2 2.54a8.66 8.66 0 0 0-1.3 7.24 14.1 14.1 0 0 0 3.91 6.5 25.06 25.06 0 0 0 6.97 4.97 21.11 21.11 0 0 0 8.26 2.15c.74.04 1.52-.01 2.31-.14a5.03 5.03 0 0 0 2.25-1 6.8 6.8 0 0 0 1.66-1.83 8.86 8.86 0 0 0 1.22-4.2c.09-1.44-.05-2.92-.42-4.46a21.2 21.2 0 0 0-2.67-6.35c-1.25-2-2.76-3.68-4.52-5.05a16.3 16.3 0 0 0-5.96-3c-2.28-.6-4.63-.65-7.02-.18-.02 0-.04 0-.05-.02-.01-.03 0-.05.01-.06.14-.1.26-.18.38-.24 4.35-2.03 8.65-2.28 12.92-.75a16.05 16.05 0 0 1 9.45 9.42c1.02 2.7 1.3 5.56.83 8.56-.02.11-.03.1-.04 0a24 24 0 0 0-3.6-10.63 16.94 16.94 0 0 0-2.2-2.83c-.92-.96-1.86-1.7-2.82-2.24h-.05v.05a18.9 18.9 0 0 1 4.6 5.46 24.23 24.23 0 0 1 2.6 6.6c.51 2.13.6 4.1.27 5.92a9.93 9.93 0 0 1-2.7 5.3 16.36 16.36 0 0 1-13.1 5.07c-1.86-.08-3.65-.5-5.38-1.26A16.03 16.03 0 0 1 12 30.18c0-.02 0-.03.03-.04.02 0 .04 0 .04.02a20.85 20.85 0 0 0 5.05 7.09A16.53 16.53 0 0 0 30.2 41.7c.02 0 .03-.01.03-.03 0-.02-.01-.03-.03-.03-2.1-.06-3.9-.33-5.37-.83a20.6 20.6 0 0 1-9.22-6.2 12.55 12.55 0 0 1-2.89-5.67c-.43-2.05-.31-4.16.35-6.34.66-2.16 1.9-4.1 3.7-5.8a.92.92 0 0 1 .29-.18Z" fill="#CE222A"/><path d="M24.43 26.29c.03 0 .04.02.04.05v.03c-.14 1.97-.27 2.95-.38 2.94h-.06c-.11-.01-.1-1 .05-2.97v-.03c0-.03.02-.04.05-.04l.3.02ZM27.02 28l.74.52c.09.05.12.13.11.23l-.22 2.32c0 .02 0 .02-.02.02h-.05c-.03 0-.05-.03-.05-.06-.09-1-.3-1.98-.62-2.94 0-.03 0-.06.03-.08.03-.02.06-.02.08 0Z" fill="#F0F3FA"/><path d="M30.98 29c.03.01.04.03.03.06 0 .03-.02.04-.05.04a9.24 9.24 0 0 1-1.14-.23c-.03 0-.04-.03-.03-.05 0-.03.02-.04.05-.04.52.05.9.13 1.14.22Z" fill="#E9F0F8"/><path d="M29.17 29.96c-.1-.34-.22-.61-.25-.6-.04 0 .03.3.14.64.11.34.23.61.26.6.03 0-.04-.3-.15-.64Z" fill="#C3F4FC"/></svg>