<!-- by TradingView --><svg width="56" height="56" viewBox="0 0 56 56" xmlns="http://www.w3.org/2000/svg"><path fill="#F0F3FA" d="M0 0h56v56H0z"/><path d="M33.76 27a6.98 6.98 0 0 1 6.88 4.79 6.92 6.92 0 0 1-1.02 6.37A6.97 6.97 0 0 1 33.9 41H16.07a1.1 1.1 0 0 1-.63-.17.97.97 0 0 1-.38-.52.97.97 0 0 1 0-.65c.06-.2.2-.37.39-.51l14.26-10.69A7 7 0 0 1 33.76 27Zm6.17-12c.25 0 .46.06.63.17.18.12.3.3.38.52.08.23.08.44 0 .64-.06.2-.2.37-.39.52L26.29 27.54A7 7 0 1 1 22.11 15h17.82Z" fill="url(#a)"/><defs><linearGradient id="a" x1="28" y1="15" x2="28" y2="41" gradientUnits="userSpaceOnUse"><stop stop-color="#10B6BF"/><stop offset="1" stop-color="#CBDC32"/></linearGradient></defs></svg>