<!-- by TradingView --><svg width="56" height="56" viewBox="0 0 56 56" xmlns="http://www.w3.org/2000/svg"><path fill="#F0F3FA" d="M0 0h56v56H0z"/><path d="M4.48 22h5.04c.27 0 .48.22.48.49v1.02c0 .27-.21.49-.48.49H4.48a.48.48 0 0 1-.48-.49V22.5c0-.27.21-.49.48-.49ZM4.41 26.5H7.6c.23 0 .41.22.41.49V28c0 .27-.18.49-.41.49H4.4c-.23 0-.41-.22-.41-.49V27c0-.27.18-.49.41-.49ZM4.46 31h6.08c.26 0 .46.22.46.49v1.02c0 .27-.2.49-.46.49H4.46c-.26 0-.46-.22-.46-.49V31.5c0-.27.2-.49.46-.49ZM51 33l-5.65-3.08s-.87-.38-.87-1.46.61-1.46.97-1.46c1.07 0 1.68 2 2.29 2 .61 0 1.27-1.51 1.27-2.49 0-.97-.4-1.51-1.12-1.51-.71 0-4.99 1.35-4.89 4.38.05 2.54 1.53 3.62 2.24 3.62H51Z" fill="#EA0B2A"/><path d="M43 22.5v10c0 .28-.22.5-.49.5H41.5a.49.49 0 0 1-.49-.5v-10c0-.28.22-.5.49-.5h1.02c.33 0 .49.22.49.5Z" fill="#071E5B"/><path fill-rule="evenodd" d="M13 22.22v10.4s0 .38.48.38h4.55S21 32.56 21 29.68c0-1.77-1.45-2.68-1.45-2.68s.45-.82.45-2.15c0-1.27-1.03-2.85-2.2-2.85h-4.49s-.2 0-.31.22ZM15.3 24h1.72a1 1 0 0 1 .98 1v.5a1 1 0 0 1-.98 1H15.3c-.15 0-.3-.15-.3-.3v-1.95c0-.1.15-.25.3-.25Zm2.15 4.5h-2.1c-.23 0-.35.14-.35.27v1.96c0 .13.18.27.36.27h2.09c.9 0 1.55-.55 1.55-1.18v-.14c0-.68-.72-1.18-1.55-1.18ZM30 32.54v-8.08c.05-.51-.32-.46-.32-.46h-.71c-.33 0-.36.08-.44.29a5.98 5.98 0 0 1-.08.19c-.09.24-.19.52-.45.52-.05 0-.1-.07-.16-.17-.2-.28-.56-.83-1.8-.83A4.34 4.34 0 0 0 22 28.4c0 3.01 2.44 4.6 3.95 4.6 1.15 0 1.56-.6 1.75-.86.06-.09.1-.14.12-.14.14 0 .18.34.18.6 0 .32.36.4.36.4h1.17c.52 0 .46-.46.46-.46Zm-2-4.04c0-1.37-.86-2.5-2-2.5-1.1 0-2 1.13-2 2.5s.86 2.5 2 2.5c1.1 0 2-1.13 2-2.5Z" fill="#071E5B"/><path d="M32 24.36v8.12s-.1.52.48.52h1.15s.37.05.37-.68v-4.78S33.8 26 35.5 26c1.65 0 1.5 1.28 1.5 1.49v5.1s-.05.41.48.41h1.2s.32 0 .32-.52v-5.05S39 24 35.87 24c-1.32 0-1.85.88-2 .94-.22.05-.27-.21-.33-.42-.05-.2-.05-.52-.37-.52h-.84s-.32-.05-.32.36Z" fill="#071E5B"/></svg>