<!-- by TradingView --><svg width="56" height="56" viewBox="0 0 56 56" xmlns="http://www.w3.org/2000/svg"><path fill="#F0F3FA" d="M0 0h56v56H0z"/><path d="M43 25v15H13V25H8l20-14 20 14h-5Z" fill="#003137"/><path d="M15 37h26V25l-13-8-13 8v12Z" fill="#004A52"/><path d="M17 36h22V25.8L28 19l-11 6.8V36Z" fill="#006770"/><path d="M20 34h16v-7.2L28.02 22 20 26.8V34Z" fill="#00818D"/><path d="M21 21.6v14.08s0 .93 1 .93h2v1H14v-1h2s1 0 1-.86V24.88s.18-1.25-1.57-1.27c-.47 0-1.08.08-1.87.33l-.56-.48 7.03-1.85H21ZM30.5 22.6v4H30s-.3-3.23-2.76-3.23c-1.6 0-1.94.8-1.96 1.42-.04 1.3 2.32 2.45 3.26 2.85 1.34.57 2.46 1.62 2.46 2.97 0 1.36-1.43 2.98-3.26 2.98-1.83 0-2.48-.67-3.17-.63l-.57.65v-3.74l.31.36s.64 2.67 3.17 2.67c1.74 0 2.07-1.37 2.07-1.75 0-.38-.47-1.57-2.6-2.4-2.13-.84-2.95-2.37-2.95-3.31s.75-2.83 2.99-2.83c1.76 0 2.04.82 2.52.82.47 0 .49-.82.49-.82h.5ZM36 19.6v3h3v1l-3 .02v7.67s.11 1 1.14 1c1.03 0 1.43-1 1.43-1l.43.24s-.6 2.08-2.85 2.08c-2.24 0-2.15-2-2.15-2.36v-7.64h-2v-.5s2.55-.42 3.5-3.5h.5Z" fill="#181B1E"/><path d="M22 21v14.07s0 .93 1 .93h2v1H15v-1h2s1 0 1-.86V24.28s.18-1.26-1.57-1.28c-.47 0-1.08.09-1.87.34l-.56-.49L21.03 21H22ZM31.5 22v4H31s-.3-3.24-2.76-3.24c-1.6 0-1.94.8-1.96 1.42-.04 1.3 2.32 2.45 3.26 2.85 1.34.57 2.46 1.62 2.46 2.98 0 1.35-1.43 2.97-3.26 2.97-1.83 0-2.48-.67-3.17-.63L25 33v-3.74l.31.37s.64 2.66 3.17 2.66c1.74 0 2.07-1.37 2.07-1.75 0-.38-.47-1.56-2.6-2.4-2.13-.84-2.95-2.37-2.95-3.3 0-.94.75-2.84 2.99-2.84 1.76 0 2.04.82 2.52.82.47 0 .49-.82.49-.82h.5ZM37 19v3h3v1l-3 .01v7.68s.11 1 1.14 1c1.03 0 1.43-1 1.43-1l.43.23S39.4 33 37.15 33C34.9 33 35 31 35 30.65V23h-2v-.5s2.55-.41 3.5-3.5h.5Z" fill="#F0F3FA"/></svg>