<!-- by TradingView --><svg width="56" height="56" viewBox="0 0 56 56" xmlns="http://www.w3.org/2000/svg"><path fill="#F0F3FA" d="M0 0h56v56H0z"/><path d="m25.4 10 5.24 2.8a.18.18 0 0 0-.05.04l-1.77 1.29-1.04.76-.02.03v4.32l.02 7.11v5.7l-.02.08a784.98 784.98 0 0 1-.04-5.88v-.03a84.35 84.35 0 0 0 0-2.69v-.86a43.28 43.28 0 0 1 0-1.72l-.01-.36a2229.23 2229.23 0 0 0-.04-5.63 1067.77 1067.77 0 0 0-2.3-4.9l.01-.06h.01Z" fill="#D8D9DA"/><path d="M27.76 32.13v1.86h.01v-1.94l.01-5.7a147.2 147.2 0 0 0 .02-1.8 199.41 199.41 0 0 1 .01 3.63 8781.17 8781.17 0 0 1 .01 4.78l.01.6c0 .13 0 .31-.02.55-.03.24-.04.56-.03.96v.74l.01 2.54c0 .01 0 .03-.03.04l-2.38-1.28V10.06l.02.02a1067.77 1067.77 0 0 1 2.27 4.88l.01.23a2264.63 2264.63 0 0 1 .06 12.82V28.16c0 1.32 0 2.64.02 3.97Z" fill="#919095"/><path d="M30.64 12.8v24.28c0 .02 0 .03-.02.04l-2.8 1.28h-.06l.03-.05a376.6 376.6 0 0 0-.01-3.28c0-.4 0-.72.02-.96.03-.24.04-.42.03-.55v-.22l.01-.01c.02 0 .02-.01.02-.02.09-2.55.24-4.97.44-7.27a83.6 83.6 0 0 1 1.47-10 37.48 37.48 0 0 1 .87-3.23Z" fill="#C7C8CA"/><path d="M30.59 12.84v.04c-.32 1.04-.59 2.1-.82 3.17a83.63 83.63 0 0 0-1.47 10 131.54 131.54 0 0 0-.46 7.28v.23a181.63 181.63 0 0 0-.03-1.83 8781.17 8781.17 0 0 0 0-7.18l-.03.24v1.56l-.02-7.11a.33.33 0 0 0 .05-.2v-4.08c0-.03.01-.05.03-.06l.96-.71c.03-.03.04-.05.02-.06l1.77-1.29Z" fill="#A1A3A7"/><path d="M28.82 14.13c.02 0 .01.03-.02.06l-.96.7a.07.07 0 0 0-.03.07v4.08c0 .08-.02.15-.05.2v-4.32c0-.01 0-.02.02-.03l1.04-.76Z" fill="#919095"/><path d="M24.28 17.96a.16.16 0 0 0-.04.03h-.01l-1.35.91-1.46 1.03a.03.03 0 0 0-.01.03v.86l-.01.1-.01 1.28a2167.29 2167.29 0 0 1 .01 5.05 1211.97 1211.97 0 0 0 .03 10.08c0 .37 0 .66-.02.85l-.03-4.72v-.08a444.28 444.28 0 0 1-.02-3.22 608.08 608.08 0 0 0-.02-4.73 1199.64 1199.64 0 0 0-.04-5.49l-2.07-4.43-.09-.19a2.22 2.22 0 0 0-.13-.26v-.03h.01l5.17 2.87.05.02c.03.01.04.02.04.04Z" fill="#D8D9DA"/><path d="m21.4 38.18.03 1v1.45c-.05.42-.04.84 0 1.25l-.02.04-2.38-1.29c-.01 0-.02 0-.02-.02V15.06a2.26 2.26 0 0 1 .22.45A896.16 896.16 0 0 1 21.3 20a1213.78 1213.78 0 0 1 .05 10.17v.1l.01.13a116.32 116.32 0 0 0 .01 3.07l.03 4.72Z" fill="#919095"/><path d="m37 16.68-2.3 4.83v.03l-.07 15.26h-.04a17.35 17.35 0 0 1 .02-.62V21.52l-.01-.02-.63-.45a20.08 20.08 0 0 0-1.42-1.03l-.77-.53-.05-.02v-.01l.01-.01 5.24-2.8H37v.03Z" fill="#D8D9DA"/><path d="M37 16.68V43.7l-.02.01L34.6 45l-.03-.04a184.9 184.9 0 0 0-.02-4.61l.03-.34a4.88 4.88 0 0 0 .03-.6l.01-.12a198.82 198.82 0 0 0 0-2.5l.08-15.25v-.03l2.3-4.83Z" fill="#919095"/><path d="M24.28 17.96V40.6c0 .02 0 .03-.02.04a9854.57 9854.57 0 0 0-2.85 1.28l.03-.04a6.2 6.2 0 0 0-.02-1.25v-1.45a126.67 126.67 0 0 1 .1-2.64c.1-3.06.32-5.96.64-8.67.27-2.33.63-4.48 1.08-6.44a25.18 25.18 0 0 1 1.04-3.47Z" fill="#C7C8CA"/><path d="M24.24 18c-.36.94-.7 2.08-1 3.43-.45 1.96-.8 4.1-1.08 6.44a106.47 106.47 0 0 0-.7 10.05l-.03 1.26-.02-1c.02-.2.02-.48.02-.85a1093.35 1093.35 0 0 1-.02-3.8 1211.99 1211.99 0 0 1-.02-6.41 2167.2 2167.2 0 0 0 .02-6.3 17.53 17.53 0 0 0 .03-.84c-.01-.02 0-.03.02-.05a59.21 59.21 0 0 0 1.42-1.03l1.34-.91h.02Z" fill="#A1A3A7"/><path d="M22.88 18.9h.01v.03l-1.43 1a.06.06 0 0 0-.03.06 17.53 17.53 0 0 1-.02.83v-.86l.01-.03 1.46-1.03Z" fill="#919095"/><path d="M31.78 19.5a21.34 21.34 0 0 1 .36 1.28c.61 2.35 1.1 5 1.49 7.96a110.61 110.61 0 0 1 .87 10.97 8.73 8.73 0 0 0 .06.63v.7a184.9 184.9 0 0 1 0 3.96 7658.02 7658.02 0 0 0-2.83-1.32V19.47l.05.02Z" fill="#C7C8CA"/><path d="M33.97 21.05c.16.16.36.31.58.45a2333.02 2333.02 0 0 0 .03 8.54 1230.34 1230.34 0 0 0 .02 6.74 233.05 233.05 0 0 0-.02 3.23l-.02.33a8.84 8.84 0 0 1-.06-.63l-.12-2.59c-.15-2.85-.4-5.64-.75-8.38a64.14 64.14 0 0 0-1.5-7.97 21.35 21.35 0 0 0-.35-1.28 31.94 31.94 0 0 1 1.48 1.04c.24.17.48.34.7.52Z" fill="#A1A3A7"/><path d="m33.97 21.05.63.45.01.02v8.55c-.03 0-.04 0-.04-.02v-8.5a.06.06 0 0 0-.02-.05c-.22-.14-.42-.29-.58-.45Z" fill="#919095"/><path d="M21.44 41.88a6.02 6.02 0 0 1-.02-1.25c.05.42.05.84.02 1.25Z" fill="#A1A3A7"/></svg>