<!-- by TradingView --><svg width="56" height="56" viewBox="0 0 56 56" xmlns="http://www.w3.org/2000/svg"><path fill="#272E36" d="M0 0h56v56H0z"/><path d="M24.3 15.88v3.76l2.94 1.71v13.68a51.4 51.4 0 0 0-3.54.22v-16.8L19 21.33v14.66c-4.23.9-6.92 2.2-8 3.02 2-.8 8.38-2.4 17.95-2.4 9.57 0 14.69 1.6 16.05 2.4-.66-.77-2.55-2-6-2.89V31.7l-2-1.22v5.2c-.91-.17-1.91-.31-3-.42v-8.17l2.5 1.42v-5.12l-4.03-3.42v7.12L29.5 28.5V35H29V12l-4.7 3.88Z" fill="url(#a)"/><defs><linearGradient id="a" x1="12.32" y1="38.18" x2="43.68" y2="38.18" gradientUnits="userSpaceOnUse"><stop stop-color="#C6A33D"/><stop offset=".19" stop-color="#D4BC74"/><stop offset=".43" stop-color="#F3EC9C"/><stop offset="1" stop-color="#D39C38"/></linearGradient></defs></svg>