<!-- by TradingView --><svg width="56" height="56" viewBox="0 0 56 56" xmlns="http://www.w3.org/2000/svg"><path fill="#F0F3FA" d="M0 0h56v56H0z"/><path d="M28 11a17 17 0 1 1 0 34 17 17 0 0 1 0-34Z" fill="#C02F23"/><path d="M26.5 18a8.5 8.5 0 1 1 0 17 8.5 8.5 0 0 1 0-17Z" fill="#D56F36"/><path d="M26 19a7 7 0 1 1 0 14 7 7 0 0 1 0-14Z" fill="#E38934"/><path d="M25.5 20a5.5 5.5 0 1 1 0 11 5.5 5.5 0 0 1 0-11Z" fill="#E2A243"/><path d="M25 22a3 3 0 1 1 0 6 3 3 0 0 1 0-6Z" fill="#FFD746"/><path fill-rule="evenodd" d="M45 28a17 17 0 1 0-34 0 17 17 0 0 0 34 0Zm-5 0a12 12 0 1 0-24 0 12 12 0 0 0 24 0Z" fill="url(#aw5cpifgi)"/><path d="m35.42 19.4 2.2-1.26.99 8.5-2.1 1.06-1.09-8.3Zm-5.79 3.22-2.31 1.05.34 8.83 1.92-1.02.02-3.92 1.2 3.23 1.62-.64-.05-4.97.98 4.36 1.97-1-1.73-8.04-2.15 1.05-.4 4.85-1.41-3.78Zm-4.48 2.53.47 2.35-.81.1c-2.36.6-1.5 3.4-.42 3.4 1.06 0 1.57-1.15 1.57-1.15l.25 2.74c-1.9 2.06-5.31 1.14-5.31-3.11s4.25-4.33 4.25-4.33Zm-7.44 3.39 2.2-1.27.99 8.5-2.1 1.06-1.09-8.3Z" fill="url(#bw5cpifgi)"/><path d="M35 19.27 37.2 18l.99 8.5-2.1 1.06-1.09-8.3Zm-5.69 2.85L27 23.17l.35 8.83 1.9-1.02.04-3.92 1.2 3.23 1.61-.64-.05-4.97.98 4.36 1.97-1L33.27 20l-2.15 1.05-.4 4.85-1.4-3.78ZM24.81 25l.47 2.35-.81.11c-2.36.6-1.49 3.4-.42 3.4s1.57-1.15 1.57-1.15l.25 2.74c-1.9 2.06-5.3 1.13-5.3-3.12S24.8 25 24.8 25Zm-7.43 3.27 2.2-1.27.98 8.5-2.1 1.06-1.09-8.3Z" fill="url(#cw5cpifgi)"/><path opacity=".3" d="M38.53 15.98c3.07 2.71 5.1 6.6 5.37 10.96h-1.94a13.97 13.97 0 0 0-4.77-9.5l1.34-1.46Zm-1.77-1.35c-.46-.3-.93-.58-1.42-.84l1.42.84Zm-2.55-1.37A15.83 15.83 0 0 0 29 12.03v2c1.45.1 2.83.43 4.12.94l1.09-1.71Zm7.63 16.87h1.95a15.98 15.98 0 0 1-9.52 12.53l-.87-1.74c4.42-1.85 7.7-5.9 8.44-10.8Zm-22.3 9.02a13.98 13.98 0 0 1-4.5-16.44l-1.82-.73a15.95 15.95 0 0 0 5.2 18.76l1.12-1.59ZM26 12.12a15.95 15.95 0 0 0-12.07 8.34l1.68 1.01A14.01 14.01 0 0 1 26 14.14v-2.02Z" fill="url(#dw5cpifgi)"/><path fill-rule="evenodd" d="M28 44.7a16.7 16.7 0 1 0 0-33.4 16.7 16.7 0 0 0 0 33.4Zm0 .3a17 17 0 1 0 0-34 17 17 0 0 0 0 34Z" fill="#181B1E"/><defs><linearGradient id="aw5cpifgi" x1="41.28" y1="16.84" x2="14.72" y2="38.09" gradientUnits="userSpaceOnUse"><stop offset=".07" stop-color="#fff"/><stop offset=".39" stop-color="#8C8C8C"/><stop offset=".85" stop-color="#fff"/></linearGradient><linearGradient id="bw5cpifgi" x1="38.96" y1="23.3" x2="17.71" y2="36.04" gradientUnits="userSpaceOnUse"><stop stop-color="#7D7D7D"/><stop offset=".08" stop-color="#CCC7B9"/><stop offset=".29" stop-color="#ECE5DA"/><stop offset="1" stop-color="#8B8993"/></linearGradient><linearGradient id="cw5cpifgi" x1="38.63" y1="17.91" x2="16.31" y2="36.5" gradientUnits="userSpaceOnUse"><stop offset=".07" stop-color="#ECECEC"/><stop offset=".3" stop-color="#8A8887"/><stop offset=".46" stop-color="#FBF9F5"/><stop offset=".62" stop-color="#45453D"/><stop offset=".77" stop-color="#fff"/></linearGradient><linearGradient id="dw5cpifgi" x1="27.98" y1="12.03" x2="27.98" y2="42.66"><stop offset="1" stop-color="#181B1E"/></linearGradient></defs></svg>