<!-- by TradingView --><svg width="56" height="56" viewBox="0 0 56 56" xmlns="http://www.w3.org/2000/svg"><path fill="#F0F3FA" d="M0 0h56v56H0z"/><path d="M47.92 34h-2.96l-.04-.01a.08.08 0 0 1-.03-.04L41 26.03a.1.1 0 0 1 0-.08l4.03-7.9c0-.02.01-.03.03-.04l.04-.01h2.8l.05.01.03.03a.1.1 0 0 1 0 .09L44 25.94a.1.1 0 0 0 0 .09L48 33.87a.1.1 0 0 1 0 .09l-.03.03a.08.08 0 0 1-.04.01Z" fill="#1E1E1D"/><path d="M39.89 22H37.1c-.06 0-.11.04-.11.1v3.8c0 .06.04.1.1.1h2.78c.06 0 .11-.04.11-.1l.01-3.8c0-.05-.05-.1-.11-.1Z" fill="#636363"/><path d="M7 34v-6.95l.99-.02c.07 0 .1.04.1.12v2.78c0 .01 0 .03.02.04l.02.03h.04l.04-.01 3.03-2.76c.24-.24.56-.25.81-.22l.04.02.02.04v.04l-.02.03-2.99 2.7a.15.15 0 0 0-.04.05.16.16 0 0 0 .04.18l3.82 3.75c.12.12.1.18-.06.18h-.93a.56.56 0 0 1-.4-.17L8.2 30.57l-.03-.02h-.04a.07.07 0 0 0-.03.03V33.86c0 .1-.05.14-.13.14H7Z" fill="#1E1E1D"/><path fill-rule="evenodd" d="M18.96 32.97A3.5 3.5 0 1 0 14 28.03a3.5 3.5 0 0 0 4.95 4.94Zm-.25-2.47c0-1.46-.56-3.15-2.23-3.15s-2.24 1.69-2.24 3.15c0 1.45.56 3.14 2.23 3.14 1.68 0 2.24-1.68 2.24-3.14ZM27.33 33.81l-2.17-3.06c-.06-.1-.04-.16.06-.2.61-.2 1.03-.52 1.24-.93.66-1.28-.33-2.49-1.56-2.57-.7-.05-1.64-.06-2.8-.03-.07 0-.1.04-.1.11v6.74c0 .08.04.13.12.13H23c.08 0 .12-.05.12-.14v-3.02c0-.04.02-.07.04-.1a.11.11 0 0 1 .08-.03h.52c.07 0 .14.04.19.11l2.14 3.03c.03.05.07.09.12.11.05.03.1.04.16.04h.88c.15 0 .18-.06.09-.19Zm-4.22-6.3-.01.04.02 2.67a.12.12 0 0 0 .03.08.1.1 0 0 0 .08.03h.75c.4-.01.77-.16 1.05-.42.28-.27.43-.62.43-.99v-.12a1.3 1.3 0 0 0-.45-.98 1.5 1.5 0 0 0-1.05-.4l-.76.01a.1.1 0 0 0-.07.04.12.12 0 0 0-.02.04ZM34.34 33.8l-2.17-3.05c-.07-.1-.05-.16.05-.2.62-.2 1.03-.52 1.24-.93.67-1.28-.32-2.49-1.55-2.57-.71-.05-1.65-.06-2.8-.03-.07 0-.11.04-.11.11v6.74c0 .08.05.13.13.13h.86c.09 0 .13-.05.13-.14v-3.02a.14.14 0 0 1 .03-.1.11.11 0 0 1 .08-.04h.52c.08.01.14.05.2.12l2.14 3.03c.03.05.07.09.12.11.05.03.1.04.15.04h.89c.15 0 .18-.07.09-.2Zm-4.23-6.28v.05l.03 2.63a.14.14 0 0 0 .03.1.12.12 0 0 0 .09.03h.72a1.59 1.59 0 0 0 1.05-.43 1.4 1.4 0 0 0 .43-.99v-.11a1.3 1.3 0 0 0-.45-.98 1.5 1.5 0 0 0-1.06-.4l-.73.02a.11.11 0 0 0-.08.04.13.13 0 0 0-.03.04ZM36.8 31.7h2.61c.03 0 .07.02.1.04.02.01.05.04.06.07l.89 2.02c.05.11.13.17.25.17h.77c.13 0 .17-.06.11-.19-1.74-3.89-2.71-6.1-2.9-6.6-.06-.15-.16-.22-.29-.2a.2.2 0 0 0-.1.03.22.22 0 0 0-.07.09l-3.04 6.7c-.05.1-.02.16.1.16h.21c.06 0 .1-.01.15-.04a.3.3 0 0 0 .11-.13l.93-2.04a.13.13 0 0 1 .11-.07Zm1.26-2.97-1.09 2.42a.08.08 0 0 0 0 .08l.04.02.03.01 2.16.01a.07.07 0 0 0 .07-.04.08.08 0 0 0 0-.07l-1.07-2.43a.08.08 0 0 0-.03-.03.07.07 0 0 0-.08 0 .08.08 0 0 0-.03.03Z" fill="#1E1E1D"/></svg>