<!-- by TradingView --><svg width="56" height="56" viewBox="0 0 56 56" xmlns="http://www.w3.org/2000/svg"><path fill="#F0F3FA" d="M0 0h56v56H0z"/><path d="M24.92 18c2.3 0 4.4.78 6.08 2.1A20.28 20.28 0 0 0 24.27 38 9.98 9.98 0 0 1 15 28.01 9.97 9.97 0 0 1 24.92 18Z" fill="#FA760A"/><path d="M44 12s.16 7.08-9.34 12.36C25.16 29.64 24 35 24 35a19.66 19.66 0 0 1 6.88-14.83C33.28 18.05 40.03 15.8 44 12Z" fill="url(#a5j2dfyv4)"/><path d="M45 23s-2.34 1.76-9.38 2.9C28.57 27.04 25 36 25 36s3.3-3.47 9.73-5.2c6.42-1.73 8.3-3.77 10.27-7.8Z" fill="url(#b5j2dfyv4)"/><path d="M42 32s-2.45.71-6.06.71c-3.61 0-8.74 2.9-9.94 4.29 0 0 4.31-1.66 8.47-1.88 4.15-.23 6.95-2.4 7.53-3.12Z" fill="url(#c5j2dfyv4)"/><path d="M42 40s-1.92-3-8.75-3c-5.7 0-6.83 2.26-11.92 2.26-5.08 0-7.33-1.78-7.33-1.78s3.18 3.13 8.97 3.13c5.79 0 7.78-2.2 12.1-2.2 4.34 0 6.93 1.6 6.93 1.6ZM39 43.58S36.84 41 32.99 41c-3.86 0-4.72 1.86-7.6 1.86-2.87 0-5.39-.84-5.39-.84S22.65 44 25.24 44c2.58 0 6.54-1.65 8.63-1.65 2.1 0 5.13 1.23 5.13 1.23Z" fill="#00ADFF"/><path d="M15.52 33.58A11 11 0 0 1 25 17v-2a13 13 0 0 0-11.05 19.84l1.57-1.26Z" fill="#2B2B2A" fill-opacity=".7"/><path d="M28.93 22.2a20.27 20.27 0 0 0-4.82 12.74 7 7 0 1 1 4.82-12.74Z" fill="#F99A1D"/><path d="M27.16 24.63a20.23 20.23 0 0 0-2.77 7.32 4 4 0 1 1 2.77-7.32Z" fill="#FBBA12"/><defs><linearGradient id="a5j2dfyv4" x1="37.5" y1="27.5" x2="28" y2="17.5" gradientUnits="userSpaceOnUse"><stop stop-color="#47A234"/><stop offset="1" stop-color="#71AE3D"/></linearGradient><linearGradient id="b5j2dfyv4" x1="26" y1="32.5" x2="46" y2="27.5" gradientUnits="userSpaceOnUse"><stop stop-color="#379A37"/><stop offset="1" stop-color="#067439"/></linearGradient><linearGradient id="c5j2dfyv4" x1="43.5" y1="32" x2="25" y2="36" gradientUnits="userSpaceOnUse"><stop stop-color="#006428"/><stop offset=".88" stop-color="#118D34"/></linearGradient></defs></svg>