<!-- by TradingView --><svg width="56" height="56" viewBox="0 0 56 56" xmlns="http://www.w3.org/2000/svg"><path fill="#F0F3FA" d="M0 0h56v56H0z"/><path d="M16 22.61v14.11s.08 2.87 3 5.78l-1 2s-4-3.69-4-7.96v-13.9s1.04-1.42 2-.03ZM41 22.61v14.11s-.08 2.87-3 5.78l1 2s4-3.69 4-7.96v-13.9s-1.04-1.42-2-.03ZM18 13s-2.18 1.08-2.85 2.95l-.16.5-.17-.5C14.18 14.08 12 13 12 13a8.74 8.74 0 0 1 1.88 4.13c.06.87 1.13.87 1.13.87s1.08 0 1.14-.87c.05-.87.6-2.58 1.85-4.13ZM45 13s-2.17 1.08-2.83 2.95l-.17.5-.17-.5C41.17 14.08 39 13 39 13a8.76 8.76 0 0 1 1.87 4.13C40.93 18 42 18 42 18s1.07 0 1.13-.87c.08-.87.63-2.58 1.87-4.13Z" fill="#0404E6"/><path d="M38 44.32A16.6 16.6 0 0 1 28.84 47c-3.75 0-7.18-1.02-9.84-3 .2-.26.38-.72.6-1a15.08 15.08 0 0 0 9.22 3.01c3.23 0 6.2-.94 8.58-2.54l.6.85Z" fill="#713235"/><path d="M20 13.72C22.39 11.4 25.25 10 28.67 10c3.41 0 6.86 1.09 9.33 3.8-.17.36-.36.78-.58 1.2-2.3-2.6-5.56-3.63-8.78-3.63-3.22 0-5.89 1.31-8.11 3.55l-.53-1.2Z" fill="#0404E6" fill-opacity=".5"/><path d="M14 19h2v2h-2v-2ZM41 19h2v2h-2v-2Z" fill="#C88F47"/><path d="M14.95 13s1.01.6 1.05 1.24c0 0-.9.38-.94.76 0 0-.82-.52-1.05-.63 0 0-.19-.79.94-1.37ZM41.95 13s1.01.6 1.05 1.24c0 0-.9.38-.94.76 0 0-.82-.52-1.04-.63 0 0-.23-.79.93-1.37Z" fill="#DB1E12"/><path d="m13.43 12-.43.84.62 1.16.38-.94-.57-1.06ZM16.56 12l.44.84-.63 1.16-.37-.94.56-1.06ZM40.42 12l-.42.84.61 1.16.39-.94-.58-1.06ZM43.56 12l.44.84-.61 1.16-.39-.94.56-1.06Z" fill="#9F9C3B"/><path d="m31.4 30.93.03 2.5c-.39 1.14-.33 1.59.03 2.73l.14.17v.05c1.83-1.89.25-2.56.83-3.28 2.06-.97 2.69-4.65 2.57-6.56l-.23-3.25c.14-1.09.44-2.23.25-3.25l-.34-.14-1.05-.25c-.23.91-.53.16-.64.52-.14.4 0 .42-.06.92-.14 1.14.2 3.75.2 4.98 0 1.03.05 1.86-.5 2.53l-1.23 2.33Z" fill="#C74716"/><path d="M27.65 19.98c.25.25-.03.11.39.28.06.03.39.1.44.14-.36.3.4.25-.63.22-.95-.03-1.03-.92-2.12-.36 1.98 1.03 1.36.94-2.53.47l1.11-.5c-1.1.03-3.37-.14-4.23.22-.02.22-.08.23-.08.36.01.37.13.47.33.69l.08-.74c2.02-.11 1.73.44 3.24 1.11 3.85.63 2.85.63 1.25 2l3.56-.11c1.36.08 1.64.5 1.03 1.64l.75.61c.55-.22.16 0 .25-.33.77-.72 1.02-1.4.94-2.53a7.84 7.84 0 0 0-.92-3.5c-1.51-.15-1.36.57-2.86.33Z" fill="#B98C28"/><path fill-rule="evenodd" d="M30.82 35.07c-10.06-.05-1.15.9 0 0ZM25 34c-1.89-.3-.5-.51-2-.76.47 1.28.84 1.75.04 3.14 1.25-.25.6-.34 1.96-.4.7-.03 1.48.02 2.2.02 4.23.03 2.34.14 4.4.39 0-1.02.39-1.45-.78-1.32.22-1.16.03-.05-.08-.72l-.42-1.94c-1.86.38-1.92-.45-4.78.16 0 .14-.01.35-.04.43-.22.78-.06.61-.5 1Z" fill="#B95735"/><path d="M28.04 26.2c-1.17.92.3 2.15-1.28 4.07-.53.63-.58.38-1.56.52L25 34c.44-.39.26.02.48-.76.17-.56 4.17-1.36 5.17 1.2.59 3.3.57-.3.8-1.01l-.63-.22c-.03-.42 0-1.61-.11-1.89-.25-.78-.17-.39-1.2-.72-2.2-.92-.82-.93-.29-.9-.03-2.4 1.02-.76 1.02-3.7-1.14-.29-2.17.26-2.2.2Z" fill="#B98937"/><path d="M30.49 25.68c.6-.06.7-.06 1.08-.36l-.17 5.58L32.82 29c.58-.67.56-1.87.56-2.9 0-1.22-.25-3.89-.11-5.03.05-.5.02-.3.16-.7.11-.35.03.31.25-.57l1.3.25c-.94-1.34-4.19-.53-5.66-.73l-.17.53 1.17-.11c.86 1.83 1.83 4.4.17 5.95Z" fill="#A88A56"/><path d="M31.18 19.62c1 2.67.2 6.23.67 9.4 1.72-2.6.5-4.37.78-9.43l-1.45.03Z" fill="#180F97"/><path d="m33.27 33.4-.89.39c.25 1.03.39.34.08 1.23.56-.64 1.06-.61 1.97-1.14.92-.53 1-1.61 2.53-1.42l.09-.08L37 31c-1 .06-1.51-.04-2.34.68a5.13 5.13 0 0 0-1.4 1.73Z" fill="#944F30"/><path d="M19.78 31.27c-.39 2.1.67 4.14 2.64 4.03.48-.78-2.58-3.37-1.41-4.56l.25-.4c.2-.77.5-.96-.2-.94-.58.45-1.17 1.06-1.28 1.87Z" fill="#4B0F6F"/><path d="M23.29 27.76c1.64-.8.3 1.37-.28.59-1.4.25-1.06-.3-1.95 1.05.73-.02.4.17.2.95l1.55-.03.42.36c.08-.7.7-.39 1.3-.41.4 0 .73-.37.34-1.56-.03-.08-.53-1.34-.61-1.45-.67-.08-.64.03-.97.5Z" fill="#B04F4D"/><path d="M36.38 20.56c.14 1.45-.11 1.56.64 2.59.39.5.2.25.86.25.45-1.2.78-2.5-.03-3.73a2.2 2.2 0 0 0-1.47.9Z" fill="#C84827"/><path d="M23.68 21.87c-.5-.22-.25-.17-.76-.67-.63-.64.14-.44-.94-.53l-1.67.09-.08.75c.17.8 1.11 1.58 1.78 2.08 1 .75 1.92.92 2.92.3.33-.35 0-.19.58-.32 1.75-.48 3.75.83 5.03-.78-.78-.95-3.86-.56-6.86-.92Z" fill="#D5320E"/><path d="m36.4 23.1.65.05c-.73-1.03-.5-1.11-.64-2.59-1-.02-.3-.2-1.42-.55.2 1-.08 2.17-.25 3.25-.24 5.24.26.24 1.67-.17Z" fill="#B89527"/><path d="M22.42 35.3c.23.14.37-.06.2.78.2.33-.17.13.42.33.8-1.4.46-1.93-.04-3.17-1.7.75-2.58-.97-2-2.5-.97.36-.38 2.25-.02 2.7.53.66 1.39.86 1.44 1.86Z" fill="#B2332C"/><path d="m30.82 35.07-5.09-.02c-1.94-.03-1.22.08-1.5.27.22.48-.08.25.47.45l5.93-.03.19-.67Z" fill="#2A1885"/><path d="m25.73 20.26-1.42-.03-1.1.5c1.74.22 4.72 1.08 6.1.36-.3-.72.26-.44-.58-.39-.33.03-.05.3-1.08.11l-1.92-.55Z" fill="#5E532A"/><path d="M27.08 31.14 27 32l2-.02-.02-.9a4.14 4.14 0 0 0-1.9.06Z" fill="#D62609"/><path d="m29.57 30.63-.33-.95h-.5l-.09-1.61c-1.2.2-.47-.03-.83 1.33-.25.98-.45.06-.53 1.4.89-.03.72-.06 1.42-.26.78-.25-.09-.1.86.09Z" fill="#AB9918"/><path d="M28.99 33.07 27.02 33l-.02.87c.4.13 1 .15 1.44.1.63-.04.57-.24.55-.9Z" fill="#180F97"/><path d="M22.65 36c.17-.83 0-.56-.23-.7-2 .08-3.03-1.95-2.64-4.03-.05.02-.66-.17-.3 1.78.3 1.75 1.31 2.81 3.17 2.95Z" fill="#958970"/><path d="m27.65 19.98 1.45.25c.5-.44.16.14.27-.44l-.08-.45c-.14-.44-.75-.3-1.14-.22-.7.14-.7.2-.94.7l.44.16Z" fill="#B2332C"/><path d="M28.13 25.68c-.03.08-.06.36-.09.53l.12.3c.26-.14-.03-.86 1.58.11.03-.05.09-.2.12-.14l.4-.47-.06-.78-.72.17-1.35.28Z" fill="#B83616"/><path d="M32.43 34.98c.02.71.06.58.28.76.75-.17 1.39-.99 1.72-1.74-.93 0-.43 0-1.14.3-.5.36-.4.12-.86.68Z" fill="#49324C"/><path d="m31.6 36.38.89-.05.22-.59c-.2-.3-.14.11-.25-.7.33-.88.25-.22 0-1.24l.8-.37c-.74.09-.83.31-.83-.33-.58.17-.22-.08-.58.33.5 1.31.55 1.9-.25 2.95Z" fill="#D27253"/><path d="m23.29 27.76-.28.59c-.03.86-.09.28.22.47 1.11-.2 1.36-.2 1-1.45-1.03.03-.17-.16-.94.4Z" fill="#2A1885"/><path d="M37 32.42c1.03-.47.82.01 1.35-.65-.22-1.17-.38-.38-1.35-.77v1.42Z" fill="#D1B58D"/><path d="m23.23 30.65.17.64c.89 0 1.08-.22 1.14-1.05l-1.11-.22c-.28.38-.42-.56-.2.63Z" fill="#2A1885"/><path d="m23.76 29.68.97.08v-.91c-.61.1-.2-.22-.67.2-.33.27-.13.1-.3.63Z" fill="#C51906"/></svg>