<!-- by TradingView --><svg width="56" height="56" viewBox="0 0 56 56" xmlns="http://www.w3.org/2000/svg"><path fill="#F0F3FA" d="M0 0h56v56H0z"/><path d="M14.7 23.76c2.45 9.45-.27 16.76-1.94 19.24h3.54c1.14-1.97 3.2-7.25 2.35-12.58 1.17.71 3.3 4.22 2.45 12.58h4c.89-12.6-6.56-18.08-10.4-19.24Z" fill="#9B9B9B"/><path d="M31.36 43C29.09 30.2 20.5 24.13 16.5 22.69c14.74 1.3 25.1 15 26.23 20.31h-4.01a21.49 21.49 0 0 0-7.37-10.26A29.16 29.16 0 0 1 35.04 43h-3.68Z" fill="#9B9B9B"/><path d="m32.8 26.1-2.5-1.58c1.94-.6 2.9-3 1.94-4.06-1.23-1.37-1.9-1.78-8.93-1.37-7.02.4-10.47-4.27-11.31-6.66 5.93 3.78 15.66-.39 20.56-.43 4.9-.04 10.44 2.95 10.44 9.05 0 4.89-3.48 8.08-5.22 9.06l-2.45-2.32c3.48-2.33 4.24-5.46 4.19-6.73 0-5.45-6.33-5.9-9.49-5.44 1.98.21 5.93 1.47 5.93 4.84s-2.1 5.16-3.16 5.63Z" fill="#0069B4"/></svg>