<!-- by TradingView --><svg width="56" height="56" viewBox="0 0 56 56" xmlns="http://www.w3.org/2000/svg"><path fill="#F0F3FA" d="M0 0h56v56H0z"/><path fill-rule="evenodd" d="M28 44c8.68 0 16-7.32 16-16s-7.32-16-16-16-16 7.32-16 16 7.32 16 16 16Zm0 1a17 17 0 1 0 0-34 17 17 0 0 0 0 34Z" fill="#4D8556"/><path fill-rule="evenodd" d="M25.57 13.74c.12 0 .23-.04.31-.1l.17-.21a.62.62 0 0 0 .06-.27c0-.32-.24-.59-.54-.59-.3 0-.54.27-.54.59 0 .32.24.58.54.58Zm-1.07-.58c0 .61.44 1.11 1 1.15a3.11 3.11 0 0 0 .04 2.38c-.58.02-1.04.53-1.04 1.15 0 .64.48 1.16 1.07 1.16.55 0 1-.44 1.07-1.01a2.55 2.55 0 0 0 2.72 0c.07.57.52 1.01 1.07 1.01.59 0 1.07-.52 1.07-1.16 0-.62-.46-1.13-1.04-1.15a3.1 3.1 0 0 0 .03-2.38c.57-.04 1.01-.54 1.01-1.15 0-.64-.48-1.16-1.07-1.16-.53 0-.96.4-1.06.94a2.55 2.55 0 0 0-2.74 0 1.1 1.1 0 0 0-1.06-.94c-.59 0-1.07.52-1.07 1.16Zm1.32 2.3c0-.52.16-1 .42-1.38l.59.65a1.54 1.54 0 0 0 .06 1.57l-.59.63c-.3-.4-.48-.91-.48-1.47Zm.87 1.87.58-.64a1.28 1.28 0 0 0 1.45 0l.59.65a2.07 2.07 0 0 1-2.62 0Zm3-.4a2.46 2.46 0 0 0 .07-2.86l-.59.65a1.54 1.54 0 0 1-.06 1.58l.58.64Zm-.3-3.27a2.08 2.08 0 0 0-2.8 0l.59.64a1.29 1.29 0 0 1 1.64 0l.58-.64Zm1.04.08c.3 0 .54-.26.54-.58 0-.32-.24-.59-.54-.59-.3 0-.54.27-.54.59 0 .1.02.19.06.27l.17.2c.08.07.2.1.3.1Zm-1.6 1.72c0 .49-.38.89-.83.89-.45 0-.82-.4-.82-.9 0-.48.37-.88.82-.88.45 0 .82.4.82.89Zm2.14 2.38c0 .32-.24.59-.54.59-.3 0-.54-.27-.54-.59 0-.32.24-.58.54-.58.3 0 .54.26.54.58Zm-4.86 0c0 .32-.24.59-.54.59-.3 0-.54-.27-.54-.59 0-.32.24-.58.54-.58.3 0 .54.26.54.58Z" fill="#569360"/><path d="M16.06 31.04c.5.9.2 1.62 0 1.86.77 0 .52-1.86.18-2.45-.35-.6-.64-1.59-.35-1.7.3-.11.44-.15.7.91.2.85.68 1.27.89 1.38-.34-.77-.74-2.45.4-2.98 1.14-.54 1.33.48 1.28 1.05 1.88-2.14-.07-2.65-1.28-2.63-.43-3.17 2.1-6.12 3.94-7.64a.92.92 0 0 0 .13-1.3.78.78 0 0 0-.98-.17c-5.02 3.65-5.1 8.28-4.51 10.14-.64-.4-1.17-.16-1.36 0-.84.45-.04 1.81.6 2.9l.36.63Zm23.96 0c-.5.9-.2 1.62 0 1.86-.77 0-.52-1.86-.18-2.45.35-.6.64-1.59.35-1.7-.2-.08-.34-.12-.49.23l.09-.02C39.34 32.9 35.02 39 28.12 39c-6.23 0-9.64-4.89-10.74-7.42l2.84-2.67 1.5 1.72 1.77-1.72 1.9 1.9 2.73-2.52 2.23 2.52V27.3c.2-1.66.64-5.04.75-5.24.12-.2.48 3.4.65 5.24v2.56l4.63-5.82c.01.39.1 1.4.36 2.71.43-.2 1-.28 1.46-.27.43-3.17-2.1-6.12-3.94-7.64a.92.92 0 0 1-.13-1.3.78.78 0 0 1 .98-.17c5.03 3.65 5.1 8.28 4.51 10.14.64-.4 1.18-.16 1.37 0 .83.45.03 1.81-.61 2.9l-.36.63Zm-2.91-2.86c.4.9 1.18 1.03 1.83.97-.06-.46-.27-.87-.74-1.1-.58-.26-.91-.14-1.1.13Z" fill="#569360"/><path fill-rule="evenodd" d="m31 22.03-1.02-.52c-.05-.2-.12-.38-.22-.55l.38-1.06-1.09.35c-.17-.1-.36-.19-.56-.24L27.97 19l-.46 1c-.22.04-.42.12-.61.23l-1.04-.33.36.99c-.13.2-.23.42-.29.66l-.93.48.92.43c.06.25.16.5.3.7l-.32.98.95-.35c.21.13.44.23.69.28l.43.93.49-.95c.23-.05.44-.15.64-.27l1 .36-.34-1.06c.1-.18.19-.37.24-.58l1-.47Zm-3.04.83a.83.83 0 1 0 0-1.67.83.83 0 0 0 0 1.67Z" fill="#1C3120"/><path d="M43.47 28.47c-2.46 11-11 14.1-15.04 14.25h-.02c-5.1 0-8.71-2.41-11.15-5.4a21.93 21.93 0 0 1-4.22-8.85l1.25-.27c.48 2.22 1.7 5.55 3.96 8.32a12.69 12.69 0 0 0 10.15 4.92C32 41.3 39.92 38.5 42.23 28.2l1.24.28Z" fill="#1C3120"/><path d="M29.6 35.04a1.6 1.6 0 1 1-3.2 0 1.6 1.6 0 0 1 3.2 0Z" fill="#8FBE97"/><path fill-rule="evenodd" d="m32 35.04-1.36-.7c-.06-.26-.17-.5-.3-.73l.52-1.4-1.46.46a2.76 2.76 0 0 0-.75-.32l-.7-1.35-.6 1.32c-.3.07-.57.18-.82.33l-1.39-.45.48 1.32c-.17.26-.3.56-.38.88l-1.24.64 1.23.57c.07.34.2.66.39.94l-.42 1.31 1.27-.47c.28.17.58.3.91.37l.58 1.24.65-1.26c.3-.08.6-.2.85-.37l1.34.49-.45-1.41c.14-.24.25-.5.31-.79l1.34-.62Zm-4.05 1.11a1.11 1.11 0 1 0 0-2.23 1.11 1.11 0 0 0 0 2.23Z" fill="#1C3120"/></svg>