<!-- by TradingView --><svg width="56" height="56" viewBox="0 0 56 56" xmlns="http://www.w3.org/2000/svg"><path fill="#F0F3FA" d="M0 0h56v56H0z"/><path d="M20.53 14 18 16.5c4.18 1.28 7.74 5.53 9 7.5v-4.56c-1.37-2.52-4.88-4.67-6.47-5.44Zm-3.8 5L15 22.27l9.26 5.53c.78.6 2.44 2.28 2.74 4.2v-3.92c.02-.75-.46-2.61-2.5-4.03A255.89 255.89 0 0 0 16.74 19Zm-3.15 7c-.22.93-.65 2.9-.57 3.36.07.46.88.95 1.28 1.14l8.93 5.35c.36.2 1.09.93 1.09 2.18S21.44 41.86 20 43H27v-7.06c0-.94-.48-1.81-1.28-2.31L13.58 26Zm28.84 0c.22.93.65 2.9.57 3.36-.07.46-.88.95-1.28 1.14l-8.93 5.35c-.36.2-1.09.93-1.09 2.18S34.56 41.86 36 43H29v-7.06c0-.94.48-1.81 1.28-2.31L42.42 26ZM41 22.27 39.26 19a255.89 255.89 0 0 0-7.76 5.05c-2.04 1.42-2.52 3.28-2.5 4.03V32c.3-1.92 1.96-3.6 2.74-4.2L41 22.27Zm-3-5.77L35.47 14c-1.59.77-5.1 2.92-6.47 5.44V24c1.26-1.97 4.81-6.22 9-7.5Z" fill="#008752"/><path d="M31.68 12h-7.22c.9.8 2.85 2.92 3.54 4.98 1.06-2.13 2.9-4.2 3.68-4.98Z" fill="#CFE4A7"/></svg>