<!-- by TradingView --><svg width="56" height="56" viewBox="0 0 56 56" xmlns="http://www.w3.org/2000/svg"><path fill="#F0F3FA" d="M0 0h56v56H0z"/><path d="m32 19.16-2.13-.14.6-.19.22-.07.8-.25a14.41 14.41 0 0 1 .46-.14H32v.79Zm0 .36V26l2.66-.77-.59-5.57 5.37.34.05-.36L33.97 18H32l-.1.01-.12.04a14.28 14.28 0 0 0-1.16.36l-.22.07a62.69 62.69 0 0 1-1.59.48v.36l3.2.2Zm1.93-1.16 3.94 1.18-3.84-.25-.1-.93Z" fill="#416C7D" fill-opacity=".7"/><path d="m41.42 24.71-1.96-1.22a271.04 271.04 0 0 1-9.24 3.34 82.7 82.7 0 0 0-4.22-.48V23h3.95l-1.42 1.71.38.59 1.75-2.34-6.66-1.2-1.87 1.2H24v2.98l-3.35 3.53v5.4l2.38 2.97h5.88l6.6-1.7-.6-8.67 6.51-2.76Z" fill="url(#akeak45r4)"/><path d="M26 30.85V38h2.53l.36-.27 2.11-1.2V29l-5 1.85Z" fill="#002043"/><path d="m39.45 23.48-8.77 2.76v.8l9.67-3.13-.9-.43Z" fill="#052862"/><path d="M20 34.9v-4.8h1.89l-.45 4.8H20Z" fill="url(#bkeak45r4)"/><path d="M16.7 25.89c-3.65 0-5.48.67-5.94 1-.58.4-.62 1.17 3.8 1.17a14.41 14.41 0 0 0 7.62 2.16c3.3 0 5.08-2.16 5.2-2.16.1 0 3.9-.39 3.9-1.17 0-.62-.75-.75-1.13-.73a22.2 22.2 0 0 1-4.17-.27 36.52 36.52 0 0 0-3.3-.63c-.18 0-3.34.02-3.8.41-.36.32-1.6.28-2.19.22Z" fill="url(#ckeak45r4)"/><path d="M23.1 22.48c0 .75-.53 1.26-.78 1.42-.76 0-1.17-.95-1.28-1.42.1-.4-.08-1.2-1.59-1.2s-1.9 1.1-1.92 1.65c-.24.48.38 1.44 4.79 1.42 4.4-.02 5.56 1.73 5.58 2.61 0 2.84-3.98 4.25-5.97 4.6v-.52c1.47-.27 4.42-1.41 4.44-3.8.03-2.97-7.42-2.3-7.95-2.35-.53-.06-2.28-.82-2.28-1.96 0-1.13.56-2.64 3.03-2.64 1.98 0 2.66.84 2.76 1.25.39 0 1.16.19 1.16.94Z" fill="#CFFA48"/><path d="M18.8 24.76a2.75 2.75 0 0 1-2.66-1.77c0 2.8 3.75 2.39 6.56 2.39 2.26 0 3.05 1.06 3.17 1.59 0 1.99-2.63 3.32-3.95 3.74v.39c2.32-.39 4.84-2.12 4.48-4.13-.45-2.52-5.53-2.24-7.6-2.21Z" fill="#6A9F11"/><path d="M18.86 31.49h.03-.03c-.11.02-.47.25.17.51.57.23 3.18.53 4.41.65.31.05.93.26.93.69 0 .43-.94.62-1.41.66a4.54 4.54 0 0 0-2.03-.92c-1.5-.36-3.23-.64-3.15-1.08.06-.34.73-.48 1.08-.51Z" fill="#B7EF58"/><path d="M17.58 32.03c0-.55 1.67-.97 2.51-1.1-.67.25-2.04.81-2.17.99-.16.22 1.45.64 2.61.86 1.16.2 3.3.74 3 1.03-.25.23-1.51.46-2.11.55v-.9c-1.28-.25-3.84-.88-3.84-1.43Z" fill="#82C635"/><path d="M18.5 34.3c.26-.35 1.23-.48 1.64-.5v1.03c-.35.22 1.16.86 1.99 1.16v.64c-1.72-.15-3.95-1.89-3.63-2.33Z" fill="url(#dkeak45r4)"/><path d="M18.97 37.12c-2.74-1.21-2.27-3.56-1.7-4.58.34 2.79 4.42 3.97 4.66 3.72.2-.2-1.38-1.09-2.2-1.5.64-.08 2.39-.01 4.23.88a5.16 5.16 0 0 1 2.72 3.43h-3.4c-.29-.15-1.56-.74-4.3-1.95Z" fill="url(#ekeak45r4)"/><path d="M35.61 37.12c2.75-1.21 2.28-3.56 1.7-4.58-.33 2.79-4.41 3.97-4.66 3.72-.2-.2 1.39-1.09 2.2-1.5-.64-.08-2.38-.01-4.22.88a5.16 5.16 0 0 0-2.73 3.43h3.4c.3-.15 1.57-.74 4.31-1.95Z" fill="url(#fkeak45r4)"/><path d="M17.5 36.17c-1.55-.85-3.2-.44-3.51-.13l1.39 2.77 14.07 2.05 12.11-2.8v-1.69c-.6-.96-3.04-.53-3.75-.2l.7 1.83H34v.8c-1.34.12-3.98.2-6.42.2s-5.44-.08-6.58-.2V38h-3.98l.48-1.83Z" fill="#2B2379"/><path d="m13.13 38.01.83-2c.76 1.22 4.44 3.68 13.05 3.68s13.3-2.23 14.57-3.34l.83 1.5c-.68 1.1-2.4 1.43-3.17 1.45l.19.97c-.75.58-4.1 1.73-11.5 1.73-7.39 0-11.13-1.15-12.07-1.73l.23-.97c-.16-.06-.7-.24-1.6-.44-.89-.2-1.28-.65-1.36-.85Z" fill="#F09510"/><path d="m35.6 39.59.23 1.07-.42.1-.3-1.36.4-.1.1.29Zm.02.35-.1.03a.99.99 0 0 1-.02-.27c.01-.09.03-.17.06-.23a.48.48 0 0 1 .35-.28.47.47 0 0 1 .17 0c.05 0 .1.02.14.05.05.03.08.07.12.13.03.05.05.13.07.21l.2.9-.43.1-.18-.85a.33.33 0 0 0-.05-.13.1.1 0 0 0-.07-.04.24.24 0 0 0-.18.05.24.24 0 0 0-.06.09.35.35 0 0 0-.03.11l.01.13Zm.78-.17-.12.03c-.02-.1-.02-.19-.02-.27 0-.09.02-.16.05-.23a.47.47 0 0 1 .35-.28.52.52 0 0 1 .18 0c.05 0 .1.02.15.05.05.04.09.08.12.15.04.06.07.14.09.24l.18.85-.42.1-.19-.86a.32.32 0 0 0-.04-.12.1.1 0 0 0-.07-.05h-.1a.21.21 0 0 0-.1.06.23.23 0 0 0-.05.08.33.33 0 0 0-.02.12l.01.13ZM32.85 40.63v-.03a.92.92 0 0 1-.02-.3.67.67 0 0 1 .29-.49c.07-.07.18-.11.3-.14a.86.86 0 0 1 .33-.02.65.65 0 0 1 .47.3c.06.1.1.19.12.3v.03c.03.1.04.2.03.3a.67.67 0 0 1-.29.49.88.88 0 0 1-.3.14.88.88 0 0 1-.34.02.65.65 0 0 1-.47-.3.92.92 0 0 1-.12-.3Zm.48-.14v.03l.05.15c.02.05.05.09.08.12a.22.22 0 0 0 .23.06.23.23 0 0 0 .18-.16.43.43 0 0 0 .02-.14l-.02-.16-.01-.03a.87.87 0 0 0-.05-.15.42.42 0 0 0-.07-.12.23.23 0 0 0-.1-.06.25.25 0 0 0-.14 0 .25.25 0 0 0-.12.06.24.24 0 0 0-.06.1.43.43 0 0 0-.01.14c0 .05 0 .1.02.16ZM31.57 41.2c.04 0 .08-.01.11-.03a.17.17 0 0 0 .07-.08.21.21 0 0 0 0-.12l.47-.06c.02.12 0 .22-.05.31a.6.6 0 0 1-.21.23.8.8 0 0 1-.34.12.85.85 0 0 1-.33-.02.65.65 0 0 1-.42-.36 1 1 0 0 1-.08-.3v-.03a1 1 0 0 1 0-.31.64.64 0 0 1 .32-.46c.09-.05.2-.08.31-.1a.8.8 0 0 1 .36.03c.1.03.2.1.27.18a.6.6 0 0 1 .12.31l-.46.07a.3.3 0 0 0-.04-.13.2.2 0 0 0-.08-.07.21.21 0 0 0-.13-.02.21.21 0 0 0-.12.05.2.2 0 0 0-.06.1.49.49 0 0 0-.02.13c0 .05 0 .1.02.16v.03c0 .06.02.1.03.16 0 .05.03.09.05.12a.2.2 0 0 0 .08.08c.03.02.08.02.13.01ZM26.8 41.4v-1.01h.56v1.33h-.52l-.04-.32Zm.05-.28H27a.7.7 0 0 1-.05.25.55.55 0 0 1-.33.33 1.02 1.02 0 0 1-.52.02.54.54 0 0 1-.19-.1.41.41 0 0 1-.12-.14.55.55 0 0 1-.05-.23v-.86h.56v.86c0 .03 0 .06.02.08 0 .02.02.04.04.05a.2.2 0 0 0 .07.03l.1.01a.4.4 0 0 0 .2-.04.22.22 0 0 0 .1-.1l.02-.16ZM22.06 39.54l-.2 1.82-.5-.05.2-1.83.5.06Zm-.18 1.13-.12-.01a.74.74 0 0 1 .07-.25.6.6 0 0 1 .14-.18.53.53 0 0 1 .2-.1.6.6 0 0 1 .24-.03.8.8 0 0 1 .2.05c.07.03.12.07.17.11.04.05.07.1.09.17.02.07.02.15.01.24l-.09.8-.5-.05.1-.8c0-.06 0-.1-.02-.13a.14.14 0 0 0-.07-.07.36.36 0 0 0-.12-.03h-.14a.2.2 0 0 0-.09.06.26.26 0 0 0-.05.1.7.7 0 0 0-.02.12ZM19.44 39.4l-.41 1.56-.4-.11.47-1.82.38.1-.04.26Zm.69.6-.01.02-.1.26a.69.69 0 0 1-.15.18.46.46 0 0 1-.2.1.46.46 0 0 1-.23 0 .38.38 0 0 1-.18-.11.45.45 0 0 1-.1-.18.92.92 0 0 1-.04-.24l.01-.27.01-.03.13-.25c.04-.07.09-.14.14-.19a.43.43 0 0 1 .18-.1.49.49 0 0 1 .41.11c.06.05.1.1.12.18.03.07.04.15.04.23 0 .1 0 .19-.03.28Zm-.41-.09v-.02l.03-.15a.4.4 0 0 0 0-.12.19.19 0 0 0-.05-.09.17.17 0 0 0-.08-.05.26.26 0 0 0-.12 0 .16.16 0 0 0-.08.03.29.29 0 0 0-.06.1.84.84 0 0 0-.05.13l-.02.1a.56.56 0 0 0-.03.17c0 .05.02.1.04.13.03.03.07.06.13.07h.1a.2.2 0 0 0 .08-.06.44.44 0 0 0 .06-.1.98.98 0 0 0 .05-.14Z" fill="#2C0034"/><path d="m42.47 19.42 1.55-1.18.12.13-1.46 1.26-.21-.21Z"/><path d="M25.18 14.74c.05.18.36.54 1.2.54.83 0 .84-.4.74-.61.13.15.4.4.4.13.02-.26.01-.64 0-.8h.36c-.02.39.07 1.16.55 1.16.47 0 .8-.45.9-.67.08.25.32.74.72.74.4 0 .56-.61.59-.92l.26.05c-.04.37.07 1.11.77 1.17l.31-.07a.9.9 0 0 0-.49-.45c-.3-.14-.17-.23-.07-.27.03.03.12.02.25-.25.14-.28.15-.44.15-.49h.5a.65.65 0 0 0-.05.93c.33.43.7.57.85.6l.37-.07c.04-.14.1-.45 0-.53-.14-.1-.2-.65.15-.65.33 0 .35.57.36.96v.04c.01.39.42.31.42-.27v-.26c-.01-.38-.02-.52.29-.52.36 0 .18 1.46.15 1.58-.02.13-.04.18-.6.2-.56.02-3.65.04-4.4-.48-.26.05-.9.15-1.43.15-.53 0-.72-.27-.76-.4-.93.47-2.74 1.02-2.5-.54Zm1.14.02c.23 0 .42-.12.42-.27 0-.15-.19-.27-.42-.27-.24 0-.43.12-.43.27 0 .15.2.27.43.27Zm-9.24.9c.12.77-.25 1.14-.45 1.23l.45.15c.1-.12.4-.31.76-.07s1 .15 1.27.07v.66l.47.07.17-.73.39-.07v.32h.64v-.62c.24-.05.56-.15.87-.25.43-.13.85-.26 1.04-.26h.4c.34.02.73.03.88 0l-.94-1.72-.43.14.74 1.17-.3.05-.44-.59c-.23-.3-.6.24-.73.45-.14.06-.39-.14-.45-.7-.07-.56-.64-.4-.91-.26.02.07.15.32.48.78.33.46 0 .7-.2.78l-.28-.67-.37.16.22.67-.6.08-.36-.84-.42.23c-.01-.01-.02 0-.02.01h.02c.02.02.06.13.13.42.1.44-.7.42-1.1.35-.36-.66-1.05-1.78-.93-1Zm-1.6 2.1c.36.36-.03.43-.28.42 1.18.4 1.14-.16.97-.49l-.24-.2-.8-.8-.42.41c.1.07.4.31.77.67Zm-2.85-.07 1.56 1.36.35-.35-1.5-1.2-.4.19Zm-.5.77 1.56 1.36.35-.34-1.5-1.2-.4.18Zm-2.99 6.52c.25-.02.73-.14.7-.5-.04-.36-1.24-1-1.84-1.29l.35-.41 1.2.78c.3-.17.7-.6.23-.98.43-.02 1.25-.15 1.14-.46a.9.9 0 0 0-.41-.51l.16-.2c.17.15.56.4.75.27.2-.11-.11-.45-.29-.6l.21-.15c.13.2.39.54.37.22-.03-.41.1-.63.43-.62.18-.07.48-.29.2-.6a8 8 0 0 0-.77-.78l.36-.3c.4.36 1.22 1.14 1.23 1.3 0 .22-.5.58-.76.71-.2.11-1.7 2.03-2.42 2.98.25.44.44 1.29-.84 1.14Zm.64-3.08a.3.3 0 0 0 .28-.3.3.3 0 0 0-.28-.3.3.3 0 0 0-.29.3c0 .17.13.3.29.3Zm.96-1a.3.3 0 0 1-.28.3.3.3 0 0 1-.29-.3c0-.16.13-.3.29-.3a.3.3 0 0 1 .28.3Zm25.07-4.58c-.44-.2.07-.6.38-.76-.63-.14-1.12.38-1.12.7 0 .34.45.63 1.12.63.53 0 .94-.27 1.08-.4.07.14.28.12.47.1.1-.01.2-.02.26-.01.15.03.66.39.89.56-.1.14-.33.45-.36.57-.02.1.14.05.4-.02.13-.05.28-.1.46-.14.41-.1.53.07.54.16.5.35 1.5 1.07 1.57 1.17.07.1.57.4.81.54l1.32-1.13-.18-.32-.13.1c-.64.62-1 .84-1.16.63-.13-.16.2-.34.38-.4-.17-.14-.5-.41-.54-.42l-.08.09c-.13.17-.4.5-.51.23-.15-.35-.3-.37-.6-.4-.18-.03-.16-.06-.12-.15.03-.07.08-.17.08-.31 0-.22-.15-.14-.28-.06-.07.04-.15.08-.18.06-.05-.03-.03-.12 0-.22.02-.1.05-.23 0-.3-.06-.1-.18.05-.3.19-.1.1-.19.2-.25.22-.12.01-.3-.11-.37-.18.18-.28.5-.86.37-.96-.14-.1-.49.44-.65.72-.19-.13-.6-.42-.72-.6-.1-.16.01-.23.17-.33l.18-.12c.22-.17.33-.58-.06-.55-.3.02-.71.68-.88 1v-.27h-1.2c-.07.21-.35.58-.79.38ZM43.57 20c.12-.08.4-.16.54.16.14.33.23.43.26.45l.74-.74.26.3-.75.68c.03.2.12.62.24.72.12.1.55-.12.75-.25.14.1.38.33.18.48-.26.2-.53.42-.52.65.02.23.27.65.74.19-.31.38-1.01.9-1.29-.13l-1.15-2.51Zm2.6 2.38h.02-.02Zm.02 0c1.54 0 .5.89-.2 1.33l.98-.1c.2-.05.62-.09.67.23.06.32.26.45.36.47l-2.24.52 1.32-.64c.07-.03-.65-.14-1.1-.09-.44.06-1-.3-.85-.44.12-.1.78-.26 1.1-.32.14-.09.43-.34.4-.62-.04-.27-.3-.34-.44-.34ZM23.4 14.22l.75 1.97.47-.13-.77-1.8-.45-.04Z" fill="#2B2379"/><defs><linearGradient id="akeak45r4" x1="36.45" y1="30.66" x2="22.64" y2="31.14" gradientUnits="userSpaceOnUse"><stop stop-color="#4771B9"/><stop offset=".24" stop-color="#4771B9" stop-opacity=".7"/><stop offset=".82" stop-color="#4771B9" stop-opacity=".7"/><stop offset="1" stop-color="#4771B9"/></linearGradient><linearGradient id="bkeak45r4" x1="19.84" y1="31.34" x2="22.44" y2="31.34" gradientUnits="userSpaceOnUse"><stop stop-color="#69932D"/><stop offset=".4" stop-color="#A1CF62"/><stop offset=".84" stop-color="#69932D"/></linearGradient><linearGradient id="ckeak45r4" x1="20.89" y1="25.26" x2="20.89" y2="30.22" gradientUnits="userSpaceOnUse"><stop stop-color="#CCFA59"/><stop offset=".4" stop-color="#609E0F"/><stop offset=".75" stop-color="#71B21A"/></linearGradient><linearGradient id="dkeak45r4" x1="19.53" y1="34.03" x2="20.33" y2="36.63" gradientUnits="userSpaceOnUse"><stop stop-color="#9ED35D"/><stop offset=".25" stop-color="#568C1C"/><stop offset=".59" stop-color="#E0F95F"/><stop offset="1" stop-color="#87A334"/></linearGradient><linearGradient id="ekeak45r4" x1="17.52" y1="33.72" x2="23.15" y2="38.96" gradientUnits="userSpaceOnUse"><stop stop-color="#F49A3A"/><stop offset="1" stop-color="#FDC597"/></linearGradient><linearGradient id="fkeak45r4" x1="37.06" y1="33.72" x2="31.44" y2="38.96" gradientUnits="userSpaceOnUse"><stop stop-color="#F49A3A"/><stop offset="1" stop-color="#FDC597"/></linearGradient></defs></svg>