<!-- by TradingView --><svg width="56" height="56" viewBox="0 0 56 56" xmlns="http://www.w3.org/2000/svg"><path fill="#F0F3FA" d="M0 0h56v56H0z"/><path d="M30.5 37.82A40.5 40.5 0 0 0 38 35c-2.82.97-6.38 2-10.08 2-9.64 0-16.94-4.12-16.94-8.89 0-1.07.27-2.16 1-3.11C9.62 27.18 8 29.6 8 31.84c0 .37.04.74.14 1.1 1.38 5.43 11.4 7.61 22.36 4.88ZM25.5 18.18A40.5 40.5 0 0 0 18 21c2.82-.97 6.38-2 10.08-2 9.64 0 16.94 4.12 16.94 8.89 0 1.07-.27 2.16-1 3.11 2.36-2.18 3.97-4.6 3.98-6.84 0-.37-.04-.74-.14-1.1-1.38-5.43-11.4-7.61-22.36-4.88Z" fill="#105EFB"/><path d="m24.3 29-.8-2-.79 2h1.6Zm-1.2-3h.87L26 31h-.9l-.6-1.38h-2L21.93 31H21l2.1-5ZM29.29 30.42c1.12 0 1.71-.74 1.71-1.88 0-1.2-.5-1.96-1.72-1.96H28v3.84h1.29ZM27 26h2.45c1.45 0 2.55.94 2.55 2.42 0 1.5-1.04 2.58-2.56 2.58H27v-5ZM33 26h1v5h-1v-5Z" fill="#105EFB"/></svg>