<!-- by TradingView --><svg width="56" height="56" viewBox="0 0 56 56" xmlns="http://www.w3.org/2000/svg"><path fill="#181B1E" d="M0 0h56v56H0z"/><path fill-rule="evenodd" d="M44 28a16 16 0 1 0-32 0 16 16 0 0 0 32 0ZM27.37 42C32.81 42 41 34.73 41 27.8c0-7-3.16-14.8-11-14.8-8.63 0-15 7.48-15 15.08C15 38.56 17.73 42 27.37 42Z" fill="#F0F3FA"/><path d="M26.56 19s-10.33 4.25-10.64 13.4l-1.92.1 2.58 5.84.92.66S16.25 28.17 24 23v13h6l-1.32-10.5H27v-1h2v-1h-2V23h2v-1.5l.44-.89L26.56 19Z" fill="#F0F3FA"/><path d="M25 27h-3.5L20 30h5v-3ZM35 20v4l-6-2.08L35 20ZM18 37h20v1H18v-1ZM17.5 39H31v1H18l-.5-1Z" fill="#F0F3FA"/></svg>