<!-- by TradingView --><svg width="56" height="56" viewBox="0 0 56 56" xmlns="http://www.w3.org/2000/svg"><path fill="#F0F3FA" d="M0 0h56v56H0z"/><path d="M7 20h13v16H7V20ZM22 20h11v16H22V20ZM35 20h14v16H35V20Z" fill="#253879"/><path d="M25 22h5v2h-1v8h1v2h-5v-2h1v-8h-1v-2ZM47 25.6v-2.4S45.51 22 42.91 22C39.78 22 37 23.85 37 27.5c0 4.15 2.06 6.5 5.3 6.5 3.25 0 4.7-.98 4.7-.98V28h-4v2h1v1.6s-4 .47-4-3.6c0-2.52 1.3-3.97 3.22-4 1.2-.02 2.54.57 3.78 1.6Z" fill="#F0F3FA"/><path fill-rule="evenodd" d="M9 22h5.7c1.27 0 2.3 1.36 2.3 3.03v.32c0 1.46-.9 2.65-2.01 2.65H12h3.43A2.61 2.61 0 0 1 18 30.63 3.34 3.34 0 0 1 14.7 34H9V22Zm3 10h1.65c.74 0 1.35-.6 1.35-1.33v-.15c0-.84-.7-1.52-1.55-1.52H12v3Zm.98-5H12v-3h.84c.64 0 1.16.68 1.16 1.52v.15c0 .73-.46 1.33-1.02 1.33Z" fill="#F0F3FA"/></svg>