<!-- by TradingView --><svg width="56" height="56" viewBox="0 0 56 56" xmlns="http://www.w3.org/2000/svg"><path fill="#F0F3FA" d="M0 0h56v56H0z"/><path d="M19 35.99c-.78.33-1.57.45-2.43.01l.37-9.14c.74.1 1.44 0 2.06-.3v9.43ZM8 19.82 4 19v12c.38-.53.95-9.7 1.01-11.14 1.92-.23 7.43 1.9 9.38 3.84 1.58 1.57 1.54 2.13 1.48 5-.04 2.17-.06 4.42-.2 6.58-1.64-.7-2.87-1.52-4.95-2.02-1.01-.25-5.21-1.07-6.17-.55.27.4 2.03.4 3.2.6 2.25.36 7.42 1.35 8.06 3.6 2.76.28 2.66-.14 3.74-.6l.45-.16V25c-1.5-.04-.17.45-1.3 1.06-.6.32-1.2.07-1.73-.05-.61-3.86-4.72-5.04-7.9-5.88-.27-.08-.56-.15-.81-.3l.3-2.52c.82.06 4.2 2.37 4.66 2.78 1.75 1.53 1.91 1.47 3.17 3.37.37.55-.05.45.55.37-.55-1.9-2.46-3.67-3.69-4.66C12.13 18.27 9.67 16.4 8 16v3.82Z" fill="#9B9D9E"/><path d="M19 24c.46-.1.13.2.53-.46 1-1.7 2.04-2.65 3.64-3.85 2.07-1.53 4.04-2.27 4.83-3.69-2.03.36-8.23 4.56-9 8Z" fill="#9C9C9C"/><path d="M10.76 32.22c.37.4-.86.22 1 .29l1.1.1.04-.02.01-.04c.03.03.07.04.09.1.02.06.14.15.17.17.24.2.48.2.8.12.24.31.1.56.2.8.9-.38 1.02-.74 1.08-1.34-1.28-.25.58.3-1.57-.16-.46-.1-.5-.13-.78-.19-.38-.08-.47-.24-.77.17-.01-.03-.03-.11-.04-.1 0 .03-.04-.06-.05-.08l-.57-.03-.08.04c-.46.15-.25-.36-.63.17Z" fill="#C4C4C4"/><path d="m7.17 31.74.39-.27c.18-.13.08-.1.32-.24.03.1.07-.05.04.25-.02.13-.06.26-.1.42.31-.17.12-.17.88-.05l.55.14.11.04c.04 0 .08.03.1.04.3.1.06.01.33.13l.12-.74-.87-.13a.88.88 0 0 1-.07-.03c-.02 0-.05-.03-.06-.04-.03-.01-.1-.09-.13-.1l-.34-.11c.1-.3.22-.26.1-.58l-.2-.25c-.43.85-.53-.02-1.17 1.52Z" fill="#BBBCBC"/><path d="M6.1 30.68c.45.54-.18.1.37.23 0 0 .02-.02.03-.01l-.38.13-.12.08a1.2 1.2 0 0 0-.13.08c.03.02.09 0 .1.04l.66.17c.28-.1.09-.68.95-.94l-.88-.43c-.4.36-.12.29-.6.65Z" fill="#C4C4C4"/><path d="m6.1 30.68.27-.84c-1 .43-1.21.8-1.49 1.46l.65-.54c.26.43.04.05.1.63.17-.23.27-.45.47-.71Z" fill="#B3B4B4"/><path d="M9.85 32.25c.73-.33.35-.13.49-.5.14-.38.23-.25.24-.46-.66-.2-.7.44-.73.96Z" fill="#BBBCBC"/><path d="M22.67 29h-.23c-.73 0-1.44-.27-1.44-1.06v-1.88c0-.62.49-.98 1.1-1.04l.34-.02h.23c.73 0 1.33.27 1.33 1.06v.55h-1v-.66c-.03-.18-.11-.26-.3-.27h-.26l-.25.01a.31.31 0 0 0-.06.03c-.1.04-.11.14-.12.23l-.01.14v1.82c0 .25.05.39.3.41h.4c.26-.02.3-.17.3-.4v-.53h1v.55c0 .8-.6 1.06-1.33 1.06ZM33.67 35h-.23c-.73 0-1.44-.27-1.44-1.06v-1.88c0-.62.49-.98 1.1-1.04l.34-.02h.23c.73 0 1.33.27 1.33 1.06v.55h-1v-.66c-.03-.18-.11-.26-.3-.27h-.26l-.25.01a.31.31 0 0 0-.06.03c-.1.04-.11.14-.12.23l-.01.14v1.82c0 .25.05.39.3.41h.4c.26-.02.3-.17.3-.4v-.53h1v.55c0 .8-.6 1.06-1.33 1.06ZM26.9 28h-.78l-.29 1H25l1.13-4h.74L28 29h-.8l-.3-1Zm-.6-.71h.42l-.2-.96-.21.96ZM37.9 34h-.78l-.29 1H36l1.13-4h.74L39 35h-.8l-.3-1Zm-.6-.71h.42l-.2-.96-.21.96ZM30 25v4h-1v-4h1ZM33.03 29l-.77-1.47H32V29h-1v-4h1.61c.74 0 1.28.3 1.28 1.08v.37c0 .37-.1.74-.45.92l-.23.1h-.03L34 29h-.97ZM32 26.85h.71c.19-.02.26-.1.28-.28l.01-.14v-.46c-.03-.26-.2-.29-.43-.29H32v1.17ZM36.44 25h.12c.72 0 1.44.27 1.44 1.06v1.88c0 .8-.72 1.06-1.44 1.06h-.12c-.73 0-1.44-.27-1.44-1.06v-1.88c0-.8.71-1.06 1.44-1.06Zm0 .67c-.1 0-.18 0-.24.02-.14.03-.18.13-.2.26v1.96c0 .25.05.39.3.41h.4c.19-.01.27-.09.3-.27v-1.96a1.25 1.25 0 0 0-.02-.24c-.04-.13-.15-.16-.28-.17h-.26ZM46.44 31h.12c.72 0 1.44.27 1.44 1.06v1.88c0 .8-.72 1.06-1.44 1.06h-.12c-.73 0-1.44-.27-1.44-1.06v-1.88c0-.8.71-1.06 1.44-1.06Zm0 .67c-.1 0-.18 0-.24.02-.14.03-.18.13-.2.26v1.96c0 .25.05.39.3.41h.4c.19-.01.27-.09.3-.27v-1.96a1.25 1.25 0 0 0-.02-.24c-.04-.13-.15-.16-.28-.17h-.26ZM22.86 35H21v-4h2v.67h-1v1h.9v.66H22v1h1V35h-.14ZM24.18 31h1.5c.74 0 1.32.27 1.32 1.08v1.84c0 .8-.59 1.08-1.32 1.08H24v-4h.18Zm.82.67v2.66h.54c.34 0 .46-.09.46-.43v-1.8c0-.24-.05-.4-.3-.43H25ZM29.45 34.34h.1c.32 0 .45-.1.45-.43V31h1v2.93c0 .8-.59 1.07-1.32 1.07h-.35c-.73 0-1.33-.27-1.33-1.07V31h1v2.91c0 .32.16.43.45.43ZM40.8 35H40v-3.33h-1V31h3v.67h-1V35h-.2ZM43.2 31h.8v4h-1v-4h.2ZM49.82 35H49v-4h.78L51 33v-2h1v4h-.78L50 33v2h-.18Z" fill="#E05F1B"/></svg>