<!-- by TradingView --><svg width="56" height="56" viewBox="0 0 56 56" xmlns="http://www.w3.org/2000/svg"><path fill="#F0F3FA" d="M0 0h56v56H0z"/><path fill-rule="evenodd" d="M44 16.82 28 10l-16 6.82v22.36L28 46l16-6.82V16.82Zm-1 .62L28 11l-15 6.44v21.12L28 45l15-6.44V17.44Z" fill="#014080"/><path d="M28 17h9l-9-4-9 4h9ZM15 19h12l-5 9h-7v-9ZM15 37h12l-5-9h-7v9ZM28 39h9l-9 4-9-4h9ZM32 34h8v1h-8v-1ZM32 37h8v1h-8v-1ZM27 26v-1.5s4.36-4.5 5.28-4.5c.91 0-.28 1.85-.28 3.51 0 1.67.2 7.49 3.5 7.49s5.5-4.6 5.5-5.97c0-1.36-.39-1.78-.94-1.52-.56.27-.96.49-1.87.49-.91 0-1.19-1.24-1.19-1.77 0-.54 1.27-3.23 2.98-3.23 1.7 0 2.02 2.88 2.02 5.39 0 2.5-1.47 8.61-6.83 8.61-5.17 0-4.01-8.95-4.17-9.26-.16-.3-1.14-.17-4 2.26Z" fill="#014080"/></svg>