<!-- by TradingView --><svg width="56" height="56" viewBox="0 0 56 56" xmlns="http://www.w3.org/2000/svg"><path fill="#F3F9F3" d="M0 0h56v56H0z"/><path d="m47 28.5-24 15-1-1.5 24-15 1 1.5Z" fill="#E2E9E2"/><path fill-rule="evenodd" d="M47 28.5 46 27 22 42l1 1.5 24-15Zm-.42-.1-.67-1-23.49 14.7.67 1 23.49-14.7Z"/><path d="M26 34a1 1 0 1 1 0 2 1 1 0 0 1 0-2ZM19 37a1 1 0 1 1 0 2 1 1 0 0 1 0-2ZM30 41a1 1 0 1 1 0 2 1 1 0 0 1 0-2ZM23 44a1 1 0 1 1 0 2 1 1 0 0 1 0-2Z" fill="#348734"/><path d="M25.5 14a9.5 9.5 0 1 1 0 19 9.5 9.5 0 0 1 0-19Z" fill="url(#alrs5kueb)"/><path d="M25.5 16a7.5 7.5 0 1 1 0 15 7.5 7.5 0 0 1 0-15Z" fill="url(#blrs5kueb)"/><path d="M25.5 17a6.5 6.5 0 1 1 0 13 6.5 6.5 0 0 1 0-13Z" fill="#F0F3FA"/><path d="M20 24v-4h3v.68h-2v.88h1.78v.68H21v1.09h2V24h-3ZM27.1 22.51l.9.24a1.7 1.7 0 0 1-.69.94c-.32.2-.72.31-1.22.31-.6 0-1.1-.18-1.5-.53-.4-.35-.59-.83-.59-1.44 0-.64.2-1.14.6-1.5.39-.35.9-.53 1.55-.53.56 0 1.02.14 1.37.42.2.16.36.4.47.71l-.92.19a.8.8 0 0 0-.34-.48 1.1 1.1 0 0 0-.63-.17c-.34 0-.61.1-.83.3-.2.21-.31.55-.31 1 0 .5.1.84.3 1.05.22.2.49.31.82.31.25 0 .46-.06.64-.2.18-.13.3-.34.38-.62ZM32.1 22.51l.9.24a1.7 1.7 0 0 1-.69.94c-.32.2-.72.31-1.22.31-.6 0-1.1-.18-1.5-.53-.4-.35-.59-.83-.59-1.44 0-.64.2-1.14.6-1.5.39-.35.9-.53 1.55-.53.56 0 1.02.14 1.37.42.2.16.36.4.47.71l-.92.19a.8.8 0 0 0-.34-.48 1.1 1.1 0 0 0-.63-.17c-.34 0-.61.1-.83.3-.2.21-.31.55-.31 1 0 .5.1.84.3 1.05.22.2.49.31.82.31.25 0 .46-.06.64-.2.18-.13.3-.34.38-.62Z" fill="#348734"/><path d="m14.5 15.5 14 27-1.5.5-14-27 1.5-.5Z" fill="#E2E9E2"/><path fill-rule="evenodd" d="m14.35 15.87-.92.3 13.72 26.46.92-.3-13.72-26.46Zm.15-.37L13 16l14 27 1.5-.5-14-27Z"/><path d="m47 25.5-27 17-1-1.5 27-17 1 1.5Z" fill="#348734"/><path fill-rule="evenodd" d="M47 25.5 46 24 19 41l1 1.5 27-17Zm-.42-.09-.67-1-26.49 16.68.67 1 26.49-16.68Z"/><path d="m13.5 20.5 13 25-1.5.5-13-25 1.5-.5Z" fill="#348734"/><path fill-rule="evenodd" d="m13.35 20.87-.92.3 12.72 24.46.92-.3-12.72-24.46Zm.15-.37L12 21l13 25 1.5-.5-13-25Z"/><path fill="#8CB28D" d="M34 21h14v1H34z"/><defs><linearGradient id="alrs5kueb" x1="25.5" y1="14" x2="25.5" y2="33" gradientUnits="userSpaceOnUse"><stop stop-color="#246323"/><stop offset="1" stop-color="#348734"/></linearGradient><linearGradient id="blrs5kueb" x1="25.5" y1="16" x2="25.5" y2="31" gradientUnits="userSpaceOnUse"><stop stop-color="#869586"/><stop offset="1" stop-color="#AAB5AA"/></linearGradient></defs></svg>