<!-- by TradingView --><svg width="56" height="56" viewBox="0 0 56 56" fill="none" xmlns="http://www.w3.org/2000/svg">
<rect width="56" height="56" fill="#F0F3FA"/>
<path fill-rule="evenodd" clip-rule="evenodd" d="M28 45.1529C37.4733 45.1529 45.1529 37.4733 45.1529 28C45.1529 18.5267 37.4733 10.8471 28 10.8471C18.5267 10.8471 10.8471 18.5267 10.8471 28C10.8471 37.4733 18.5267 45.1529 28 45.1529ZM28 46C37.9411 46 46 37.9411 46 28C46 18.0589 37.9411 10 28 10C18.0589 10 10 18.0589 10 28C10 37.9411 18.0589 46 28 46Z" fill="#F7A313"/>
<path d="M44.6419 28.0362C44.6419 37.2072 37.2073 44.6418 28.0363 44.6418C18.8652 44.6418 11.4307 37.2072 11.4307 28.0362C11.4307 18.8652 18.8652 11.4306 28.0363 11.4306C37.2073 11.4306 44.6419 18.8652 44.6419 28.0362Z" fill="#223A76"/>
<path fill-rule="evenodd" clip-rule="evenodd" d="M28 38.0522C33.5517 38.0522 38.0522 33.5517 38.0522 28C38.0522 22.4483 33.5517 17.9478 28 17.9478C22.4483 17.9478 17.9478 22.4483 17.9478 28C17.9478 33.5517 22.4483 38.0522 28 38.0522ZM28 39C34.0751 39 39 34.0751 39 28C39 21.9249 34.0751 17 28 17C21.9249 17 17 21.9249 17 28C17 34.0751 21.9249 39 28 39Z" fill="#FFAC11"/>
<path fill-rule="evenodd" clip-rule="evenodd" d="M28.0363 14.781C20.8961 14.781 15.0742 20.427 14.7919 27.4977L13.6265 27.4511C13.9337 19.7574 20.2675 13.6147 28.0363 13.6147C35.8052 13.6147 42.139 19.7574 42.4462 27.4511L41.2808 27.4977C40.9985 20.427 35.1766 14.781 28.0363 14.781ZM28.0363 41.2914C34.7143 41.2914 40.2398 36.3525 41.1576 29.9283L42.3122 30.0933C41.3135 37.0839 35.303 42.4577 28.0363 42.4577C21.1704 42.4577 15.4263 37.6602 13.9709 31.2351L15.1085 30.9774C16.4461 36.8827 21.7271 41.2914 28.0363 41.2914Z" fill="white" fill-opacity="0.7"/>
<path d="M25.1544 37H24.4387V35H25.1603C25.7692 35 26.1422 35.392 26.1422 35.9981C26.1422 36.605 25.7714 37 25.1544 37ZM24.8656 36.6207H25.1367C25.2629 36.6207 25.369 36.5992 25.4551 36.5561C25.5418 36.5124 25.6069 36.4449 25.6503 36.3536C25.6943 36.2617 25.7163 36.1432 25.7163 35.9981C25.7163 35.8542 25.6943 35.7367 25.6503 35.6454C25.6069 35.5542 25.5422 35.487 25.4561 35.4439C25.37 35.4008 25.2638 35.3793 25.1377 35.3793H24.8656V36.6207Z" fill="white"/>
<path d="M28.0593 35.7082H27.6275C27.6196 35.6543 27.6035 35.6065 27.5792 35.5646C27.5549 35.5222 27.5237 35.4861 27.4856 35.4563C27.4474 35.4265 27.4034 35.4037 27.3535 35.3878C27.3042 35.372 27.2506 35.3641 27.1928 35.3641C27.0883 35.3641 26.9973 35.3891 26.9197 35.4392C26.8422 35.4886 26.782 35.5608 26.7393 35.6559C26.6966 35.7503 26.6752 35.865 26.6752 36C26.6752 36.1388 26.6966 36.2554 26.7393 36.3498C26.7827 36.4442 26.8431 36.5155 26.9207 36.5637C26.9982 36.6119 27.088 36.6359 27.1898 36.6359C27.247 36.6359 27.2999 36.6286 27.3485 36.6141C27.3978 36.5995 27.4415 36.5783 27.4796 36.5504C27.5178 36.5219 27.5493 36.4873 27.5743 36.4468C27.5999 36.4062 27.6177 36.3599 27.6275 36.308L28.0593 36.3099C28.0481 36.3992 28.0202 36.4854 27.9755 36.5684C27.9315 36.6508 27.872 36.7247 27.7971 36.7899C27.7228 36.8546 27.6341 36.9059 27.5309 36.9439C27.4284 36.9813 27.3124 37 27.1829 37C27.0028 37 26.8418 36.9607 26.6999 36.8821C26.5586 36.8035 26.4469 36.6898 26.3647 36.5409C26.2832 36.392 26.2425 36.2117 26.2425 36C26.2425 35.7877 26.2839 35.6071 26.3667 35.4582C26.4495 35.3093 26.5619 35.1958 26.7038 35.1179C26.8458 35.0393 27.0055 35 27.1829 35C27.2999 35 27.4083 35.0158 27.5082 35.0475C27.6088 35.0792 27.6978 35.1255 27.7754 35.1863C27.8529 35.2465 27.916 35.3203 27.9647 35.4078C28.014 35.4952 28.0455 35.5954 28.0593 35.7082Z" fill="white"/>
<path d="M28.185 37V35H28.6118V35.8298H29.4783V35H29.9042V37H29.4783V36.1692H28.6118V37H28.185Z" fill="white"/>
<path d="M31.857 35.7082H31.4253C31.4174 35.6543 31.4013 35.6065 31.377 35.5646C31.3526 35.5222 31.3214 35.4861 31.2833 35.4563C31.2452 35.4265 31.2011 35.4037 31.1512 35.3878C31.1019 35.372 31.0483 35.3641 30.9905 35.3641C30.886 35.3641 30.795 35.3891 30.7174 35.4392C30.6399 35.4886 30.5798 35.5608 30.537 35.6559C30.4943 35.7503 30.473 35.865 30.473 36C30.473 36.1388 30.4943 36.2554 30.537 36.3498C30.5804 36.4442 30.6409 36.5155 30.7184 36.5637C30.796 36.6119 30.8857 36.6359 30.9876 36.6359C31.0447 36.6359 31.0976 36.6286 31.1463 36.6141C31.1956 36.5995 31.2393 36.5783 31.2774 36.5504C31.3155 36.5219 31.347 36.4873 31.372 36.4468C31.3977 36.4062 31.4154 36.3599 31.4253 36.308L31.857 36.3099C31.8459 36.3992 31.8179 36.4854 31.7732 36.5684C31.7292 36.6508 31.6697 36.7247 31.5948 36.7899C31.5206 36.8546 31.4318 36.9059 31.3286 36.9439C31.2261 36.9813 31.1101 37 30.9807 37C30.8006 37 30.6396 36.9607 30.4976 36.8821C30.3563 36.8035 30.2446 36.6898 30.1624 36.5409C30.0809 36.392 30.0402 36.2117 30.0402 36C30.0402 35.7877 30.0816 35.6071 30.1644 35.4582C30.2472 35.3093 30.3596 35.1958 30.5016 35.1179C30.6435 35.0393 30.8032 35 30.9807 35C31.0976 35 31.2061 35.0158 31.306 35.0475C31.4065 35.0792 31.4956 35.1255 31.5731 35.1863C31.6507 35.2465 31.7138 35.3203 31.7624 35.4078C31.8117 35.4952 31.8432 35.5954 31.857 35.7082Z" fill="white"/>
<path fill-rule="evenodd" clip-rule="evenodd" d="M22.2756 21.7979V23.086H22.592V22H34.0001V25H33.4104V22.5332H23.2878L25.5068 24.6783L23.2841 26.6787V25.205H23.0001V32.9976H33.4449V31H34.0001V33.5528H22.4665V24.6498H23.8394V25.4321L24.693 24.6638L23.8394 23.8386V24.3077H22.2756V25.5798L20.2302 23.6116L22.2756 21.7979ZM23.2841 22.5332H23.1472V23.5368H21.7203V23.0323L21.0483 23.6283L21.7203 24.275V23.7525H23.2841V22.5332Z" fill="#FFAC11"/>
<path fill-rule="evenodd" clip-rule="evenodd" d="M32.5812 24.778H30.6501L30.6437 24.9856L28.5933 26H25.6382V26.6662H30.5113C30.4104 27.5124 30.2566 28.5307 29.9999 29.3454V31.5415H30.5303V29.6657H31.9999V31.5415H32.5812V26.6662H36.0208V26H34.0186L32.5812 24.9786V24.778ZM30.622 25.4093L29.428 26H30.5705C30.5932 25.7594 30.6101 25.5719 30.622 25.4093ZM32.5812 25.4327L33.3796 26H32.5812V25.4327ZM30.6231 29.1104C30.8387 28.3189 30.981 27.4346 31.0703 26.6662H31.9999V29.1104H30.6231ZM31.1281 26H31.9999V25.3332H31.1852C31.1769 25.4913 31.1649 25.6154 31.1486 25.7835C31.1424 25.8478 31.1356 25.9185 31.1281 26Z" fill="#FFAC11"/>
<path fill-rule="evenodd" clip-rule="evenodd" d="M26 27H29.3506V27.3701H26.3771V28.8714H29.3506V29.2416H26V27ZM23.4175 29.718H29.5356V32.3829H23.4175V29.718ZM23.7876 30.0882V32H29.1655V30.0882H23.7876Z" fill="white"/>
<path d="M24.012 30.6062H25.6382V31.5415H24.012V30.6062Z" fill="#D9D9D9"/>
<path d="M26 30.6062H27.6263V31.5415H26V30.6062Z" fill="#D9D9D9"/>
<path d="M28 30.6062H28.8562V31.5415H28V30.6062Z" fill="#D9D9D9"/>
<path d="M26.7612 27.6754H28.8089V28.6106H26.7612V27.6754Z" fill="#D9D9D9"/>
</svg>
