<!-- by TradingView --><svg width="56" height="56" viewBox="0 0 56 56" xmlns="http://www.w3.org/2000/svg"><path fill="#F0F3FA" d="M0 0h56v56H0z"/><path d="M28.79 16.21a.5.5 0 0 0-.8-.03l-1.87 2a.5.5 0 0 0 .06.7.5.5 0 0 0 .7-.06l1.47-1.51L38.1 31h-2.6a.5.5 0 0 0 0 1h3.32l1.27 1.79a.5.5 0 0 0 .7.12.5.5 0 0 0 .12-.7l-12.12-17Z" fill="url(#ammytg4r4)"/><path d="M38.48 19c.16 0 .3.1.4.23l6.02 8.9c.17.25.12.6-.12.77a.5.5 0 0 1-.72-.13l-5.63-8.33-1.52 1.92a.5.5 0 0 1-.72.08.57.57 0 0 1-.07-.77l1.94-2.47a.5.5 0 0 1 .42-.2Z" fill="url(#bmmytg4r4)"/><path d="M41 30.51a.5.5 0 0 1 .5-.51h4.46a.5.5 0 0 1 .4.21l3.54 4.98c.12.16.13.36.04.53a.5.5 0 0 1-.44.28h-10a.5.5 0 0 1-.5-.51c0-.28.23-.49.5-.49h9.01l-2.81-4h-4.2c-.27 0-.5-.2-.5-.49Z" fill="url(#cmmytg4r4)"/><path d="M19.96 21s-.08 1.93-1.69 3.67c-1.61 1.73-2.06 4.6.87 6.33 0 0-1.4-1.34-1.4-3.43 0-2.08 2.59-3.55 2.23-6.57Z" fill="#3CB14E"/><path d="M21 21.23s2 1.48 2 3.32c0 1.83-1.73 2.76-1.73 4.38s.66 2.1.66 2.1S19 30.67 19 27.78c0-2.9 2.14-2.79 2-6.55Z" fill="#3CB14E"/><path d="M19 28.05v-.27c0-1.33.45-2.03.93-2.76.55-.85 1.14-1.76 1.06-3.79 0 0 .89.65 1.48 1.63.12.62.22 1.45.1 1.95-.06.3-.33.6-.67.95a4.53 4.53 0 0 0-1.55 3.27s-.87-.3-1.34-.98Z" fill="#A7CE38"/><path d="M23.28 25.17s.72.7.72 1.72c0 1-.87 1.33-.87 2.46s.06 1.62.06 1.62-1.19-.55-1.19-1.9c.03-1.31 1.4-1.84 1.28-3.9Z" fill="#3CB14E"/><path d="M23.2 30.96v.01s-1.2-.55-1.2-1.9c.01-.56.27-.98.55-1.44.38-.6.8-1.28.73-2.46 0 0 .33.32.54.84a3.16 3.16 0 0 1-.39 1.44c-.41.77-1.07 1.97-.24 3.51ZM24 31.52S22.99 33 20.77 33A4.2 4.2 0 0 1 17 31s3.23 2.73 7 .52Z" fill="#A7CE38"/><path d="m19.15 32.1.1.67c.45.14.95.23 1.52.23C23 33 24 31.52 24 31.52a5.9 5.9 0 0 1-4.85.59Z" fill="#3CB14E"/><path d="M21.45 16.25a.48.48 0 0 0-.79 0L7.16 35.3a.47.47 0 0 0-.03.5c.09.15.25.2.43.2H34.6c.18 0 .34-.05.43-.21a.47.47 0 0 0-.04-.5l-3.6-5c-.1-.12-.24-.29-.4-.29H25.57c-.27 0-.48.31-.48.57 0 .27.21.43.48.43h5.2l2.87 4H8.53l12.53-17.65L28.73 28h1.19l-8.47-11.75Z" fill="url(#dmmytg4r4)"/><defs><linearGradient id="ammytg4r4" x1="27.5" y1="16" x2="41" y2="35" gradientUnits="userSpaceOnUse"><stop stop-color="#284176"/><stop offset="1" stop-color="#0B55A3"/></linearGradient><linearGradient id="bmmytg4r4" x1="36.9" y1="19" x2="44.19" y2="30.09" gradientUnits="userSpaceOnUse"><stop stop-color="#284176"/><stop offset="1" stop-color="#0B55A3"/></linearGradient><linearGradient id="cmmytg4r4" x1="41.5" y1="34" x2="44.69" y2="38.63" gradientUnits="userSpaceOnUse"><stop stop-color="#284176"/><stop offset="1" stop-color="#0B55A3"/></linearGradient><linearGradient id="dmmytg4r4" x1="6" y1="34.95" x2="35" y2="33.95" gradientUnits="userSpaceOnUse"><stop stop-color="#233A71"/><stop offset="1" stop-color="#0558A5"/></linearGradient></defs></svg>