<!-- by TradingView --><svg width="56" height="56" viewBox="0 0 56 56" xmlns="http://www.w3.org/2000/svg"><path fill="#F0F3FA" d="M0 0h56v56H0z"/><path d="M27.83 17.04c0-.02-.01-.03-.03-.03-.02 0-.03.01-.03.03l-1.86 11c-.01.1-.07.14-.16.14l-14.47-.57c-.02 0-.03 0-.03-.03v-.04c0-.04.02-.07.07-.07l13.92-.95c.08 0 .13-.05.14-.13l2.1-13.33c0-.04.03-.06.07-.06h.56c.08 0 .12.04.12.11l2.2 24.59c0 .02.01.03.03.03.02 0 .03-.01.04-.03l1.54-15.74c0-.08.04-.11.12-.11h.45c.07 0 .11.03.12.1l.68 4.59c.01.06.04.1.1.11l5.33 1.28c.04 0 .05.03.05.07 0 .04-.03.06-.06.06h-5.9c-.12 0-.18-.06-.2-.18l-.29-1.96c0-.04-.03-.06-.06-.06-.04 0-.06.02-.07.06a112210.97 112210.97 0 0 0-1.64 16.85c-.04.15-.14.22-.3.23-.14 0-.25-.06-.31-.2l-.03-.27c-.95-11.2-1.68-19.7-2.2-25.5Z" fill="url(#a)"/><path d="m40.2 27.03.04-1.18a3.85 3.85 0 0 0-1.6-3.45c-.07-.06-.16-.1-.24-.14a20.7 20.7 0 0 0-4.21-1.2 67.25 67.25 0 0 0-4.5-.59c-.09 0-.13-.05-.13-.13l-.2-3.05c0-.07.03-.1.1-.11A47.5 47.5 0 0 1 34.4 17c1.93.03 3.61.3 5.04.82 2 .72 3.16 1.83 3.5 3.35.12.6.07 1.29-.16 2.1-.21.7-.5 1.35-.9 1.96a8.91 8.91 0 0 1-1.62 1.83c-.04.04-.06.03-.06-.03Z" fill="url(#b)"/><path d="M25.82 17.87c.04-.01.05 0 .05.05l-.23 2.37c-.01.08-.05.12-.12.12-1.2.12-2.44.32-3.73.61-.98.22-2.25.55-3.82.99a202 202 0 0 0-9.59 2.91.97.97 0 0 1-.3.06c-.04 0-.06-.02-.08-.06 0-.05 0-.08.04-.1a32 32 0 0 1 4.56-2.43 76.6 76.6 0 0 1 6.63-2.53c2.17-.7 4.37-1.36 6.59-1.99Z" fill="url(#c)"/><defs><linearGradient id="a" x1="11.84" y1="28" x2="36.3" y2="28" gradientUnits="userSpaceOnUse"><stop stop-color="#307FB2"/><stop offset="1" stop-color="#2A4E92"/></linearGradient><linearGradient id="b" x1="42.2" y1="21.35" x2="30.31" y2="21.35" gradientUnits="userSpaceOnUse"><stop stop-color="#116138"/><stop offset="1" stop-color="#2FA549"/></linearGradient><linearGradient id="c" x1="24.66" y1="21.43" x2="9.22" y2="21.43" gradientUnits="userSpaceOnUse"><stop stop-color="#10713E"/><stop offset="1" stop-color="#2EA249"/></linearGradient></defs></svg>