<!-- by TradingView --><svg width="56" height="56" viewBox="0 0 56 56" xmlns="http://www.w3.org/2000/svg"><path fill="#F0F3FA" d="M0 0h56v56H0z"/><path d="M40.63 22.4c0 7.4-5.77 13.4-12.9 13.4-7.12 0-12.9-6-12.9-13.4S20.61 9 27.73 9c7.13 0 12.9 6 12.9 13.4Z" fill="url(#awntet4bv)"/><path fill-rule="evenodd" d="M27.73 35.3c6.83 0 12.4-5.76 12.4-12.9 0-7.14-5.57-12.9-12.4-12.9s-12.4 5.76-12.4 12.9c0 7.14 5.57 12.9 12.4 12.9Zm0 .5c7.13 0 12.9-6 12.9-13.4S34.86 9 27.73 9c-7.12 0-12.9 6-12.9 13.4s5.78 13.4 12.9 13.4Z"/><path d="M36.27 24.1c0 5.1-3.94 9.25-8.8 9.25-4.86 0-8.8-4.14-8.8-9.26 0-5.1 3.94-9.25 8.8-9.25 4.86 0 8.8 4.14 8.8 9.25Z" fill="#252628"/><path d="M21.15 19.41a7.63 7.63 0 0 0-.97 8.9l4.75-2.23-.25-2.22 10.77-1.57a8.04 8.04 0 0 0-5.69-5.47c-.3.36-1.06 1.07-1.56 1.05-.5-.03-.9-.98-1.03-1.45a10.25 10.25 0 0 0-6.02 3Z" fill="#EF3C28"/><path d="m24.09 19.49-1.68 2.15 2.76 2.15 1.76-2.58-2.84-1.72Z" fill="#FEFEFE"/><path d="m27.45 19.2-3.36.32 2.8 1.71 2.6-.12-2.04-1.91Z" fill="#FDD46A"/><path d="m26.92 21.25-1.75 2.52 3.9-.64.45-1.98-2.6.1Z" fill="#262729"/><path d="M20.22 25.6v2.83l7.7-.02v-.28l4.03-.34v.62h.57v-5.84l-8.02 1.27v1.76h-4.28ZM33.2 23h2.85v.64h-2.86V23Zm0 1.1h2.74v.63H33.2v-.64Zm2.38 1.01h-2.33v.64h2.33v-.64Zm-2.33 1.57h2.02v.64h-2.02v-.64Zm1.12 1.3h-1.12v.65h1.12v-.64Z" fill="#FBFBFB"/><path d="M14.84 44.48c-1.05-.74-.34-1.56.14-1.87 1.04-.17 3.4-.54 4.53-.6 1.14-.05 3.09.08 3.8.37.16.24.2.92.76.8.57-.14.3-.61 0-.95l.55-.45 1.27.6c-.07.1-.23.56-.23.66.42.67-.18.78-.53.76.03.06.04.26-.2.54-.25.27-.68-.12-.86-.35-.19.14-.68.33-1.11 0a3.28 3.28 0 0 0-1.82-.7c-.54 0-.19.47-.76.5-.46.04-.34-.63-.22-.98l-.65.35c-.28-.47-.6.06-.73.4l.38-.08c.23.1.6.43.25 1-.35.57-1.08-.16-1.4-.6-.31.27-1.87 1.53-3.17.6Z" fill="url(#bwntet4bv)"/><path d="m31.85 23.18-3.94.46v.45l3.94-.45v-.46ZM25 25.35h1.78v.57H25v-.57Zm-4.26 1.12h3.55v.57h-3.55v-.57Zm0 1h1.28v.57h-1.28v-.57Zm3.55 0h-1.78v.57h1.78v-.57Zm3.6-2.92 3.95-.46v.46l-3.94.46v-.46Zm3.95.63-3.94.46v.45l3.94-.45v-.46Zm-3.8 1.68L32 26.4v.46l-3.94.46v-.46Zm-1.26-.29H25v.58h1.78v-.58Z" fill="#252628"/><path fill-rule="evenodd" d="M26.05 24.93c.2 0 .36-.16.36-.36a.36.36 0 0 0-.73 0c0 .2.17.36.37.36Zm0 .18c.3 0 .55-.24.55-.54 0-.3-.25-.55-.55-.55-.3 0-.55.25-.55.55 0 .3.25.54.55.54Z" fill="#252628"/><path fill-rule="evenodd" d="M27.72 10.14c-.35-.03-.35.2-.36.33a.3.3 0 0 1 0 .08l.36-.08-.19.4c.35.06.61-.36.7-.58-.03-.04-.17-.13-.51-.15Zm2.53.33.16 1.6c.58-.14 1.7-.45 1.64-.6a2.78 2.78 0 0 1-.14-.48l-1.25.63c.01-.38-.05-1.15-.4-1.15Zm-2.72 2c.35-.04.98-.22.7-.6l-.01-.03c-.35-.48-.8-1.1-1.44-.54-.66.56-.82 1.5-.41 2.12.4.63 1.02 1.09 1.6.54.45-.43.76-.86.85-1.03.09.35.34 1.03.63 1.03.37 0 1.25-.4.96-.84a8.75 8.75 0 0 1-.13-.22c-.22-.37-.42-.7-.68-.43-.25.26-.2.6-.15.75l-.32-.65.94-.85-.17-.42-.77.76-.3-1.35-.34.16.33 1.42c-.26.48-.94 1.42-1.53 1.29-.74-.16-.92-.7-.92-1.11 0-.4.51-1.05.92-1 .4.07.63.66.24 1Zm4.07 0c-.64-.37-.81.58-.82 1.11.07-.43.3-1.13.66-.46.35.66-1.08 1.03-1.84 1.13.62.32 1.8-.06 2.3-.29.25.31-.72.66-1.24.8.96.4 1.48-.36 1.61-.8-.12.39-.17 1.18.62 1.3.78.11 1.56.38 1.85.5-.52.53-1.21 1.55.2 1.46 1.43-.1 1.96-1.44 2.05-2.1l-1.55 1.05.98-.4c-.06.34-.35 1.06-1.1 1.14-.76.09-.56-.64-.37-1 .18-.09.62-.29.92-.45.3-.16.49-.88.55-1.21l-1.1.5h.55c-.12.42-.2.4-.4.37-.13-.03-.3-.06-.52 0-.5.1-.97-.2-1.15-.37-.81.06-1.18-.14-1.22-.79-.03-.51-.46-.57-.67-.54.16-.16.33-.58-.31-.95Zm2.33 0 .26.75.9-.1-.14-.35-.53.16-.23-.46h-.26Zm-.74-.18h-.61c.34 0 .22-.54.12-.81l.61.24-.12.57Zm.61 1.13-.49.97h.27l.61-.7-.39-.27Zm4.11 4.28-.47-.79c-.13 0-.24.33-.29.49-.19-.13-.66-.38-1.04-.34-.47.04-1.16.34-1.16.89 0 .43.61.34.92.24-.15.08-.35.34 0 .75.34.4 1.42-.17 1.92-.51l.39.79c.2-.16.65-.47.75-.47.1 0-.72-.54-1.14-.8l-.19.24-1.02.24h.57c.17 0-.36.42-.73.32-.3-.08-.12-.65 0-.93-.33.11-1 .24-1.1-.12-.13-.44 1.1-.48 1.47-.14.3.28.87.21 1.12.14Zm.82 3.42-.31-.45-.51-.32c.13-.28.22-.81-.47-.75-.86.08-1.35-.2-1.74-.52.05.26.26.8.72.87.22.03.43 0 .6-.04.25-.04.42-.07.42.2 0 .44.88 1 1.29 1Zm-.19-1.17c.34.16.95.55.76.72-.25.23-.63-.38-.76-.72Zm-6.05-4.41c.07.16.33.49.82.52.16.12.5.35.62.3.12-.07.15-.22.15-.3-.4-.1-1.28-.37-1.59-.52Zm-6.2-5.25c.06.06.14.2.17.26l-.44.44-.64-.34.16-.28c.11.1.35.28.38.28.04 0 .26-.24.37-.36Zm-6.74 3.47a1.08 1.08 0 0 0-.31-.18v.51l-.37.22v.23l.68-.23v-.55ZM33.1 12.7h-.6l-.22.37c.16.04.5.1.52.06l.3-.43Zm1.86 1.27.14-.54c.25.27.65.4.78.42.08.01-.04.14-.15.25l-.12.16c-.05.08-.45-.16-.65-.29Zm2.2 1.71-.16.15v.63l.61.27v-.27l-.45-.18.15-.45-.15-.15Zm-14.4-1.13c.27.3-.1.9-.3 1.17.96-.1.75-.7.59-1.18l-.07-.2c-.15-.5.11-.57.6-.3.39.23.84-.19 1.01-.42-.03.24.09.72.8.72.7 0 .68-1.04.58-1.56.03-.92-.7-1.66-1.07-1.92l-.14 1.29c-.01-.72-.57-1.27-.84-1.45l-.11 1.35c-.47-.09-.57.5-.46.99.12.48-.28.35-.47.22-.18-.13-.47.9-.13 1.29Zm.48-3.44c.04-.05-.22.12-.46.28l-.33.22c.34-.12.33.13.32.33 0 .14-.01.26.11.2.22-.09.28-.54.32-.82.01-.1.02-.2.04-.21Zm-3.48 2.66.59-1c.12.1.33.43.18 1-.18.7.64 2.23 1.02 1.95.3-.23-.01-1.01-.2-1.38.39.05 1.05 0 .52-.57l-.32-.5c.44.23 1.2.87.77 1.57l-.58-.2c.24.42.57 1.3 0 1.45-.72.19-1.4-1.38-1.4-1.75 0-.37-.46-.57-.58-.57Zm-.1 1.95-.05-.04.04.04Zm.69-.28c-.79-.65-1.11-.13-.74.24l-1.12-1.04c.52-.01 1.69.13 2.14.8.56.84.6 1.54-.1 2.21.21-.51.46-1.68-.18-2.21Zm-3.44 2.34c.86.27 2.58.68 2.63.19l.01-.16c.05-.47.06-.54-.35-.46-.45.1-.15-1.04.34-.63.49.41.17-.93-.9-1l.26.56-1.05-1.03c.5.07 1.57.33 1.91.84.44.63.45.97.23 1.26.07.4.05 1.2-.64 1.2-.86 0-2.44-.64-2.44-.77Zm0-.43Zm1.2.3c-.31-.13-.98-.36-1.2-.3l.65-.22v-1.3l.29.26.26 1.56Zm-1.56 2.88c-.16-.04-.49-.21-.47-.57v-.69c.22.14.7.53.83.95.17.52 1.27.85 1.3.48 0-.18-.16-.3-.32-.42s-.33-.24-.33-.43.19-.24.35-.28c.18-.04.34-.09.2-.3a.86.86 0 0 0-.71-.4l.33-.55.38.22c.22.33.6 1.02.38 1.2l-.02.01c-.28.22-.46.36-.1.65.38.3.32 1.08-.64.8-.52-.15-.79-.48-.94-.67-.14-.16-.19-.23-.24 0Zm0-2.2.03.03a.12.12 0 0 0-.03-.04Zm.03.03c.09.15.1.66.08.91l.43-.3-.51-.61Zm5.46-5.58.71-.45v.45l-.43.26-.28-.26Zm2.08-1.43-.24 2.36c.16-.18.51-.64.6-1.06.1-.42-.2-1.04-.36-1.3Zm1.26 2.6c-.57.1-.5-.9-.4-1.41l.22-.7c.58.29.9 1.98.18 2.11Z"/><path d="M22.9 29.08c1.4-.08 2.5 1.27 2.87 1.95-.6-.18-1.27.08-1.53.24-.5-.42-1.49-1.05-1.5-.24-.02 1.02-2.82.57-3.08 1.17-.27.6-1.23.58-2.06.68-.82.1-.55.6-1.25.74-.55.1-1.24.36-1.51.48-.09-1.02 1.6-.97 2.05-1.6.46-.63 1.15-.22 1.35-.68.2-.47.27-.65 1.42-.79 1.14-.13 1.5-1.85 3.25-1.95Z" fill="url(#cwntet4bv)"/><path d="M21.24 32.46c.66-.24 1.43.39 1.73.73-.62-.24-1.24.24-1.73.24s-1.13.65-1.79.75c-.66.09-1.34.43-2.2.78-.7.28-1.7.38-2.11.4.07-.33 2.16-1.13 2.46-1.43.3-.3 1.53-.22 2.2-.5a5.88 5.88 0 0 0 1.44-.97Z" fill="#62A5B8"/><path d="M40.49 35.48H42c-1.4.76-3.47 3.48-4.32 4.75h-.9l3.71-4.75Z" fill="#36434B"/><path d="M35.14 35.3c1.9-.48 5.02-.35 6.35-.23a40.96 40.96 0 0 0-4.33 5.12l1.1-.24c1.15-.33 1.77.38 1.93.78.92.35.76.8.63 1.26-.1.36.04.62.13.7-.17.58-.8 1.78-1.97 2.02a2.85 2.85 0 0 1-2.37-.49l-.99.75-.59-.26c.04.12 0 .34-.45.26-.57-.11-1.38-1.38-1.99-1.55-.48-.13-.76.28-.84.5-.42-.33-.35-.7 0-.95.35-.26-.04-.8-1-.55-.76.2-.31.62 0 .8-.1.28-.38.81-.75.78-.36-.02-.57-.7-.62-1.03-1.66.99-3.19-.01-3.75-.64.1 1-.41 1.15-.68 1.1l.26-.46-.26-.27.26-.37-.62-.46-.46.3c.17.18.47.63.33 1.05-.15.42-.81 0-1.12-.25.3.36-.05.56-.26.62-2.36-2.2-6.21-.92-7.84 0l.51-.62-.51-.27-.46.27c-.24-.32.1-.66.3-.8-.78-.34-1-.87-1.02-1.1.65.2.69-.18.84-.18.38.42.73.18.85 0 .6.58.9.15.96-.14.42.63 1.11 1 1.4 1.12l-.79-2.26.54-.19-.14-1.05.4-.2v-.6l.87-.36v-.45l.42-.19v-1.28c.25-.35.76-.27.98-.19v1.06l1.2-.44v-1.96c.48-.45 1.15-.26 1.42-.1l-.17 1.44 1.25-.56.15-2.93c.67-.4 1.46-.24 1.78-.1v.6h1.1c.12-.85 1.38-.87 2-.77v-1.45l-.72-.76h.71l.2-1.73-.66-.58h.66l.4-1.73v1.73h.8l-.8.58.28 1.73h.52l-.52.64v1.57c.55.05 2.22.4 2.99.57.18.16.55.51.55.65.55.03 1.6.03 1.23.95-.3.73.13 1.5.38 1.8Z" fill="url(#dwntet4bv)"/><path d="M28.56 34.95c-1.48-.08-1.87.37-1.87.6l1.13 1.05 5.37-1.22c-.92-.11-3.14-.36-4.63-.43Z" fill="url(#ewntet4bv)"/><path d="M16.94 41.78v-.72l-.27-.37c-.22.64-.7.37-.91.16-.35.38-.74.16-.89 0-.17.33-.65.28-.87.21.23.9 1.09 1.05 1.09 1.12-.52.2-.42.6-.3.78l.6-.3.8-.23c-.43-.48.03-.53.32-.5-.43-.65.43-.19.43-.15Z" fill="url(#fwntet4bv)"/><path d="M24 41.78c-.31.34-.02.55.17.6-.17-.4.35-.38.43-.6.07-.23-.21-.44-.6 0Z" fill="url(#gwntet4bv)"/><path d="m25.11 41.37-.31.24.39.77-.29.3.29.3-.29.43h.21c.65-.17.53-1.01.4-1.41a.61.61 0 0 0-.4-.63Z" fill="url(#hwntet4bv)"/><path d="M31.55 42.9c-.56.27.13.94.16 1 .7-.94 1-.36 2.22.62.99.78 1.14.43 1.1.16l.56.31c.14-.08.48-.28.71-.47.3-.24.13-.62.2-1.06.07-.34-.4-.56-.63-.63l-.5.54c.15.07.42.31.35.73-.07.41-.73.17-1.05 0l-.31.28a26.72 26.72 0 0 1-1.33-1.24c-.21-.25-.92-.52-1.48-.25Z" fill="url(#iwntet4bv)"/><path d="M39.86 43.56c-.26 1.34-2.05.92-2.92.54.92 1.26 3.43.67 3.6-.47.16-1.15-.5-1.77-1.34-1.98-.66-.17-.84.31-.85.57-.77.86.31 1.15.4 1.24.48.82.48-.1.7-.2.16-.07.34.17.4.3Z" fill="url(#jwntet4bv)"/><path d="m25.98 34.83-.58 2.29-7.48 2.34-.08-.26 7.33-2.3.53-2.14.28.07Zm-6.33 6.25c-.74.14-1.14.58-1.29.93l-.26-.11c.18-.43.66-.93 1.5-1.1.8-.15 1.91 0 3.4.82 0-.02.01-.05.03-.07.05-.13.15-.27.3-.4.32-.24.83-.38 1.65-.12.41.13.67.3.85.5.13.16.22.33.3.47l.06.1c.09.16.18.28.34.35.16.07.43.1.9.04a14.38 14.38 0 0 0 1.93-.4c.5-.1.98-.16 1.86-.07l-.03.28a5.28 5.28 0 0 0-2.18.16c-.38.1-.85.2-1.55.3-.48.07-.8.05-1.04-.06a1 1 0 0 1-.48-.46 6.43 6.43 0 0 1-.07-.12c-.07-.14-.14-.27-.26-.4a1.52 1.52 0 0 0-.72-.43c-.75-.23-1.16-.1-1.38.09a.84.84 0 0 0-.27.4l-.01.05v.24l-.22-.12c-1.53-.87-2.62-1.01-3.36-.87Z" fill="#48A4CE"/><path d="M38.48 41.68c-.25.33-1.52.74-2.13.9.61-.35 1.8-1.16 1.67-1.6-.14-.43-.72-.06-1 .17l.15.09c.26.28-.44.54-.82.64-.13-.55.41-.82 1.29-1.5.7-.53 1.07-.22 1.17 0 .24-.04.76-.1.86 0 .1.12-.36.25-.6.3.42.01.73.32.94.47.21.16-.24.53-.47.38-.22-.15-.75-.25-1.06.15Z" fill="#04B096"/><defs><linearGradient id="awntet4bv" x1="20.37" y1="12.13" x2="38.2" y2="28.91" gradientUnits="userSpaceOnUse"><stop stop-color="#65CDE8"/><stop offset=".89" stop-color="#01C1E7"/><stop offset="1" stop-color="#015E70"/></linearGradient><linearGradient id="bwntet4bv" x1="20.08" y1="42.89" x2="20.08" y2="44.82" gradientUnits="userSpaceOnUse"><stop stop-color="#057565"/><stop offset="1" stop-color="#484C4D"/></linearGradient><linearGradient id="dwntet4bv" x1="18.11" y1="39.59" x2="38.17" y2="40.83" gradientUnits="userSpaceOnUse"><stop stop-color="#3E8DC5"/><stop offset=".59" stop-color="#0167B1"/><stop offset="1" stop-color="#004E7E"/></linearGradient><linearGradient id="ewntet4bv" x1="27.28" y1="34.94" x2="27.28" y2="45" gradientUnits="userSpaceOnUse"><stop stop-color="#02BDE5"/><stop offset="1" stop-color="#00637A"/></linearGradient><linearGradient id="fwntet4bv" x1="27.28" y1="34.94" x2="27.28" y2="45" gradientUnits="userSpaceOnUse"><stop stop-color="#02BDE5"/><stop offset="1" stop-color="#00637A"/></linearGradient><linearGradient id="gwntet4bv" x1="27.28" y1="34.94" x2="27.28" y2="45" gradientUnits="userSpaceOnUse"><stop stop-color="#02BDE5"/><stop offset="1" stop-color="#00637A"/></linearGradient><linearGradient id="hwntet4bv" x1="27.28" y1="34.94" x2="27.28" y2="45" gradientUnits="userSpaceOnUse"><stop stop-color="#02BDE5"/><stop offset="1" stop-color="#00637A"/></linearGradient><linearGradient id="iwntet4bv" x1="27.28" y1="34.94" x2="27.28" y2="45" gradientUnits="userSpaceOnUse"><stop stop-color="#02BDE5"/><stop offset="1" stop-color="#00637A"/></linearGradient><linearGradient id="jwntet4bv" x1="27.28" y1="34.94" x2="27.28" y2="45" gradientUnits="userSpaceOnUse"><stop stop-color="#02BDE5"/><stop offset="1" stop-color="#00637A"/></linearGradient><radialGradient id="cwntet4bv" cx="0" cy="0" r="1" gradientUnits="userSpaceOnUse" gradientTransform="rotate(155.57 8.58 17.77) scale(8.95789 19.1723)"><stop stop-color="#6C8CB2"/><stop offset="1" stop-color="#64799D"/></radialGradient></defs></svg>