<!-- by TradingView --><svg width="56" height="56" viewBox="0 0 56 56" xmlns="http://www.w3.org/2000/svg"><path fill="#F0F3FA" d="M0 0h56v56H0z"/><path d="M27 33V8c-1.5 0-1.55 1.36-1.68 1.82a.65.65 0 0 1-.07.18c-1.3 0-1.25 1.5-1.25 1.5h1L24.98 28H24V12c-1.44.34-1.76 2-1.76 2-1.22.07-1.24 1-1.24 1l1 .5V25c-.5.07-1 1-1 1-1.65.27-2 2-2 2-1 .2-1 2-1 2h7l-1 .5V32l1 .5-1 1V35h1l3 2.5 3-2.5h1v-1.5l-1-1 1-.5v-1.5l-1-.5h7s0-1.8-1-2c0 0-.35-1.73-2-2 0 0-.5-.93-1-1v-9.5l1-.5s.22-.93-1-1c0 0-.56-.66-2-1v15h-1V11.5h1s.04-1.5-1.25-1.5a.65.65 0 0 1-.07-.18C30.55 9.36 30.5 8 29 8v25h-2Z" fill="#00320E"/><path d="M40.5 25a7.49 7.49 0 1 1 0 15 7.49 7.49 0 0 1-7.5-7.5v-.47A6.43 6.43 0 0 0 39.56 38 6.36 6.36 0 0 0 46 31.56c0-3.48-2.55-6.3-5.97-6.56h.47ZM15.5 25a7.49 7.49 0 1 0 0 15c4.15 0 7.5-3.35 7.5-7.5v-.47A6.43 6.43 0 0 1 16.44 38 6.36 6.36 0 0 1 10 31.56c0-3.48 2.55-6.3 5.97-6.56h-.47Z" fill="#C39428"/><path d="M21.64 31.4a8.24 8.24 0 0 0 0 12.09 9.3 9.3 0 0 0 12.72 0 8.24 8.24 0 0 0 0-12.1l-.42-.39A7.44 7.44 0 0 1 36 36a7.37 7.37 0 0 1-2.4 5.19C32.07 42.64 30.03 43 28 43c-2.01 0-4.02-.38-5.53-1.81A7.45 7.45 0 0 1 20 36c-.02-1.8.8-3.59 2.13-5-.21.13-.35.26-.49.4Z" fill="#C39428"/><path fill="#F0F3FA" d="M21 27h1v1h-1zM34 27h1v1h-1z"/></svg>