<!-- by TradingView --><svg width="56" height="56" viewBox="0 0 56 56" xmlns="http://www.w3.org/2000/svg"><path fill="#F0F3FA" d="M0 0h56v56H0z"/><path d="M28 11a17 17 0 1 1 0 34 17 17 0 0 1 0-34Z" fill="url(#a5jkrg0ea)"/><path d="M28 15a13 13 0 1 1 0 26 13 13 0 0 1 0-26Z" fill="url(#b5jkrg0ea)"/><path d="M28 16a12 12 0 1 1 0 24 12 12 0 0 1 0-24Z" fill="#F0F3FA"/><path opacity=".4" d="M43.14 28c0-8.28-6.75-15-15.07-15A15.03 15.03 0 0 0 13 28a14.9 14.9 0 0 0 3.8 9.97l.8-.59a14 14 0 1 1 20.93-.16l.9.63a14.9 14.9 0 0 0 3.7-9.85ZM34.9 41.38l-.52-.92a13.94 13.94 0 0 1-12.7.04l-.48.86a15.06 15.06 0 0 0 13.7.02Z" fill="#F0F3FA"/><path d="m28 26 1 4h-.72L28 26Z" fill="#1C4351"/><path fill-rule="evenodd" d="M38 27c0-4.97-4.48-9-10-9s-10 4.03-10 9c0 1.05.2 2.06.57 3h1.09a7.39 7.39 0 0 1-.66-3c0-4.42 4.3-8 9-8 2.3 0 4.38.86 5.91 2.25L28 24v-.41l.58-.46L25.66 21h-.47l-2.98 2.01.71.38.08.74-1 .25v1.49l1.28.47L23 30h3.31l.69-3 1.65-1.12v-.33l-.65-.14v-.58l7.93 5.12-.02.05h1.52c.37-.94.57-1.95.57-3Zm-10 9c-2.38 0-4.57-.75-6.29-2h1.42l.02.02V34H26l-.2 1.2a8.44 8.44 0 0 0 3.28.23L29 34h.76l.2 1.26c1-.25 1.93-.68 2.76-1.26h1.57a10.55 10.55 0 0 1-5.03 1.93l-.14.07v-.06c-.37.04-.74.06-1.12.06Zm-.73-12.88s-.85-.12-1.9-.12c-.72 0-1.48.06-1.98.25v.88s1.52-.1 3 .22c0 0-2.57-.03-3 .1v.85l-.29-.85s-.6.1-.68.38v.75s2.13-.6 4.58-.24l.27-2.22Z" fill="#1C4351"/><path d="m21.02 31.46.12 1.16s-.01.38.55.38c.55 0 1.2-.1 1.2-.1s.11 0 .11-.13c0-.12-.05-.18-.51-.14-.46.03-.74.1-.74-.11 0-.22-.13-1.33-.13-1.33s.03-.19-.35-.19-.25.46-.25.46ZM20.83 32.47l-.88-1.31s-.11-.16-.62-.16c-.5 0-.62.15-.7.3L18 32.43s-.14.56.81.56c.95 0 1.13-.64 1.13-.64s-.34.28-.87.28-.58-.18-.56-.26c.03-.08.56-1 .65-1.03.09-.03.21.01.4.31.17.3.69.98.74 1.05.05.07.48.16.69.1l-.17-.34ZM25.12 32.83 25 31.42s-.06-.42.54-.42h1.24s.2 0 .15.13c-.03.12-.04.17-.33.17-.3 0-.88-.09-.9.01-.03.1 0 .48 0 .48s.07.07.55.07c.48 0 .74-.02.74.03s.06.23-.1.23c-.14 0-1.09 0-1.17.07-.09.06-.03.52-.02.61.02.1-.2.2-.35.2-.16 0-.2-.08-.23-.17ZM29.84 32.53 29 31.18s-.1-.16-.6-.18c-.51-.02-.64.13-.73.27l-.66 1.14s-.16.56.8.59c.95.03 1.15-.6 1.15-.6s-.35.26-.88.24c-.53-.01-.58-.2-.55-.27.03-.09.6-1 .68-1.02.1-.03.22.02.39.33s.66 1 .71 1.08c.05.07.47.17.69.12l-.16-.35ZM35.89 32.65l-.67-1.38s-.08-.17-.6-.25c-.5-.07-.66.05-.76.17l-.83 1s-.24.51.72.66c.97.14 1.26-.44 1.26-.44s-.39.21-.93.13c-.53-.08-.56-.25-.52-.33.04-.07.74-.87.84-.88.1-.01.21.04.34.36.13.32.53 1.04.58 1.11.04.08.45.22.68.2l-.11-.35ZM32.33 31.7s-1.4-.7-1.97-.7c0 0-.25-.03-.25.21s-.14 1.33-.1 1.46c.03.14.08.23.23.22.14 0 .3-.06.32-.26.02-.2-.03-1.12.11-1.14.14-.01 1.38.36 1.52.7 0 0-.01.55.06.68.03.06.14.1.24.12.14.02.27.01.28-.02.02-.06.25-1.66.23-1.75-.01-.04-.16-.09-.3-.1-.13 0-.25.03-.27.12-.03.19-.1.46-.1.46ZM36.84 32.16s.6-.12.62-.39c.02-.27-.52-.53-.75-.44l-.2 1.49s-.1.32-.27.26-.28-.14-.22-.47c.06-.34.1-1.3.15-1.37.04-.07.34-.3.89-.22.54.07.96.49.94.76-.02.27-.4.4-.64.48 0 0 .65.83.61.98-.04.14-.16.3-.26.26-.1-.04-.81-.93-.89-1.14-.08-.2.02-.2.02-.2Z" fill="#E71A20"/><path d="M38 30H18v-.5h20v.5ZM35 34.5H21V34h14v.5Z" fill="#1C4351"/><path opacity=".3" d="M28 16c6.63 0 12 5.15 12 11.5 0 .5-.03 1-.1 1.5h-1.01c.07-.49.11-1 .11-1.5C39 21.7 34.08 17 28 17s-11 4.7-11 10.5c0 .5.04 1.01.11 1.5h-1c-.08-.5-.11-1-.11-1.5C16 21.15 21.37 16 28 16Zm-9.1 19c2.2 2.45 5.46 4 9.1 4 3.64 0 6.9-1.55 9.1-4h-1.4c-1.99 1.86-4.7 3-7.7 3s-5.71-1.14-7.7-3h-1.4Z" fill="url(#c5jkrg0ea)"/><defs><linearGradient id="a5jkrg0ea" x1="28" y1="11" x2="28" y2="45" gradientUnits="userSpaceOnUse"><stop stop-color="#34346B"/><stop offset="1" stop-color="#343361"/></linearGradient><linearGradient id="b5jkrg0ea" x1="15" y1="26.5" x2="42" y2="32" gradientUnits="userSpaceOnUse"><stop stop-color="#F2F1E9"/><stop offset="1" stop-color="#D2D3CC"/></linearGradient><linearGradient id="c5jkrg0ea" x1="28" y1="16" x2="28" y2="39"><stop offset="1" stop-color="#181B1E"/></linearGradient></defs></svg>