<!-- by TradingView --><svg width="56" height="56" viewBox="0 0 56 56" xmlns="http://www.w3.org/2000/svg"><path fill="#F0F3FA" d="M0 0h56v56H0z"/><path fill-rule="evenodd" d="M28 45a17 17 0 1 0 0-34 17 17 0 0 0 0 34Zm0-6a11 11 0 1 0 0-22 11 11 0 0 0 0 22Z" fill="url(#a)"/><path d="M26.72 17.08c0 .07 0 .12.04.14 1 .65 1.97 1.5 2.88 2.57.52.6.86 1.22 1.02 1.85.3 1.2-.71 2.13-1.76 2.4-.15.04-.3.04-.45.02a.14.14 0 0 0-.12.05.14.14 0 0 0-.04.13c.22.84.42 1.63.63 2.37a4.09 4.09 0 0 1 .08 1.16.18.18 0 0 1-.06.1.14.14 0 0 1-.11.04.1.1 0 0 1-.1-.09l-.14-.6c0-.02 0-.02-.01 0l-.02.13a23.81 23.81 0 0 0-.62-3.05.19.19 0 0 0-.18-.14c-.3 0-.59-.09-.85-.25a3.07 3.07 0 0 1-.36-.31c-.13-.12-.26-.21-.4-.28l-.07.48a.1.1 0 0 1-.07.07.1.1 0 0 1-.1-.03 26.05 26.05 0 0 0-.63-.48c-.3-.2-.66-.3-.96-.51-.07-.05-.2-.08-.36-.07a.73.73 0 0 0-.34.09c-.42.22-.85.4-1.31.53l.4-.25c.06-.03.06-.04 0-.03-.38.07-.83.22-1.35.45-.17.08-.34.14-.5.18a.09.09 0 0 1-.1-.05c-.03-.07-.01-.14.05-.19.54-.45.84-.76 1.43-.94.17-.06.17-.11.01-.18a4.16 4.16 0 0 0-1.5-.27.36.36 0 0 0 .1-.1 7.18 7.18 0 0 1 4.28-.32l.04-.02a.08.08 0 0 0 .02-.06c-.03-.54-.2-1.12-.23-1.59-.15-1.95.19-2.32.51-3.5.03-.11.08-.12.14-.01l.29.5c.02.03.06.05.1.05h.72Z" fill="#78A72A"/><path d="m37.16 22.13-.7 2.06c-.18.47-.38.86-.63 1.19a2.43 2.43 0 0 1-2.13 1.02 1.9 1.9 0 0 1-.85-.19c-.25-.13-.5-.31-.74-.53a.17.17 0 0 0-.23 0 .17.17 0 0 0-.05.07l-.74 1.8a.07.07 0 0 0 .07.1c.77 0 1.43.3 1.96.93a3 3 0 0 1 .64 2.72c-.06.17-.14.33-.22.49a2.83 2.83 0 0 0-.56-1.64l-.61-.78a2.19 2.19 0 0 1-.34-.73c-.18-.61-.64-.94-1.36-.97a.37.37 0 0 0 .1-.4l.89-1.84c.03-.06.03-.11 0-.16.08-.04.13-.08.15-.11a14 14 0 0 1 2.21-2.83c.34.07.65.04.91-.09.08-.04.08-.05 0-.02l-.36.08c-.04.01-.07 0-.09-.05 0-.03 0-.05.04-.08.5-.36 1.07-.6 1.72-.7h.02c.08-.04.1-.08.04-.14a.06.06 0 0 1-.01-.07l.18-.46a.12.12 0 0 0-.1-.16l-.07.01a9.8 9.8 0 0 0-2.02 1.42v-.68c0-.18-.05-.2-.14-.03-.22.36-.64.73-1.09.92-.05.02-.06 0-.03-.04.12-.22.62-.47.8-.68.17-.2.31-.4.41-.55.23-.38.32-.35.28.08l-.05.33c-.02.1.01.1.08.05.31-.28.57-.6.78-.98.11-.2.09-.43-.07-.67 1.27-.18 1.64-.46 2.64-.54.05 0 .09 0 .1.03a.1.1 0 0 1 .02.06.1.1 0 0 1-.06.1c-.36.18-.58.4-.67.65-.2.58-.23 1.25-.12 2.01Z" fill="#92BB33"/><path d="M35.32 20.49c-.21.37-.47.7-.78.98-.07.06-.1.04-.08-.05l.05-.33c.04-.43-.05-.46-.28-.09-.1.17-.24.35-.42.56-.17.2-.67.46-.8.68-.02.05 0 .06.04.04.45-.2.87-.56 1.09-.92.1-.16.14-.15.14.03v.68a14.01 14.01 0 0 0-2.47 3.09c-.02.03-.07.07-.15.11-.46-.07-.75-.29-.88-.65-.07-.2-.04-.5.1-.85.17-.46.36-.8.57-1.02.26-.27.43-.48.5-.6.24-.2 4.38-3.49 3.37-1.66Z" fill="#6A9A26"/><path d="M34.02 22.33a9.8 9.8 0 0 1 2.35-1.7.12.12 0 0 1 .1.1c.01.03.01.05 0 .07l-.18.46c-.02.02-.01.05.01.07.06.06.04.1-.04.14h-.02c-.65.1-1.23.34-1.72.7-.04.03-.05.05-.04.08.02.05.05.06.1.05l.34-.08c.09-.03.09-.02.01.02-.26.13-.57.16-.9.1Z" fill="#A3CD3A"/><path d="M20.75 22.12c.56 0 1.06.1 1.5.27.16.07.16.12 0 .18-.6.18-.9.49-1.44.94-.06.05-.08.12-.04.19a.09.09 0 0 0 .1.05c.15-.04.32-.1.49-.18.52-.23.97-.38 1.34-.45.07-.01.07 0 .02.03l-.41.25-.57.35c-.2.14-.19.2.06.2.61-.02 1.23-.11 1.87-.3.26-.07.54-.1.85-.1a17 17 0 0 1 1.13.1c.07 0 .16.07.26.2a.1.1 0 0 0 .14 0 .1.1 0 0 0 .03-.05l.07-.48.02.62c0 .21.08.35.19.51.09.14.16.26.2.37.1.24.2.6.33 1.08l.5 1.97a11.2 11.2 0 0 1 .13.8.07.07 0 0 0 .1 0l.49-.45c.27.24.43.4.49.49a18.48 18.48 0 0 0 .78 1.15.12.12 0 0 0 .16-.03l1-1.28a.13.13 0 0 0 .03-.12c-.04-.12-.16-.23-.34-.32a.1.1 0 0 1-.06-.08.1.1 0 0 1 .05-.1l.45-.26c.72.03 1.18.36 1.36.97.1.34.22.59.34.73l.6.78c.36.47.55 1.02.57 1.64l-1.31 1.9a.05.05 0 0 1-.05.02.05.05 0 0 1-.04-.04c-.04-.22-.05-.34-.13-.5-1.28-2.45-2.68-1.76-4.04-2.72-.06-.04-.08-.03-.07.05.48 2.69 1.01 6.18.7 8.9-.37-5.03-.11-2.64-.55-6.11a20.4 20.4 0 0 1-.4-2.19 367.17 367.17 0 0 0-1.37-6.28.09.09 0 0 0-.13.02.75.75 0 0 1-.25.24c-.45.27-.97.38-1.55.32a7.14 7.14 0 0 1-1.87-.44c-.32-.13-.6-.2-.86-.2l-.89-.05c-.76 0-1.47.18-2.13.54-.14.09-.26.22-.36.31-.18.16-.24.13-.2-.1a3.6 3.6 0 0 1 1.01-1.93 781.09 781.09 0 0 1 .7-.72.47.47 0 0 1 .13-.19c.3-.25.6-.41.87-.5Z" fill="#6A9A26"/><path d="M28.89 30.75h.3v8.38h.24c-.03-1.1-.04-2.72 0-4.27.02-.81.05-1.6.1-2.27.06-.67.14-1.24.25-1.6l.3.08c-.1.33-.18.87-.24 1.54a89.99 89.99 0 0 0-.1 6.67v.16h-.85v-8.69Z" fill="#203F13"/><path d="M25.65 23.64a17 17 0 0 0-1.13-.08c-.3-.01-.59.02-.85.1-.64.18-1.26.27-1.87.29-.25 0-.27-.06-.06-.2l.57-.35c.46-.13.9-.3 1.3-.53.12-.06.23-.1.35-.1.17 0 .29.03.36.08.3.2.66.3.96.52l.37.27ZM29.01 27.44c.19.2.49.3.9.33.09.01.18 0 .28-.03l.27-.1c.17-.05.27-.18.3-.38.05.16.02.3-.09.4l-.45.27a.1.1 0 0 0-.05.1.1.1 0 0 0 .06.08c.18.1.3.2.34.32a.13.13 0 0 1-.03.12l-1 1.28a.12.12 0 0 1-.16.03 3.1 3.1 0 0 0-1.27-1.65l.51-.37a.09.09 0 0 0 .04-.1l-.1-.4.02-.13.16.61a.1.1 0 0 0 .09.09c.03 0 .07-.01.1-.04a.18.18 0 0 0 .07-.1.78.78 0 0 0 .01-.33Z" fill="#A3CD3A"/><path d="m28.27 39.6-.64.02c.04-.06.04-.12.01-.2v-.2a110.38 110.38 0 0 0-.04-5.29c0-.18-.04-.5-.1-.96l-.1-.96c0-.2-.08-.35-.2-.43-.04-.03-.07-.02-.08.03a2.07 2.07 0 0 1-1.03 1.33c-.65.37-1.32.62-2.03.77-.59.11-1.02.2-1.3.27-1 .22-1.67.81-2.02 1.76l-.01.16-.06.11c-.05.06-.11.1-.17.1-.05 0-.07-.02-.07-.07a.34.34 0 0 0-.05-.17l-.07-.26a6.19 6.19 0 0 1-.06-3.1 4.58 4.58 0 0 1 3.14-3.1c.7-.22 1.52-.23 2.2.1.28.15.5.25.68.3.59.18.92.6 1.08 1.16l.18.54c.07.18.11.36.13.54a47.1 47.1 0 0 0 .08.9l.05.19c.09.97.13 1.55.13 1.73a91.42 91.42 0 0 0-.05 3.71c0 .31.03.62.07.93 0 .05.04.07.09.08l.24.02Z" fill="#78A72A"/><path d="m28.19 22.24.08-.15c0-.01.02-.02.04-.01v.03l-.4.88c-.02.03-.04.03-.05 0a17.43 17.43 0 0 1-1.04-2.68c-.17-.43-.29-.73-.34-.9l-.23-.8a5.57 5.57 0 0 0-.32-.85c-.02-.05 0-.07.04-.08.29-.08.53 0 .72.24.03.04.04.08.04.12l-.07 1.05c0 .03.02.05.05.05h.05c.04 0 .07-.03.07-.07l.16-1.13a.07.07 0 0 1 .04-.05.07.07 0 0 1 .06 0c.7.34 1.1.9 1.19 1.67.11.92.04 1.8-.2 2.62-.07.2-.03.23.1.06Z" fill="#A3CD3A"/><path d="m35.92 18.1.38-.43.2.17.49-.57.1-.14.06-.14c0-.04 0-.09-.02-.13a.34.34 0 0 0-.1-.13.32.32 0 0 0-.16-.08.55.55 0 0 0-.4.1l-.53.6.2.17-.39.44-1.04-.9.39-.44.23.2.8-.9-.24-.21.38-.45.83.73-.25.3a.73.73 0 0 1 .34-.05c.08 0 .16.02.25.05.1.04.18.1.27.17.1.08.17.17.21.26.05.1.08.19.08.29 0 .1-.02.2-.06.3-.04.1-.11.21-.2.32l-.64.73.22.2-.38.44-1.02-.9ZM33.84 15.47a.5.5 0 0 0-.06.2c0 .07 0 .13.02.19.03.06.06.11.11.16s.11.1.18.14l.21.1a1.44 1.44 0 0 0 .38.05h.13l-.01.54c-.1.02-.2.02-.32.01a1.91 1.91 0 0 1-1.19-.58c-.1-.12-.18-.25-.22-.4-.04-.14-.05-.3-.02-.46.03-.17.1-.34.2-.51.1-.18.2-.31.34-.42a1.09 1.09 0 0 1 .87-.21 1.45 1.45 0 0 1 .83.49 1 1 0 0 1 .2.84c-.03.15-.09.3-.18.47l-.1.18-1.37-.8Zm.95.01a.58.58 0 0 0 .07-.17.37.37 0 0 0 0-.16c0-.05-.03-.1-.06-.14a.4.4 0 0 0-.13-.12.39.39 0 0 0-.33-.05c-.1.04-.2.1-.27.22l.72.42ZM31.4 14.64a.5.5 0 0 0-.05.21c0 .07.02.13.05.18.03.06.07.1.13.15.05.05.12.09.2.12l.21.07a1.45 1.45 0 0 0 .39.01l.12-.02.05.54c-.09.03-.2.05-.31.06a1.91 1.91 0 0 1-1.25-.45c-.12-.1-.2-.23-.26-.37-.06-.14-.08-.3-.08-.46.01-.17.06-.34.14-.53.08-.18.18-.33.3-.45a1.1 1.1 0 0 1 .84-.31 1.45 1.45 0 0 1 .88.39 1 1 0 0 1 .29.81c-.01.16-.05.32-.13.5l-.08.18-1.45-.63Zm.94-.1a.59.59 0 0 0 .05-.17l-.01-.16a.33.33 0 0 0-.08-.14.4.4 0 0 0-.15-.1.39.39 0 0 0-.33 0 .56.56 0 0 0-.25.24l.77.33ZM28.57 15.12l.09-.58.3.05.2-1.2-.32-.05.1-.57 1.09.17-.08.45c.06-.1.11-.17.17-.23.06-.05.12-.1.18-.13a.5.5 0 0 1 .31-.05.86.86 0 0 1 .2.06c.03 0 .05.02.07.03l-.2.7a1.13 1.13 0 0 0-.15-.05.7.7 0 0 0-.1-.02.5.5 0 0 0-.32.05.65.65 0 0 0-.25.31l-.1.65.37.06-.1.58-1.46-.23ZM27.51 15.22l-.05-.33a.82.82 0 0 1-.22.2 1.35 1.35 0 0 1-1.07.15 1.3 1.3 0 0 1-.84-.67 1.8 1.8 0 0 1-.15-.41 2.35 2.35 0 0 1 .16-1.46 1.4 1.4 0 0 1 .53-.53 1.35 1.35 0 0 1 .64-.17 1.42 1.42 0 0 1 .68.16c.07.04.12.08.15.12l.07.07v-.3h.64v1.1h-.64v-.05a.52.52 0 0 0-.22-.35.72.72 0 0 0-.45-.14c-.09 0-.18.02-.27.06a.67.67 0 0 0-.24.17.9.9 0 0 0-.18.31c-.04.13-.06.28-.06.47 0 .18.02.33.06.46.04.13.1.23.17.3.07.09.15.14.24.18a.84.84 0 0 0 .83-.14.58.58 0 0 0 .07-.08v-.28h-.52v-.59h1.57v.6h-.27v1.15h-.63ZM23.73 14.53c.1.16.17.33.2.5a1.1 1.1 0 0 1-.2.89c-.1.13-.22.25-.38.35-.16.1-.31.17-.47.21-.16.04-.32.04-.47.02a1.1 1.1 0 0 1-.43-.19 1.4 1.4 0 0 1-.37-.38 1.4 1.4 0 0 1-.2-.5 1.08 1.08 0 0 1 .2-.89c.1-.13.22-.24.38-.35.16-.1.31-.17.47-.21a1.07 1.07 0 0 1 .9.16c.14.1.26.23.37.4Zm-.7 1.25c.06-.04.11-.09.14-.15a.4.4 0 0 0 .04-.2.67.67 0 0 0-.05-.21 1.12 1.12 0 0 0-.48-.58.38.38 0 0 0-.38.03.38.38 0 0 0-.17.34c0 .07.01.15.04.22a1.22 1.22 0 0 0 .3.44c.05.06.11.1.18.14a.37.37 0 0 0 .39-.02ZM21.29 17.23l-.25-.23c0 .1 0 .19-.04.29a1.36 1.36 0 0 1-.74.8 1.3 1.3 0 0 1-1.07.01 1.8 1.8 0 0 1-.38-.23 2.34 2.34 0 0 1-.79-1.24 1.4 1.4 0 0 1 .08-.74 1.37 1.37 0 0 1 .73-.76c.1-.04.2-.07.28-.08a.62.62 0 0 1 .2 0h.1l-.2-.23.51-.4.7.85-.5.4-.05-.03a.52.52 0 0 0-.38-.14.72.72 0 0 0-.44.18.67.67 0 0 0-.26.5c0 .11.02.23.06.36.05.12.13.26.24.4.12.14.23.25.34.32.12.07.23.11.33.13.1.02.2.01.3-.02a.84.84 0 0 0 .55-.63v-.1l-.17-.22-.4.33-.37-.46 1.22-1 .37.47-.2.17.72.9-.5.4Z" fill="#FFFFFB"/><path d="M13.05 27a14.99 14.99 0 1 0 29.9 0h-1.66a13.34 13.34 0 1 1-26.59 0h-1.65Z" fill="#fff" fill-opacity=".5"/><defs><linearGradient id="a" x1="14.73" y1="16.47" x2="32.43" y2="32.68" gradientUnits="userSpaceOnUse"><stop stop-color="#AACC2F"/><stop offset="1" stop-color="#1E620D"/></linearGradient></defs></svg>