<!-- by TradingView --><svg width="56" height="56" viewBox="0 0 56 56" xmlns="http://www.w3.org/2000/svg"><path fill="#F0F3FA" d="M0 0h56v56H0z"/><path d="m33 29-3-3-2.5 3-2.5-3-3 3v-4l5.5-5 5.5 5v4Z" fill="#EE1928"/><path d="m33 36-3-3-2.5 3-2.5-3-3 3v-5l3-3 2.5 3 2.5-3 3 3v5ZM50 30.14A7.57 7.57 0 0 1 42.6 36c-4.2 0-7.6-3.36-7.6-7.5 0-4.14 3.4-7.5 7.6-7.5 2.48 0 4.7 1.18 6.08 3.01l-2.64 1.7a4.5 4.5 0 1 0 .87 3.67l.07.04 3.02.72ZM19.56 24.08a7.49 7.49 0 1 0 .44 8.17l-2.43-1.82a4.5 4.5 0 1 1-.41-4.55l2.4-1.8Z" fill="#252A80"/><path d="M17 29h3v7h-3v-7Z" fill="#252A80"/></svg>