<!-- by TradingView --><svg width="56" height="56" viewBox="0 0 56 56" xmlns="http://www.w3.org/2000/svg"><path fill="#F0F3FA" d="M0 0h56v56H0z"/><path fill-rule="evenodd" d="M33 20a4 4 0 1 0-8 0 4 4 0 0 0 8 0Zm-1 0a3 3 0 1 0-6 0 3 3 0 0 0 6 0Z" fill="#E6AF16"/><path d="M27.2 26S24.19 32.72 15 40h3s7.94-8 10-14h-.8ZM32 25s.6 6.35-9 17h2.5s7.45-9.48 7.5-17h-1Z" fill="#E6AF16"/><path d="M31 45s4.5-6.51 4.5-16.5S31.3 13.29 23 6c0 0 14 8.6 14 22.5S33.3 45 33.3 45H31Z" fill="url(#afbpr4q4z)"/><defs><linearGradient id="afbpr4q4z" x1="30" y1="6" x2="30" y2="45" gradientUnits="userSpaceOnUse"><stop stop-color="#E6AF16" stop-opacity="0"/><stop offset=".73" stop-color="#E6AF16"/></linearGradient></defs></svg>