<!-- by TradingView --><svg width="56" height="56" viewBox="0 0 56 56" xmlns="http://www.w3.org/2000/svg"><path fill="#002D44" d="M0 0h56v56H0z"/><path d="M12 19h2l3 20h-2l-3-20ZM24.2 27.46c1.63 0 2.41-1.08 2.41-2.46 0-.26-.03-.54-.08-.83-.33-1.92-1.72-3.17-3.66-3.17H19.6l1.27 6.46h3.32ZM26.55 37c1.63 0 2.05-1.4 2.06-2.83 0-.39-.03-.77-.1-1.13-.25-1.46-.74-2.45-1.7-2.97a4 4 0 0 0-1.93-.42h-3.62L22.61 37h3.94ZM17.6 19h5.8c2.77 0 4.38 2.47 4.81 4.96.27 1.53.18 3.19-1.06 4.27 1.96 1.02 2.95 2.78 3.32 4.93.47 2.7-.44 5.84-3.68 5.84h-5.7l-3.49-20ZM36.84 19c3.5 0 5.99 2.84 6.79 6h-1.81c-.73-2.05-1.96-4-4.34-4-4.01 0-3.7 5.66-3.22 8.25.56 3.01 2.12 7.49 5.87 7.49 2.76 0 3.07-2.65 3-4.74h1.8c.35 3.23-.6 7-4.6 7-5.09 0-7.29-6.13-8.05-10.19-.67-3.61-.5-9.81 4.56-9.81Z" fill="#F0F3FA"/><path d="M13 15c.55 0 1 .67 1 1.5s-.45 1.5-1 1.5-1-.67-1-1.5.45-1.5 1-1.5Z" fill="#FF001B"/></svg>