<!-- by TradingView --><svg width="56" height="56" viewBox="0 0 56 56" xmlns="http://www.w3.org/2000/svg"><path fill="#F0F3FA" d="M0 0h56v56H0z"/><path d="M16 11h11v4H16v-4Z"/><path opacity=".6" d="M16 43h11v2H16zM28 43h4v2h-4zM33 43h7v2h-7z"/><path d="M16 17h11v16H16V17Z"/><path d="M29 29h11v4H29v-4ZM29 11h11v16H29V11ZM16 41h24v1H16v-1Z" fill="#18417F"/><path d="M16 36h3v4h-3v-4ZM16 34h3v1h-3v-1ZM38 36h2v4h-2v-4Z"/><path d="M23 38.55h-1.7v.63c0 .13.02.21.05.25.03.04.08.06.16.06.1 0 .17-.03.2-.08s.05-.14.05-.29v-.38H23v.21c0 .18-.02.32-.05.42-.03.1-.11.2-.23.3-.13.11-.28.2-.47.25-.2.05-.43.08-.71.08-.28 0-.52-.03-.73-.08a1.3 1.3 0 0 1-.5-.22.78.78 0 0 1-.24-.31 1.39 1.39 0 0 1-.07-.5v-.84c0-.25.05-.45.15-.6.1-.14.27-.26.5-.33.23-.08.5-.12.8-.12.36 0 .67.05.9.14.24.1.4.22.5.37.1.16.15.38.15.66v.38Zm-1.31-.47v-.21a.75.75 0 0 0-.04-.3c-.02-.04-.07-.06-.14-.06-.1 0-.15.02-.17.06a.78.78 0 0 0-.03.3v.21h.38Z" fill="url(#atu4fjuzj)"/><path d="M27 38.55h-1.7v.63c0 .13.02.21.05.25.03.04.08.06.16.06.1 0 .17-.03.2-.08s.05-.14.05-.29v-.38H27v.21c0 .18-.02.32-.05.42-.03.1-.11.2-.23.3-.13.11-.28.2-.47.25-.2.05-.43.08-.71.08-.28 0-.52-.03-.73-.08a1.3 1.3 0 0 1-.5-.22.78.78 0 0 1-.24-.31 1.39 1.39 0 0 1-.07-.5v-.84c0-.25.05-.45.15-.6.1-.14.27-.26.5-.33.23-.08.5-.12.8-.12.36 0 .67.05.9.14.24.1.4.22.5.37.1.16.15.38.15.66v.38Zm-1.31-.47v-.21a.75.75 0 0 0-.04-.3c-.02-.04-.07-.06-.14-.06-.1 0-.15.02-.17.06a.78.78 0 0 0-.03.3v.21h.38Z" fill="url(#btu4fjuzj)"/><path d="M32 38.15h-1.68v-.34c0-.11-.02-.2-.06-.23-.04-.05-.11-.07-.21-.07-.1 0-.18.02-.21.06-.04.03-.05.12-.05.24v1.37c0 .1.02.18.07.23.06.05.14.08.24.08.12 0 .2-.03.24-.08.05-.06.07-.16.07-.3v-.35H32c0 .23-.02.4-.05.52-.03.11-.13.23-.3.35-.16.12-.38.22-.65.28-.27.06-.6.09-1 .09-.5 0-.9-.04-1.2-.13-.29-.08-.5-.2-.62-.36a1.03 1.03 0 0 1-.18-.65v-.82c0-.25.05-.43.15-.56.1-.12.31-.23.64-.33S29.52 37 30 37c.46 0 .86.05 1.19.15.33.1.55.22.66.36.1.15.16.36.16.64ZM37 38.07v.7c0 .27-.03.46-.08.58a.8.8 0 0 1-.33.34c-.17.1-.39.18-.65.23a6.28 6.28 0 0 1-1.9.01c-.27-.04-.48-.1-.63-.19a.79.79 0 0 1-.32-.31c-.06-.13-.09-.31-.09-.56v-.74c0-.27.06-.48.17-.63.12-.15.33-.27.62-.36a4.98 4.98 0 0 1 2.16-.05c.28.06.5.13.65.23.16.1.26.2.32.3.05.1.08.24.08.45Zm-1.75-.22c0-.15-.01-.24-.04-.28-.04-.04-.1-.06-.2-.06s-.18.02-.21.06c-.04.04-.06.13-.06.28v1.3c0 .14.02.23.06.27.03.05.1.07.2.07s.17-.02.2-.06c.04-.04.05-.12.05-.24v-1.34Z" fill="#181B1E"/><defs><linearGradient id="atu4fjuzj" x1="21.5" y1="37" x2="21.5" y2="40"><stop offset="1" stop-color="#181B1E"/></linearGradient><linearGradient id="btu4fjuzj" x1="25.5" y1="37" x2="25.5" y2="40"><stop offset="1" stop-color="#181B1E"/></linearGradient></defs></svg>