<!-- by TradingView --><svg width="56" height="56" viewBox="0 0 56 56" xmlns="http://www.w3.org/2000/svg"><path fill="#F0F3FA" d="M0 0h56v56H0z"/><path fill-rule="evenodd" d="M43 28c0-8.26-6.74-15-15-15s-15 6.74-15 15 6.74 15 15 15 15-6.74 15-15Zm-1 0a14.01 14.01 0 0 0-28 0 14.01 14.01 0 0 0 28 0Z" fill="#000053"/><path d="M28 11a17 17 0 0 1 12 5 17 17 0 0 1 5 12 17 17 0 0 1-5 12 17 17 0 0 1-12 5 17 17 0 0 1-12-5 17 17 0 0 1-5-12 17 17 0 0 1 5-12 17 17 0 0 1 12-5Zm11.53 5.47A16.16 16.16 0 0 0 28 11.7c-4.52 0-8.56 1.79-11.53 4.76A16.16 16.16 0 0 0 11.7 28c0 4.52 1.79 8.56 4.76 11.53A16.16 16.16 0 0 0 28 44.3c4.52 0 8.56-1.79 11.53-4.76A16.16 16.16 0 0 0 44.3 28c0-4.52-1.79-8.56-4.76-11.53Z" fill="#000053"/><path d="M20 18h17v1H20v-1ZM22 16h12v1H22v-1ZM20 37h16v1H20v-1ZM22 39h12v1H22v-1ZM18 20h9v16h-9s1.2-2 3-2h3s1 0 1-1V22.99s0-.99-1-.99h-4s-2.11-.69-2-2ZM38 20h-9v16h9s-1.2-2-3-2h-3s-1 0-1-1V22.99s0-.99 1-.99h4s2.11-.69 2-2Z" fill="#000053"/></svg>