<!-- by TradingView --><svg width="56" height="56" viewBox="0 0 56 56" xmlns="http://www.w3.org/2000/svg"><path fill="#F0F3FA" d="M0 0h56v56H0z"/><path fill-rule="evenodd" d="M31.8 11h-7.6a3.17 3.17 0 0 0-3.2 3.11v26.78A3.17 3.17 0 0 0 24.2 44h7.6c1.78 0 3.2-1.42 3.2-3.11V14.11A3.17 3.17 0 0 0 31.8 11Zm0-1h-7.6c-2.31 0-4.2 1.85-4.2 4.11v26.78A4.17 4.17 0 0 0 24.2 45h7.6c2.31 0 4.2-1.85 4.2-4.11V14.11A4.17 4.17 0 0 0 31.8 10Z" fill="#2B2B2A"/><path d="M31 31h3v10.28c0 .94-.84 1.72-1.87 1.72H22v-2h8.38c.34 0 .62-.26.62-.57V31ZM20 45h16v1H20v-1Z" fill="#2B2B2A"/><path d="m28 33 2 2-2 2-2-2 2-2ZM28 37l2 2-2 2-2-2 2-2ZM24 24l4 3.46V31s-3.23-2.1-3.58-5.95L24 24ZM32 24l-4 3.46V31s3.23-2.1 3.58-5.95L32 24ZM24 20l4 3.46V27s-3.23-2.1-3.58-5.95L24 20ZM32 20l-4 3.46V27s3.23-2.1 3.58-5.95L32 20ZM24 16l4 3.46V23s-3.23-2.1-3.58-5.95L24 16ZM32 16l-4 3.46V23s3.23-2.1 3.58-5.95L32 16ZM28 14s.96 1.4 1 2.88a2.54 2.54 0 0 1-.97 2.11h-.06c-.23-.17-1-.85-.97-2.11.04-1.48 1-2.88 1-2.88Z" fill="#2B2B2A"/><path d="m23 28.46.5-.46 4.5 4.08L32.5 28l.5.46L28 33l-5-4.54Z" fill="#2B2B2A"/></svg>