<!-- by TradingView --><svg width="56" height="56" viewBox="0 0 56 56" xmlns="http://www.w3.org/2000/svg"><path fill="#F0F3FA" d="M0 0h56v56H0z"/><path d="M33.34 37.5H22.66c-.64 0-1.16.67-1.16 1.5s.52 1.5 1.16 1.5h10.68c.64 0 1.16-.67 1.16-1.5s-.52-1.5-1.16-1.5Z" fill="#FCDA5D"/><path d="M15.43 18.16c.48-1.02 1.47-3.09 1.52-3.16l.43 1.78.64-1.58c.67.88.51 3.18.35 4.22.77.67.32 3.09 0 4.2.99 1 .41 3.16 0 4.11 1.66 1.2.89 3.84.89 4 1.43 1.04 1.34 3.6 1.12 4.76 1.78 1.64 1.08 4.17.5 5.23.82 1.4 5.77 4.7 9.4 4.7 2.92 0 5.63-1.4 6.62-2.1-.36.9-2.26 2.68-6.93 2.68s-8.54-3.2-9.9-4.8c-.61.01-2.15-.24-3.36-1.29a3.67 3.67 0 0 1-1.32-2.99c-1.33-1.25-1.37-3.24-1.23-4.07-.83-1.19-.56-2.78-.32-3.43a4.09 4.09 0 0 1-.3-4.07l-.33-1.03a4.39 4.39 0 0 1 .63-3.93 4.87 4.87 0 0 1 1.4-4.61c-.14.22.07 1.01.19 1.38Z" fill="#FCDA5D"/><path d="M17.52 18.93c.25-1.08-.03-1.85-.2-2.1 1.43.96.6 3.21 0 4.21a6.28 6.28 0 0 1 .2-2.11Zm-2.17 1.77c.25-1.07-.03-1.85-.2-2.1 1.43.97.6 3.21 0 4.22a6.28 6.28 0 0 1 .2-2.12Zm2.61.14c.1.29.2 1.1-.32 2.09a6.24 6.24 0 0 0-.7 2c.82-.83 2.17-2.79 1.02-4.09Zm-2.56 4.7c-.14-1.1-.67-1.72-.92-1.9 1.67.38 1.68 2.78 1.48 3.94a6.25 6.25 0 0 1-.56-2.05Zm-1.82 2.05c.29.1.97.54 1.4 1.56.42 1.02.9 1.63 1.08 1.81-.11-1.16-.77-3.47-2.48-3.37Zm2.73 6c-.56-.96-1.3-1.3-1.6-1.35 1.69-.35 2.65 1.84 2.92 2.98-.2-.15-.75-.7-1.32-1.64Zm-.58 2.57c.3.05 1.03.4 1.6 1.34a6.11 6.11 0 0 0 1.32 1.64c-.27-1.14-1.24-3.33-2.92-2.98Zm2.9 4.02c-.76-.79-1.55-.94-1.85-.92 1.55-.75 3 1.15 3.52 2.19-.23-.1-.9-.49-1.66-1.27Zm-2.03-14.7c.18.25.46 1.02.2 2.1a6.28 6.28 0 0 0-.2 2.11c.6-1 1.43-3.25 0-4.21Zm1.44 1c.26-1.08-.02-1.86-.2-2.1 1.43.96.6 3.2 0 4.2a6.28 6.28 0 0 1 .2-2.1Zm-.32 3.08c.18.25.46 1.03.2 2.1a6.28 6.28 0 0 0-.2 2.12c.6-1 1.43-3.25 0-4.22Zm1.7 7.5c.12-1.1-.26-1.82-.46-2.05.31.16.54.37.7.63-.02-.32 0-.72.04-1.17.11-1.1-.27-1.83-.47-2.06 1.4.7 1.09 2.69.68 3.85.08.37.1.77.05 1.17 1.47.8.95 3.09.5 4.15a6.28 6.28 0 0 1-.09-2.12c.11-1.02-.2-1.72-.41-2-.07.66-.27 1.3-.45 1.73a6.28 6.28 0 0 1-.08-2.12Zm-.76-8.19c.17.25.45 1.02.2 2.1a6.28 6.28 0 0 0-.2 2.11c.6-1 1.42-3.24 0-4.2Z" fill="#E1A931"/><path d="M40.57 18.16c-.48-1.02-1.47-3.09-1.52-3.16l-.43 1.78-.64-1.58c-.67.88-.51 3.18-.35 4.22-.77.67-.32 3.09 0 4.2-.99 1-.41 3.16 0 4.11-1.66 1.2-.89 3.84-.89 4-1.43 1.04-1.34 3.6-1.12 4.76-1.78 1.64-1.08 4.17-.5 5.23-.82 1.4-5.77 4.7-9.4 4.7-2.92 0-5.63-1.4-6.62-2.1.36.9 2.26 2.68 6.93 2.68s8.54-3.2 9.9-4.8c.61.01 2.15-.24 3.36-1.29a3.67 3.67 0 0 0 1.32-2.99c1.33-1.25 1.37-3.24 1.23-4.07.83-1.19.56-2.78.32-3.43a4.09 4.09 0 0 0 .3-4.07l.33-1.03a4.39 4.39 0 0 0-.63-3.93 4.87 4.87 0 0 0-1.4-4.61c.14.22-.07 1.01-.19 1.38Z" fill="#FCDA5D"/><path d="M38.48 18.93c-.25-1.08.03-1.85.2-2.1-1.43.96-.6 3.21 0 4.21.04-.25.06-1.03-.2-2.11Zm2.17 1.77c-.25-1.07.03-1.85.2-2.1-1.43.97-.6 3.21 0 4.22.04-.26.06-1.04-.2-2.12Zm-2.61.14c-.1.29-.2 1.1.32 2.09.5.97.68 1.74.7 2-.82-.83-2.17-2.79-1.02-4.09Zm2.56 4.7c.14-1.1.67-1.72.92-1.9-1.67.38-1.68 2.78-1.48 3.94.13-.23.42-.95.56-2.05Zm1.82 2.05c-.29.1-.97.54-1.4 1.56a6.17 6.17 0 0 1-1.08 1.81c.11-1.16.77-3.47 2.48-3.37Zm-2.73 6c.56-.96 1.3-1.3 1.6-1.35-1.69-.35-2.65 1.84-2.92 2.98.2-.15.75-.7 1.32-1.64Zm.58 2.57c-.3.05-1.03.4-1.6 1.34a6.11 6.11 0 0 1-1.32 1.64c.27-1.14 1.24-3.33 2.92-2.98Zm-2.9 4.02c.76-.79 1.55-.94 1.85-.92-1.55-.75-3 1.15-3.52 2.19.23-.1.9-.49 1.66-1.27Zm2.03-14.7c-.18.25-.46 1.02-.2 2.1.25 1.08.24 1.86.2 2.11-.6-1-1.43-3.25 0-4.21Zm-1.44 1c-.26-1.08.02-1.86.2-2.1-1.43.96-.6 3.2 0 4.2.04-.25.06-1.03-.2-2.1Zm.32 3.08c-.18.25-.46 1.03-.2 2.1.25 1.08.24 1.86.2 2.12-.6-1-1.43-3.25 0-4.22Zm-1.7 7.5c-.12-1.1.26-1.82.46-2.05-.31.16-.54.37-.7.63.02-.32 0-.72-.04-1.17-.11-1.1.27-1.83.47-2.06-1.4.7-1.09 2.69-.68 3.85-.08.37-.1.77-.05 1.17-1.47.8-.95 3.09-.5 4.15.08-.25.2-1.02.09-2.12-.11-1.02.2-1.72.41-2 .07.66.27 1.3.45 1.73.08-.25.2-1.02.08-2.12Zm.76-8.19c-.17.25-.45 1.02-.2 2.1.26 1.08.24 1.86.2 2.11-.6-1-1.42-3.24 0-4.2Z" fill="#E1A931"/><path d="M32 18.46v13.08c0 .25.22.46.5.46s.5-.2.5-.46V18.46c0-.25-.22-.46-.5-.46s-.5.2-.5.46ZM23 18.46v13.08c0 .25.22.46.5.46s.5-.2.5-.46V18.46c0-.25-.22-.46-.5-.46s-.5.2-.5.46ZM26.02 25.13v-6.86c0-.15.1-.27.24-.27.12 0 .23.12.23.27v1.59l1.53 2.13v5.77c0 .13-.09.24-.2.24-.12 0-.21-.1-.21-.24v-.35l-1.59-2.28Z" fill="#25175D"/><path d="m27.82 22.1-1.53-1.97v5.02l1.53 2.1V22.1Z" fill="#F6C306"/><path d="M30 25.13v-6.86c0-.15-.1-.27-.23-.27s-.23.12-.23.27v1.59L28 21.99v5.77c0 .13.1.24.2.24.12 0 .21-.1.21-.24v-.35L30 25.13Z" fill="#25175D"/><path d="m28.2 22.1 1.53-1.97v5.02l-1.52 2.1V22.1Z" fill="#F6C306"/><path d="M24.51 31.61V19.43c0-.24.19-.43.42-.43.23 0 .42.2.42.43v6.97l2.15 2.25v6.04c0 .17-.08.3-.24.3-.17 0-.26-.13-.26-.3v-.5l-2.19-2.17a.42.42 0 0 1-.28-.28l-.02-.12Z" fill="#25175D"/><path d="M27.24 28.94 25 26.6v5.08l2.24 2.23v-4.98Z" fill="#F6C401"/><path d="M31.5 31.62v-12.2a.42.42 0 0 0-.42-.42c-.24 0-.42.2-.42.43v6.98l-2.16 2.24v6.06c0 .17.1.29.26.29.17 0 .24-.12.24-.3v-.5l2.2-2.17a.42.42 0 0 0 .28-.28l.01-.11v-.02Z" fill="#25175D"/><path d="M28.76 28.95 31 26.53v5.08l-2.24 2.32v-4.98Z" fill="#F6C401"/><path d="M28.01 12.08c-3.47 0-4.3 3.19-4.27 4.78h-1.61c0-1.3.18-2.28.26-2.56l.68.19.67-1.63-.45-.54 1.64-1.42.41.45 1.63-.59v-.63H29v.63l1.38.6.4-.46 1.57 1.42-.43.54 1.01 1.63.4-.2c.35.7.49 2.03.52 2.57h-1.77c.1-1.6-.6-4.78-4.07-4.78Z" fill="#2D1571"/><path fill-rule="evenodd" d="M22.14 16.86h1.6v-.13c.02-1.63.9-4.65 4.27-4.65 3.38 0 4.12 3.02 4.08 4.65v.13h1.76a8.67 8.67 0 0 0-.51-2.56l-.4.19-1.02-1.63.43-.54-1.56-1.42-.41.45-1.38-.59v-.63h-2v.63l-1.66.6-.4-.46-1.65 1.42.45.54-.67 1.63-.68-.2-.03.13c-.09.38-.22 1.3-.22 2.44Zm.84-2.53-.69-.2-.03.13c-.1.3-.26 1.2-.26 2.51V17h1.88v-.14c-.01-.78.19-1.95.8-2.92a3.7 3.7 0 0 1 3.33-1.73c1.68 0 2.67.77 3.25 1.73.58.97.72 2.13.68 2.91V17h2.05l.01-.24c-.01-.27-.07-.72-.15-1.19-.08-.47-.2-.97-.39-1.33l-.06-.12-.41.2-.9-1.46.45-.55-1.76-1.6-.45.48-1.19-.51V10h-2.32v.67l-1.43.53-.44-.5-1.85 1.6.47.58-.59 1.45Z" fill="#F6C306"/><path d="M23 34.74V33c.55.95 2.44 3 5 3s4.35-2.05 5-3v1.74A6.58 6.58 0 0 1 27.85 37 7.13 7.13 0 0 1 23 34.74Z" fill="#403E41" fill-opacity=".5"/><path d="M26.5 38v2h-3.61c-.5 0-.89-.45-.89-1s.4-1 .89-1h3.61ZM29.5 38v2h3.61c.5 0 .89-.45.89-1s-.4-1-.89-1H29.5Z" fill="#2D1274"/><path d="M26.5 37.89c0-.22.22-.39.5-.39s.5.17.5.39v2.22c0 .22-.22.39-.5.39s-.5-.17-.5-.39v-2.22ZM27.5 37.89c0-.22.22-.39.5-.39s.5.17.5.39v2.22c0 .22-.22.39-.5.39s-.5-.17-.5-.39v-2.22ZM28.5 37.89c0-.22.22-.39.5-.39s.5.17.5.39v2.22c0 .22-.22.39-.5.39s-.5-.17-.5-.39v-2.22Z" fill="#F1C00D"/><path d="M25.96 16a3.93 3.93 0 0 0-.46 2h-1c0-.72.1-1.71.6-2.53.53-.86 1.46-1.47 2.94-1.47 1.47 0 2.39.56 2.9 1.42.48.8.56 1.8.56 2.58h-1c0-.75-.08-1.5-.42-2.07-.3-.5-.86-.93-2.04-.93-1.16 0-1.75.45-2.08 1Z" fill="#98999D" fill-opacity=".8"/></svg>