<!-- by TradingView --><svg width="56" height="56" viewBox="0 0 56 56" xmlns="http://www.w3.org/2000/svg"><path fill="#F0F3FA" d="M0 0h56v56H0z"/><path fill-rule="evenodd" d="M28 45a17 17 0 1 0 0-34 17 17 0 0 0 0 34Zm0-1a16 16 0 1 0 0-32 16 16 0 0 0 0 32Z" fill="#423048"/><path fill-rule="evenodd" d="M43 28c0 2.13-.45 4.16-1.25 6h-27.5a14.95 14.95 0 0 1-.4-11h28.3c.55 1.56.85 3.25.85 5ZM28 43a15 15 0 0 1-13.27-8h26.54A15 15 0 0 1 28 43Zm13.75-21h-27.5a15 15 0 0 1 27.5 0Zm-9.88-6.65c0 .39-.86.6-1.29.65-.39.04-1.18 0-1.18-.39 0-.38.86-.54 1.28-.58.4-.06 1.2-.08 1.2.32Zm-4.08 1.42c-.21-.3-.23-.61-.22-.73-.05-.24.01-.7.64-.7.79 0 1.15 2.42 1.12 3.08-.03.53.12 1.14.19 1.38h.73c-.22-.2-.27-.56-.27-.83 0-.27.07-1.43 1.3-1.43.99 0 1.4.64 1.48.96v1.2c.12 0 .74-.13.74-.46s-.08-1.12-.13-1.35a1.66 1.66 0 0 0-.11-.26c-.25-.48-.7-1.38.11-1.38 1.03 0 1.27.97 1.27 2.62a2.21 2.21 0 0 1-1.6 2.13h-3.6c-1.24 0-1.2-1.33-1.17-2.23l.01-.35c0-.85-.23-1.28-.5-1.65Zm3.98 2.35c0 .27-.16.49-.37.49s-.38-.22-.38-.49.17-.48.38-.48c.2 0 .37.21.37.48Zm.63-2.36c0 .3-.27.54-.6.54-.34 0-.6-.24-.6-.54 0-.3.26-.54.6-.54.33 0 .6.24.6.54Zm-1.6.08c0 .3-.27.54-.6.54-.34 0-.6-.24-.6-.54 0-.3.26-.54.6-.54.33 0 .6.25.6.54Zm-12.12 1.38c.35-.07.54.11.6.22 0 .7-.28.93-.37 1l-.01.02c-.07.06.06.47.5.47.45 0 .77-.14 2.47-.89l.18-.07c1.49-.66 1.98-.78 2.04-.75-.05-.07-.08-.38.22-1.03.36-.82 1.2-1.5 1.62-1.5.42 0 1.02 1.14 1.02 1.6 0 .24-.12.43-.22.62-.09.15-.17.3-.18.46 0 .16.18.36.38.57.23.25.47.51.47.76 0 .45-.42 1.3-1.47 1.3-.83 0-1.37-.7-1.54-.98-.12-.2-.45-.62-.75-.62-.31 0-.58.1-.67.15-.67.48-2.25 1.45-3.23 1.45-1.22 0-1.74-.86-1.74-1.4 0-.54.25-1.3.68-1.38Zm6.6-.14c.2.04.42-.15.5-.44.09-.28 0-.55-.18-.6-.2-.04-.42.16-.5.44-.09.29 0 .55.19.6ZM26.2 20c.14-.15.03-.45-.26-.67-.3-.22-.64-.27-.79-.11-.14.15-.02.45.26.67.3.21.64.26.79.1Zm12.1-.47c.26-.01.54.24.66.37.07.08.34.49.1.64-.25.16-.68-.04-.93-.26-.26-.22-.15-.74.17-.75Zm-14.88.26c-.25-.01-.54.24-.65.37-.08.08-.35.5-.1.65.24.15.67-.04.92-.26.26-.22.15-.74-.17-.76Zm-2.83-1.25c.3.15 1.1.33 1.79-.06.7-.39.89-.84.9-1.02 0-.2-.13-.65-.59-.9-.45-.25-.74-.28-.83-.27-.2 0-.67.18-1.04.8-.46.8-.34 1.36-.23 1.45Zm1.47-.8c.2-.17.23-.41.08-.54-.14-.13-.4-.1-.6.07-.19.17-.22.4-.08.54.15.13.42.1.6-.07Zm-2.28.16c.31 0 .57-.23.57-.5 0-.29-.26-.51-.57-.51-.32 0-.57.22-.57.5s.25.51.57.51Zm4.33-1.69c0 .3-.27.54-.6.54-.34 0-.61-.24-.61-.54 0-.3.27-.54.6-.54.34 0 .6.24.6.54Zm11.85 2.6c0-.49-.74-1.16-1.11-1.44-.2-.16-.06-.86.44-.86.4 0 .77.44.9.65.36.38 1.06 1.3 1.06 1.9 0 .74-.62 1.54-.98 1.54-.28 0-.32-.3-.3-.45v-1.34Zm-8.35 7.38c-.01-.15.03-.48.3-.59v-.43a1.37 1.37 0 0 1-.41-.94c0-.57.55-.96.75-.96.2 0 .87.4.87 1.05v.78c-.03.14-.16.5-.42.76-.12.11-.19.22-.25.3-.11.17-.19.27-.43.27-.3 0-.4-.16-.41-.24Zm.63-1.64c.13 0 .24-.15.24-.33 0-.18-.1-.33-.24-.33-.13 0-.24.15-.24.33 0 .18.1.33.24.33Zm-10.63.53c-.2-.4-.48-.44-.6-.42-.15.03-.44.29-.34 1.06.1.77.7 1.15 1 1.27h6.83c.72 0 .88-.48.87-.74v-1.74c0-.45-.1-1-.48-1s-.61.6-.61.74c0 .11.03.32.05.41.13.08.38.26.38.42 0 .15-.14.8-.2.91h-6.58l-.05-.15c-.05-.18-.14-.5-.27-.76Zm-.98 4.17c.15.27.44.65.74.65s.51-.48.6-.8a.25.25 0 0 0-.02-.2c-.17-.27-.48-.66-.73-.66-.26 0-.5.48-.61.8a.25.25 0 0 0 .02.21Zm3.4.86c-.53.34-1.75 1.07-2.48 1.28-.91.25-.8 1.25.84 1.25 1.64 0 2.74-1.54 2.96-2.04l.05-.1c.22-.48.53-1.14.03-1.73l-.34-.41c-.42-.54-.84-1.08-1.35-1.08-.65 0-1.14 1.12-1.14 1.78 0 .66.89 1.16 1.43 1.05Zm-.23-1.04a.4.4 0 0 0 .4-.4.4.4 0 0 0-.4-.4.4.4 0 0 0-.4.4c0 .22.18.4.4.4Zm2.93-1.56c-.1.03-.6.8-.6 1.61s.4 1.09.82 1.09c.43 0 .65-.4.65-.75 0-.19-.25-.42-.49-.59a.35.35 0 0 1-.1-.44c.08-.16.16-.36.16-.52 0-.34-.37-.48-.44-.4Zm1.84 2.72c-.19.2-1.1.66-1.55.87-.86 0-.98 1.35 0 1.35.99 0 1.49-.16 2.09-.73.5-.47.63-1.23.68-1.5 0-.05.01-.08.02-.09.01-.03.1-.04.27-.05l.42-.04c.18-.03.38-.17.6-.34.31-.24.68-.53 1.17-.53.83 0 1.48-.17 1.48-1.26 0-.91-.83-.89-1.49-.87h-.34c-.35 0-.46-.13-.58-.27-.11-.12-.22-.25-.52-.27-.62-.05-.98.74-.9 1.14.07.32.97.46 1.42.49-.47.27-1.5.75-1.88.58-.25-.12-.32-.39-.38-.63-.06-.22-.1-.42-.29-.44-.37-.06-.61.21-.78.6-.17.37-.04.74.5 1.1.53.38.3.64.06.9Zm1 2.09c.02.31.15.36.22.35.17 0 .25-.18.34-.38.13-.28.27-.6.7-.6.33 0 .42.15.51.33.12.22.24.46.85.46.7 0 .93-.6 1.1-1.04.09-.24.16-.43.28-.43.15 0 .35.13.56.26.24.15.5.32.75.32.46 0 1.06-.48 1.06-1.69 0-1.2-.46-1.7-1.06-1.7-.48 0-.84.56-.96.84-.3.63-1.06 1.9-1.67 1.9-.37 0-.48-.12-.6-.23-.12-.12-.25-.24-.68-.24-.84 0-1.4 1.45-1.4 1.85Zm5.38-2.43c0 .24-.12.42-.26.42-.15 0-.27-.18-.27-.42 0-.23.12-.42.27-.42.14 0 .26.2.26.42Zm-1.9-.13c0-.3-.37-.38-.55-.4-.23 0-.6.17-.6.4s.15.61.5.61c.34 0 .66-.24.66-.6Zm1.37-3.62 1.63 2.56c.5.81.97 1.06.8-.38-.15-1.15-1.1-2.7-1.57-3.34-.1-.14-.35-.4-.55-.4-.24 0-.7.73-.31 1.56Zm3.29 3.14c0-.6-.38-1.62-.57-2.05-.4-1.16.3-2.3.84-2.3.43 0 .41.36.36.54v3.59c0 1.71.53 1.75 1.17 1.75.37 0 .53-.24.67-.46.1-.16.2-.31.37-.31.27 0 .26.05.24.31-.02.11-.03.26-.03.46 0 .54.2.48.3.38.63-.67.97-.62 1.18-.18.2.44.65.34.49 0-.16-.35.04-1.38.41-1.38s.67.52.67 1.18c0 .61-.01.63-.42 1.25l-.13.2c-.42.65-.91.42-1.1.23-.22-.24-.7-.6-1-.14-.35.58-.85.49-1.1.14-.25-.35-.48-.55-.8-.14-.3.42-.88.82-1.28-.22s-.77-.43-1 0l-.02.04c-.24.43-.64 1.18-1.62 1.18-1.02 0-1.28-.13-1.28-.51v-.08c0-.32 0-.4 1.46-.82a3.04 3.04 0 0 0 2.19-2.66Zm1.86-4.46c-.27.29-.65.94-.07 1.28.58.33.9.46.98.48.16-.23.54-.72.76-.79.27-.08.76-.39.76-.77 0-.39-.34-.58-.63-.3l-.2.23c-.2.25-.4.5-.77.5-.22 0-.25-.13-.3-.26-.04-.17-.1-.37-.53-.37Zm3.26.56c-.4.55-2.06 2.08-2.76 2.73-.2.17-.32.29-.32.3-.13.27-.37.88.84.37 1.22-.51 3.13-3.18 3.15-3.32.03-.14-.4-.79-.91-.08Zm-1.26 3.3c-.02-.07-.04-.21.19-.21.13 0 .19.04.25.08.07.05.14.1.31.1.33 0 .5-.34.36-.55-.14-.2 0-.83.3-.83.16 0 .15.19.14.37 0 .13-.01.25.03.32.06.1.19.04.32-.02.13-.05.27-.11.37-.06.22.12.47.5.1.86-.24.26-.44.15-.63.06a.82.82 0 0 0-.25-.1c-.13-.02-.24.09-.37.2-.15.15-.33.32-.58.32-.38 0-.52-.35-.54-.52v-.02Zm2-1.94c-.2.29 0 .49.09.56.24 0 .26-.04.33-.2l.1-.2c.2-.34-.34-.45-.53-.16Zm-20.65 9.67.53.19c.27.1.52-.02.52-.47 0-.44-.41-.78-.94-.78s-.84.7-.84 1.2c0 .4.5.87.76 1.07.15.12.57.36 1.07.36.5 0 1.11-.56 1.35-.84.23-.17.8-.5 1.32-.5.65 0 .61.26.53.46-.08.2-.15.64.46.64.49 0 .5-.34.44-.5-.1-.12-.28-.39-.22-.53.07-.17.68-.03.68.68 0 .54-.29.56-.62.58l-.33.04c-.45.1-.45.39-.45.58 0 .18.06.37.72.37.65 0 1.77-.62 1.77-1.34 0-.4-.06-.48-.12-.56-.04-.06-.09-.12-.09-.35.03-.06.11-.22.27-.38.19-.2.13-.49-.27-.47-.15.01-.24.06-.32.1-.11.05-.2.1-.42-.03a3.48 3.48 0 0 0-1.4-.25h-.05c-.41 0-1.72-.02-3.3 1.3-.21.1-.69.22-.87-.06-.18-.28-.2-.46-.18-.51Zm.76 1.96c.1-.04.33-.05.54.22.27.33.22.85.09.94-.13.09-.61-.07-.75-.37s-.15-.7.12-.79Zm2.45-.5c.15 0 .22.16.24.24-.12.33-.04 1.06 1.25 1.32 1.01.21 1.71-.44 2.26-.95.32-.3.59-.55.83-.55.33 0 .49.1.66.18.17.1.36.2.75.2.6 0 1.12-.54 1.3-.8l.26-.39c.47-.72 1.08-1.66 1.9-1.66 1 0 1.12.96 1.12 1.01 0 1.43-1.36 2.25-2.03 2.65l-.2.13c-.44.28.1.29.42.26 1.1-.26 1.85-1.16 2.59-2.03.8-.96 1.58-1.88 2.72-1.88 1.76 0 1.69 1.03 1.44 1.54-.29.52-1.09 1.55-1.98 1.55-.9 0-1.1-.31-1.1-.47-.7 1.13-2.86 2.89-4.32 2.89-.84 0-1.24-.57-1.58-1.06-.25-.36-.47-.68-.82-.68-.37 0-1.11.32-1.92.67-.95.4-2 .86-2.61.86-1.14 0-1.87-.7-1.87-1.53 0-.84.5-1.5.7-1.5ZM27.14 40c.03-.03.27-.33.62-.1s.5.76.49 1.07c-.01.31-.47.65-.71.65s-.49-.07-.49-.4c0-.25.17-.4.25-.44-.17-.17-.44-.57-.16-.78Zm-.26-3.44c-.03.1-.02.37.29.66.38.35.49.42.83.42.27 0 .64-.36.8-.54a.72.72 0 0 0 .22-.54c0-.3-.26-.59-.39-.7-.07-.11-.28-.35-.56-.35s-.72.31-.9.47c-.1.07-.3.27-.3.58Zm1.01.14c.22 0 .4-.12.4-.27 0-.15-.18-.28-.4-.28-.21 0-.38.13-.38.28 0 .15.17.27.38.27Zm10.73.47a.6.6 0 0 0 .59-.6.6.6 0 0 0-.6-.6.6.6 0 0 0-.59.6c0 .34.27.6.6.6Z" fill="#423048"/></svg>