<!-- by TradingView --><svg width="56" height="56" viewBox="0 0 56 56" xmlns="http://www.w3.org/2000/svg"><path fill="#F0F3FA" d="M0 0h56v56H0z"/><path d="M9.75 25.49A9.64 9.64 0 0 0 8 23.79c.58-.47 1.93-1.6 2.65-2.37.56-.61 1.52-1 2.26-1.3.42-.17.77-.3.92-.44.2-.18.27-.13.47-.02.22.12.57.31 1.37.38 1.22.11 2.96-1.87 3.68-2.88.47.03 1.73.08 2.91 0 .85-.05 1.54-.81 2.21-1.56.5-.55.98-1.09 1.51-1.32 1-.44 2.36-.4 2.92-.32l2.55-.96c-.18 2.01 2.16 2.47 3.23 2.38.86-.07 1.86.55 2.24.87l9.91 6.5-4.39-2.3 5.56 4.4-11.52-6.27c1.9 1.36 5.89 4.17 6.68 4.57.37.2.6.49.76.79l.1-.04-.01.26c.1.27.13.52.13.69l-.16-.1-.31 6.02-.35-6.39-2.8-1.59-.32 7.01-.35-7.39-4.42-2.5-.3 6.63-.33-6.98-4.1-2.3-.34 11.8-.35-12.07.07-.05-.2-.1c-.34-.14-.68.15-1.05.45-.36.3-.75.63-1.19.6-.2 0-.4-.05-.63-.1-.64-.14-1.35-.3-1.9.34l-.35 9.33-.32-8.09c-.5.77-1.17.82-2.43.9-.44.03-.95.06-1.55.13l-.32 5.31-.33-5.21c-1.46.28-1.99 1.15-2.43 1.89-.37.61-.69 1.13-1.44 1.13-1.7 0-3.41.96-4 1.33-.3.19-.54.62-.76 1-.2.34-.36.64-.53.69-.26.06-.38-.15-.59-.53a8.25 8.25 0 0 0-.31-.52Z" fill="#000E6F"/><path fill-rule="evenodd" d="M30.39 33.55c.9 0 .98-.83 1-1.25 0-.6-.28-.89-.54-.89-.21 0-.34.24-.38.36-.13-.01-.37-.14-.37-.57 0-.52.46-.83 1.01-.83.37 0 .38.24.38.42a1 1 0 0 0 .01.1v4.28c-.3.19-.65.68-.65 1.1 0 .4.4.65.6.73h3.46c.11.09.41.27.67.27.25 0 .4-.24.44-.36.11-.22.4-.82.7-1.52.37-.88-.01-1.22-.37-1.22-.28 0-.54.22-.64.33l-.8.8H33v-1.75h1.21c.17.34.64.94 1.12.62.47-.32.45-.74.38-.92l-.54-1.33a.79.79 0 0 0-.72-.5c-.44 0-.52.35-.5.58H33v-1.63h1.63c.53.72 1.35 1.25 1.72.7.3-.42-.05-1.33-.26-1.74-.07-.26-.31-.8-.76-.83-.45-.03-.78.32-.88.5H31.1c-1.38 0-2.46.58-2.46 2.08s.6 2.47 1.74 2.47ZM28 33c0 2.2-1.57 4-3.5 4S21 35.2 21 33s1.57-4 3.5-4 3.5 1.8 3.5 4Zm-1.5 0c0 1.38-.9 2.5-2 2.5s-2-1.12-2-2.5.9-2.5 2-2.5 2 1.12 2 2.5Zm-13.14-.8c.04.5-.17 1.48-1.38 1.48-1.52 0-1.85-1.07-1.85-2.44 0-1.37 1.08-2.24 2.87-2.24h1.93c.22-.03.68.11.8.93.14.82.43 1.07.56 1.08.13-.07.43-.36.56-.98.16-.77.24-1.03.76-1.03h1.73c.24 0 .72.11.72.6 0 .5-.75.84-1.06.96v3.82c.16.03.67.16.9.38.26.29.2.69-.21 1.07-.34.31-1.19 1.19-1.57 1.59-.38.11-1.13.16-1.13-.62 0-.77.27-1.13.51-1.2v-3.67l-.5 1.32a.85.85 0 0 1-.71.43c-.38 0-.53-.37-.55-.56l-.74-1.2v3.01c-.02.32-.3 1.1-.93 1.72-.8.77-1.46 1.35-2.46 1.35-.99 0-1.61-.37-1.61-1.27s1.05-.9 1.51-.9h.96c.43-.3 1.03-1.09 1.03-1.8V31.1c-.02-.28-.04-.74-.76-.74-.97 0-1.13.88-1.13.88-.02.23.03.69.47.69.17 0 .34-.08.5-.16.34-.16.62-.29.78.43Zm26.55.98c-.04.28-.14.83-.64.83-.63 0-1.27-1.45-1.27-2.62 0-1.17.92-2.39 3.14-2.39S45 30.5 45 33.1c0 2.6-1.8 3.9-3.76 3.9H39.7a.77.77 0 0 1-.54-.76c0-.5.5-.85.84-.96v-3.15c-.16-.12-.3-.43-.3-.74 0-.38.28-.39.54-.39h.9c.19 0 .79.04.79.5 0 .57-.43.56-.43.56v3.22c.84.11 2-.15 2-2.11 0-2.45-1.74-2.69-2.82-2.69-1.1 0-1.75.86-1.58 1.32.06.17.2.29.33.42.23.2.48.43.48.96Z" fill="#CD1617"/></svg>