<!-- by TradingView --><svg width="56" height="56" viewBox="0 0 56 56" xmlns="http://www.w3.org/2000/svg"><path fill="#F0F3FA" d="M0 0h56v56H0z"/><path d="m20.53 23.2-4.2-10.23c.85.16 2.78.56 3.63.96.17-.62.77-1.9 1.83-2.07a3.4 3.4 0 0 1 3.33 1.4l1.9-2.82v19.93c-3.34-1.26-5.72-5.3-6.49-7.17Z" fill="#CEDCC3"/><path fill-rule="evenodd" d="m16.4 12.55-.78-.14 4.5 10.95c.4.96 1.2 2.47 2.34 3.9a10.75 10.75 0 0 0 4.4 3.5l.6.23V9l-2.38 3.54a3.82 3.82 0 0 0-3.37-1.1c-.7.11-1.2.58-1.53 1.04-.21.3-.37.6-.49.88-.42-.15-.94-.3-1.44-.42-.7-.17-1.41-.3-1.85-.39Zm8.72.72 1.88-2.5v6.55a15.93 15.93 0 0 0-2.99-1.97l1.1-2.08Zm-.3-.37-1.2 2.24a43.13 43.13 0 0 0-3.52-1.62c.27-.65.83-1.52 1.69-1.66a3.39 3.39 0 0 1 3.03 1.04Zm-4.88 1.02h.02c.93.39 2.3.99 3.62 1.68 1.38.73 2.69 1.55 3.42 2.33v.76c-3.31-2.89-8.1-4.35-10.28-4.76l-.4-.96a26.59 26.59 0 0 1 3.4.85l.22.1Zm-3.03.49.54 1.3c2.03.38 6.39 1.37 9.55 4.24v-.68c-3.1-2.87-7.77-4.38-10.09-4.86ZM27 20.54c-2.95-2.86-7.17-3.93-9.36-4.36l.48 1.16c1.99.36 5.76 1.17 8.88 3.97v-.77Zm0 1.36c-2.95-2.8-6.6-3.69-8.69-4.1l.56 1.35c1.46.14 5 1.16 8.13 3.85v-1.1Zm0 1.67a16.53 16.53 0 0 0-7.95-3.97l.63 1.52c.52-.03 1.41.1 2.61.56 1.25.48 2.84 1.31 4.71 2.7v-.8Zm0 1.36a20.04 20.04 0 0 0-4.87-2.85 6.92 6.92 0 0 0-2.28-.54l.46 1.13c1.34.08 4.26.92 6.69 3.27v-1.02Zm0 1.62a11.51 11.51 0 0 0-6.5-3.44l.03.09c.15.35.35.78.6 1.26 1.14.05 3.51.68 5.87 2.8v-.7Zm0 1.3a10.37 10.37 0 0 0-5.61-2.94c.24.41.52.85.82 1.3 1.04.05 3.14.68 4.79 2.47v-.82Zm0 1.5a7.55 7.55 0 0 0-4.45-2.68 11.17 11.17 0 0 0 4.1 3.55l.35.15v-1.03Z" fill="#52A55D"/><path d="m35.47 23.2 4.2-10.23c-.85.16-2.78.56-3.63.96-.17-.62-.77-1.9-1.83-2.07a3.4 3.4 0 0 0-3.33 1.4l-1.9-2.82v19.93c3.34-1.26 5.72-5.3 6.49-7.17Z" fill="#CEDCC3"/><path fill-rule="evenodd" d="m39.6 12.55.78-.14-4.5 10.95c-.4.96-1.2 2.47-2.34 3.9a10.75 10.75 0 0 1-4.4 3.5l-.6.23V9l2.38 3.54a3.82 3.82 0 0 1 3.37-1.1c.7.11 1.2.58 1.53 1.04.21.3.37.6.49.88.42-.15.94-.3 1.44-.42.7-.17 1.41-.3 1.85-.39Zm-8.72.72L29 10.69v6.63c.76-.68 1.86-1.36 2.99-1.97l-1.1-2.08Zm.3-.37 1.2 2.24a43.13 43.13 0 0 1 3.52-1.62c-.27-.65-.83-1.52-1.69-1.66a3.39 3.39 0 0 0-3.03 1.04Zm4.88 1.02h-.02c-.93.39-2.3.99-3.62 1.68A14.16 14.16 0 0 0 29 17.93v.76c3.31-2.89 8.1-4.35 10.28-4.76l.4-.96a26.59 26.59 0 0 0-3.4.85 32 32 0 0 0-.22.1Zm3.03.49-.54 1.3c-2.03.38-6.39 1.37-9.55 4.24v-.68c3.1-2.87 7.77-4.38 10.09-4.86ZM29 20.54c2.95-2.86 7.17-3.93 9.36-4.36l-.48 1.16c-1.99.36-5.76 1.17-8.88 3.97v-.77Zm0 1.36c2.95-2.8 6.6-3.69 8.69-4.1l-.56 1.35c-1.46.14-5 1.16-8.13 3.85v-1.1Zm0 1.67a16.53 16.53 0 0 1 7.95-3.97l-.63 1.52c-.52-.03-1.41.1-2.61.56a20.06 20.06 0 0 0-4.71 2.7v-.8Zm0 1.36c1.96-1.5 3.6-2.37 4.87-2.85a6.92 6.92 0 0 1 2.28-.54l-.46 1.13A11.7 11.7 0 0 0 29 25.94v-1.02Zm0 1.62a11.51 11.51 0 0 1 6.5-3.44l-.03.09c-.15.35-.35.78-.6 1.26-1.14.05-3.5.68-5.87 2.8v-.7Zm0 1.3a10.37 10.37 0 0 1 5.61-2.94c-.24.41-.52.85-.82 1.3-1.04.05-3.14.68-4.79 2.47v-.82Zm0 1.5a7.55 7.55 0 0 1 4.45-2.68 11.17 11.17 0 0 1-4.1 3.55l-.35.15v-1.03Z" fill="#52A55D"/><path fill-rule="evenodd" d="m18 21.6.45-.42V28h.44v-6.24c.12.33.25.7.4 1.07V28h.44v-4.14l.3.64V28h.43v-2.68c.16.28.32.55.5.82V28h.42v-1.22l.48.62a7.03 7.03 0 0 0-1.14 3.84A7.22 7.22 0 0 0 28 38.4c4.02 0 7.28-3.2 7.28-7.15 0-1.44-.44-2.79-1.19-3.92l.55-.78V28h.44v-2.14l.45-.74V28h.43v-3.65l.34-.64V28h.44v-5.18l.4-.9V28h.44v-6.8l.45.44V28h.43v-5.9l.35.4V28h.44v-4.95l.4.55V28h.43v-3.71c.13.21.26.43.37.66V28h.44v-2.14c.71 1.66 1.11 3.47 1.11 5.38C42 38.84 35.73 45 28 45s-14-6.16-14-13.76c0-1.88.38-3.67 1.08-5.3V28h.43v-2.98c.14-.26.28-.53.44-.78V28h.44v-4.44l.41-.58V28h.43v-5.55l.34-.38V28H18v-6.4Zm14.6 17.43a.4.4 0 0 0 .4-.4.4.4 0 0 0-.4-.4.4.4 0 0 0-.4.4c0 .22.18.4.4.4Zm-.68 4.51a.4.4 0 0 0 .4-.4.4.4 0 0 0-.4-.39.4.4 0 0 0-.4.4c0 .22.18.4.4.4Zm1.24-.83a.4.4 0 0 1-.4.4.4.4 0 0 1-.4-.4c0-.22.17-.4.4-.4.22 0 .4.18.4.4Zm-3.23-.56c-.14.3-.73.46-1 .5.35 1.46 1.41.43 1.8.05a.68.68 0 0 1 .15-.12 170 170 0 0 0 4.17-1.74l-1.61-1.89-.54.47.93.8a1.7 1.7 0 0 1-.93.62c-.55.17-.94-.34-1.08-.62l-.31.2c.2.27.37.73 0 .83-.22.06-.58.05-.85.02a.87.87 0 0 0-.86-1.05.87.87 0 0 0-.88.87.87.87 0 0 0 1.03.85l-.02.21Zm-.13-.69c.21 0 .38-.16.38-.37 0-.2-.17-.38-.38-.38a.38.38 0 0 0-.38.38c0 .2.17.37.38.37Zm-7.73-2.43Zm-.07.05a4 4 0 0 0-1.08 1.47c0 .1.05.3.38.44.32.14 2.16 1.1 3.04 1.56.39-.69 1.02-2.2.41-2.75a.55.55 0 0 0-.41.17c-.1.1-.07.32-.04.55.02.24.05.5-.06.61l-2.46-1.05c-.02-.26.01-.8.22-1Zm.24 3.78a.4.4 0 0 0 .4-.4.4.4 0 0 0-.4-.4.4.4 0 0 0-.4.4c0 .22.18.4.4.4Zm3.04-.32.66-3.17.76.14-.76 3.24-.66-.21Zm1.57-1.1c.06.1.28.33.7.33.54 0 .54-.7-.08-1.07-.06-.14-.08-.44.36-.44.56 0 .56 1.4.56 1.8 0 .39-.22.65-.74.65-.53 0-1.22-.3-.8-1.28Z" fill="#CB0504"/><path d="m23.55 32.3-1.47 1.62c.72 1.17 2.87 3.5 5.66 3.5a7.42 7.42 0 0 0 6.19-3.5l-1.91-1.63-1.36 1.3-1.53-1.3-1.39 1.3-1.51-1.3-1.3 1.3-1.38-1.3Z" fill="url(#aitupo5vh)"/><path d="M35.54 31.67c0-2.44-.85-3.8-1.44-4.36l-.58.62c.43.4 1.18 1.54 1.18 3.74 0 .1 0 .22-.02.33H33l1.25 1.3a6.34 6.34 0 0 1-6.19 4.37 6.63 6.63 0 0 1-6.34-4.38l1.1-1.29h-1.5l-.02-.33c0-2.2.68-3.48 1.05-3.9l-.62-.57c-.52.58-1.27 2.07-1.27 4.47 0 3.07 2.7 6.98 7.36 6.98 4.63 0 7.72-3.85 7.72-6.98Zm-5.58.33h1.3l-.57.72-.73-.72Zm-2.9 0h1.2l-.51.72-.68-.72Zm-2.7 0h1.04l-.54.72-.5-.72Z" fill="#000160"/><defs><linearGradient id="aitupo5vh" x1="28" y1="32.29" x2="28" y2="37.42" gradientUnits="userSpaceOnUse"><stop offset=".06" stop-color="#000160"/><stop offset=".27" stop-color="#000160" stop-opacity="0"/><stop offset=".44" stop-color="#000160"/><stop offset=".64" stop-color="#000160" stop-opacity="0"/><stop offset=".79" stop-color="#000160"/><stop offset="1" stop-color="#000160" stop-opacity="0"/></linearGradient></defs></svg>