<!-- by TradingView --><svg width="56" height="56" viewBox="0 0 56 56" xmlns="http://www.w3.org/2000/svg"><path fill="#F0F3FA" d="M0 0h56v56H0z"/><path d="M28 42.15c7.8 0 14.13-6.3 14.13-14.06A14.1 14.1 0 0 0 28 14.04a14.1 14.1 0 0 0-14.13 14.05A14.1 14.1 0 0 0 28 42.15ZM14.17 27h3.99v1h-4v-1Zm23.75 0h3.97v1h-3.97v-1Z" fill="#E6B229"/><path fill-rule="evenodd" d="M28 41.65a13.6 13.6 0 0 0 13.63-13.56A13.6 13.6 0 0 0 28 14.54a13.6 13.6 0 0 0-13.63 13.55A13.6 13.6 0 0 0 28 41.65Zm0 .5c7.8 0 14.13-6.3 14.13-14.06A14.1 14.1 0 0 0 28 14.04a14.1 14.1 0 0 0-14.13 14.05A14.1 14.1 0 0 0 28 42.15Z" fill="#39393C"/><path d="M31.56 17.52c-1.1-.37-2.28-.57-3.51-.57V16c1.33 0 2.61.22 3.81.61l-.3.9Zm-5.1-.45a11.1 11.1 0 0 0-5.93 2.8l-.64-.7a12.05 12.05 0 0 1 6.43-3.05l.13.95Zm10.52 4.37a11.14 11.14 0 0 0-4.47-3.56l.38-.88a12.1 12.1 0 0 1 4.86 3.87l-.77.57Zm-17.16-.85a10.98 10.98 0 0 0-2.77 5.87l-.94-.13a11.93 11.93 0 0 1 3-6.39l.7.65Zm19.23 5.87a10.94 10.94 0 0 0-1.6-4.35l.8-.5c.9 1.4 1.5 3 1.74 4.72l-.94.13Zm-22.1 2.01a11.08 11.08 0 0 0 11.1 10.58c5.85 0 10.64-4.5 11.07-10.2l.95.07A12.04 12.04 0 0 1 28.05 40C21.56 40 16.27 34.9 16 28.51l.95-.04Z" fill="#39393C" fill-opacity=".7"/><path fill-rule="evenodd" d="M28 37.5a9.5 9.5 0 1 0 0-19 9.5 9.5 0 0 0 0 19Zm0 .5a10 10 0 1 0 0-20 10 10 0 0 0 0 20Z" fill="#39393C"/><path d="M37 28a9 9 0 1 1-18 0 9 9 0 0 1 18 0Z" fill="#F0F3FA"/><path fill-rule="evenodd" d="M28 36.5a8.5 8.5 0 1 0 0-17 8.5 8.5 0 0 0 0 17Zm0 .5a9 9 0 1 0 0-18 9 9 0 0 0 0 18Z" fill="#39393C"/><path d="M27.4 11c0 .48-.69 2.34-1.02 3.21h2.66a16.1 16.1 0 0 1-.89-3.2c0-.5.33-1.4.36-1.93.03-.52-.23-1.11-.59-1.08-.36.03-.76.23-.76 1.08 0 .85.23 1.34.23 1.93ZM27.5 45c0-.48-.67-2.34-1.01-3.21h2.66c-.34.63-.73 2.4-.89 3.2 0 .5.33 1.4.36 1.93.04.52-.23 1.11-.59 1.08-.36-.03-.75-.23-.75-1.08 0-.85.23-1.34.23-1.93ZM38.47 14.7c-.28.38-1.95 1.46-2.75 1.95l2.12 1.6c.1-.7.87-2.36 1.23-3.1.3-.38 1.12-.92 1.46-1.31.35-.4.5-1.03.18-1.22-.3-.19-.74-.27-1.25.4-.52.69-.63 1.22-.99 1.69ZM41.64 38.28a18.7 18.7 0 0 0-3.18-1.13l1.61-2.1c.3.64 1.48 2.02 2.03 2.63.4.3 1.32.6 1.76.89.44.29.75.85.5 1.12-.24.26-.63.46-1.31-.06-.68-.51-.94-1-1.4-1.35ZM16.1 15.86c.34.33 2.16 1.14 3.03 1.5l-1.86 1.9c-.21-.68-1.22-2.2-1.7-2.86-.35-.34-1.24-.74-1.64-1.09-.4-.34-.64-.93-.37-1.17.28-.23.7-.38 1.31.21.61.6.8 1.1 1.23 1.5ZM16.4 40.56c.34-.33 2.15-1.14 3.02-1.5l-1.85-1.9c-.22.68-1.22 2.2-1.7 2.86-.35.34-1.24.75-1.64 1.09-.4.34-.65.93-.37 1.17.27.23.7.38 1.3-.21.62-.6.81-1.1 1.24-1.5ZM44.97 27.89c-.47 0-2.34.67-3.22 1.01v-2.65c.63.34 2.41.73 3.22.89.5 0 1.42-.33 1.94-.36.53-.04 1.12.23 1.09.59-.03.35-.23.75-1.09.75-.85 0-1.34-.23-1.94-.23ZM11.03 28.15c.47 0 2.34.68 3.22 1.02v-2.65c-.63.34-2.41.73-3.22.88-.5 0-1.42-.33-1.94-.36-.53-.03-1.12.23-1.09.59.03.36.23.75 1.09.75.85 0 1.34-.23 1.94-.23Z" fill="#39393C"/><path d="M26.82 31.38a.64.64 0 0 1 .24-.08c.12-.02.26-.03.42-.02.32.02.66.11.92.3.21.15.46.18.7.16.23 0 .49-.06.73-.11h.02c.25-.06.5-.1.72-.12.23-.02.42 0 .59.09l.19-.39a1.6 1.6 0 0 0-.8-.13c-.27.02-.54.08-.8.13-.25.05-.47.1-.67.11-.2.01-.33-.02-.43-.09a2.24 2.24 0 0 0-1.66-.35c-.16.03-.3.07-.41.15-.1.07-.33.16-.65.2-.32.05-.73.05-1.22-.03-.46-.08-.97.04-1.4.2-.44.17-.83.4-1.05.55l.24.35c.2-.14.56-.35.96-.5.4-.15.83-.24 1.18-.19.52.1.98.1 1.35.05.36-.05.65-.16.83-.28Zm.2.77c.03-.02.1-.05.21-.07.1-.02.24-.03.38-.02.29.02.6.1.84.3.2.14.44.17.66.16.22-.01.45-.06.67-.11h.02c.24-.06.46-.11.67-.12.2-.02.38 0 .52.08l.2-.37a1.4 1.4 0 0 0-.75-.14c-.25.02-.5.08-.73.13-.24.05-.44.1-.62.1-.18.02-.3-.01-.38-.07a2 2 0 0 0-1.56-.36.94.94 0 0 0-.39.15c-.1.08-.29.16-.58.2-.3.05-.67.05-1.12-.03a2.4 2.4 0 0 0-1.31.2c-.4.17-.76.4-.97.56l.26.33c.18-.14.5-.34.87-.5a2 2 0 0 1 1.07-.18c.5.1.92.1 1.26.04.34-.05.61-.15.78-.28Zm.3.62a.44.44 0 0 0-.17.07c-.32.26-1 .42-1.9.24-.27-.05-.61.03-.95.19-.34.15-.63.35-.8.49l-.27-.33c.19-.15.52-.38.89-.55.37-.17.81-.3 1.22-.21.82.17 1.36-.01 1.53-.16.1-.08.23-.13.37-.16.14-.03.3-.04.46-.02.32.02.69.13.99.39.07.05.17.08.32.07.17 0 .35-.05.57-.1.2-.06.44-.12.67-.13.23-.02.48 0 .7.13l-.2.37a.8.8 0 0 0-.47-.08c-.19.01-.39.06-.6.11h-.02c-.2.06-.42.11-.62.12a.86.86 0 0 1-.63-.17 1.33 1.33 0 0 0-1.08-.27Zm-.07.82a.4.4 0 0 1 .16-.05c.08-.02.19-.03.3-.02.23.02.48.1.67.24.17.14.38.17.57.15.18 0 .38-.05.56-.1h.02c.2-.04.37-.08.54-.1.16 0 .3.01.4.07l.21-.37c-.2-.11-.43-.13-.64-.12-.21.02-.42.07-.61.11l-.5.1c-.14 0-.23-.02-.29-.07a1.65 1.65 0 0 0-1.31-.3.8.8 0 0 0-.34.13c-.07.05-.22.12-.46.16-.24.04-.55.04-.9-.03-.38-.07-.78.04-1.11.18-.34.14-.64.33-.81.47l.26.33c.15-.11.42-.28.71-.41.3-.13.61-.2.86-.16.4.08.76.08 1.05.04.28-.04.51-.13.66-.25Z" fill="#4489C3"/><path fill-rule="evenodd" d="m23.24 31.58-.82-1.25.82-.94-.14-.27-.9.84-.43-1.36L23.4 26H24v.57l1.61 1.78v1.04l.39.4v1.25l-.6.54v-.79l-1.7-1.19.42 1.71-.88.27Zm.23-2.8v-1.5l2.04 2.44v.53l-2.04-1.47Zm-1-.59h.39v.39h-.39v-.39Zm1.55-.1h-.38v.39h.38v-.39Z" fill="#39393C"/><path fill-rule="evenodd" d="M22.41 25.63h3.99l-.28.37h.52l.53-.37h1.13V29H27v1h7v-1h-2.76v-3.37h1.66c.2-.05.63-.26.6-.72-.02-.46-.41-.52-.6-.5 0-.2-.17-.63-.83-.65a1.2 1.2 0 0 0-1.14.66l-2.18-2.62-4.26 2.84h-.56c.11-.12.27-.47 0-.88-.01-.17 0-.54.25-.7.3-.18-.03-.93-.47-.93-.35 0-.35.63-.3.94-.34.14-.87.6-.25 1.35-.3.13-.86.57-.75 1.2Zm5.98-2.92-3.05 1.93h3.05V22.7Zm.61 1.93V22.9l1.57 1.74H29Zm0 1.7v1.38h1.32L29 26.34Zm0 3.11v-.99h1.32v.99H29Zm0-4.06v.35l1.7 1.59v2.23h.3v-2.52l-2-1.65Z" fill="#39393C"/></svg>