<!-- by TradingView --><svg width="56" height="56" viewBox="0 0 56 56" xmlns="http://www.w3.org/2000/svg"><path fill="#F0F3FA" d="M0 0h56v56H0z"/><path fill-rule="evenodd" d="m23.22 13 .41 9.38c2.5-.37 7.82-.16 10.37 0v.71c-1.3-.16-2.74-.26-4.3-.26-13.46 0-18.7 5.55-18.7 9.59S18.9 42 28.87 42c1.13-.06 3.81-.4 5.44-1.38-1.15.17-3.85.5-5.44.5-2 0-14.8-1.62-14.8-8.7 0-5.67 10.42-7.92 15.63-8.34.37-.03.8-.04 1.3-.03v1.24a39.84 39.84 0 0 0-6.7.38L24 27c1.13.47 3.37 1.9 3.37 3.8s-1.53 2.98-2.37 3.28v5.09l8.35 1.37.63-4.29-.96 1.75h-3.4l5.44-10.75v-1.58L34 25.29v-.98c3.46.52 7.96 1.94 11.82 5.15-.7-1.75-3.63-4.87-10.14-6.1v-1.48L28 21.2v-.96l8.39.75v-.75c-1.93-1.1-7.65-1.2-10.39-1.13v-2.16l10.14 2.16V17.8l-5.15-.83.58-1.21 5.36 1.2.25-1.2L23.22 13Zm-3.56 10.42-.93-5.18 2.9-5 .41 9.67-2.38.5Zm9.7 13.17c0 .75-.84 1.36-1.88 1.36s-1.88-.61-1.88-1.36c0-.75.84-1.36 1.88-1.36s1.88.6 1.88 1.36Zm-1.88.93c.71 0 1.28-.42 1.28-.93s-.57-.93-1.28-.93c-.7 0-1.28.42-1.28.93s.57.93 1.28.93ZM18 28v9h2v-4h3.47c1.09-.1 3.26-.52 3.26-2.4 0-1.9-2.17-2.52-3.26-2.6H18Zm4.67 1h-2.2v3h2.2c1.03 0 1.86-.62 1.86-1.5S23.7 29 22.67 29ZM20 28.5v4h2.67c1.29 0 2.33-.9 2.33-2s-1.04-2-2.33-2H20Zm3.7 5.05H21v2.89c0 1.63 1.6 2.64 2.4 2.93l.6-.36c-.24-.78-.75-2.52-.86-3.25a4 4 0 0 1 .56-2.21Zm-2.7-6h2V26.4a5.74 5.74 0 0 0-2 .44v.7Zm9.5 9.95h2.16l.96-2h5.44l1.02 2h2.52L37.37 28h-2.08l-4.79 9.5Zm7.8-3.5-2.03-4-1.92 4h3.95Zm5.7 3.5V36h3l-.73 1.5H44Z"/></svg>