<!-- by TradingView --><svg width="56" height="56" viewBox="0 0 56 56" xmlns="http://www.w3.org/2000/svg"><path fill="#F0F3FA" d="M0 0h56v56H0z"/><path d="M5 22h5.06c.48.01 1.22.23 1.83.83.63.6 1.11 1.58 1.11 3.07v.03a2.54 2.54 0 0 1-.02.28c-.02.18-.06.44-.14.73-.15.54-.43 1.2-1 1.75L14 34h-.53l-2.23-5.44.14-.12c.55-.48.84-1.11.98-1.63a4.2 4.2 0 0 0 .14-.9c0-1.38-.44-2.22-.95-2.72a2.37 2.37 0 0 0-1.5-.69H5.5V34H5V22Zm1 1h3.8c.38 0 .93.15 1.38.55.47.4.82 1.07.82 2.08 0 1.5-.77 2.3-1.47 2.67l2.16 5.7h-.52l-2.1-5.52-.23.05H6.5V34H6V23Zm.5 5.03h3.28c.56-.1 1.72-.69 1.72-2.4 0-.88-.3-1.4-.65-1.7a1.7 1.7 0 0 0-1.05-.43H6.5v4.53ZM7 29h2.58l1.9 5h-.53l-1.71-4.5H7.5V34H7v-5Zm2.25-5H7v3.5h2.25a1.75 1.75 0 1 0 0-3.5ZM7.5 27v-2.5h1.75a1.25 1.25 0 1 1 0 2.5H7.5ZM15 29.8V22h.5v7.8c0 2.04 1.68 3.7 3.75 3.7A3.73 3.73 0 0 0 23 29.8V22h.5v7.8c0 2.32-1.9 4.2-4.25 4.2A4.23 4.23 0 0 1 15 29.8Zm1-.67V22h.5v7.13c0 1.9 1.27 3.37 2.75 3.37S22 31.04 22 29.13V22h.5v7.13c0 2.1-1.41 3.87-3.25 3.87S16 31.22 16 29.13ZM17 22v7.24c0 .94.23 1.64.65 2.1.42.47 1 .66 1.6.66.6 0 1.18-.2 1.6-.66.42-.46.65-1.16.65-2.1V22H21v7.24c0 .87-.21 1.43-.52 1.77-.3.33-.73.49-1.23.49s-.92-.16-1.23-.5c-.3-.33-.52-.9-.52-1.76V22H17ZM25.5 22h4.56c.54 0 1.4.18 2.12.71a3.35 3.35 0 0 1 1.32 2.85c0 .31-.1.8-.28 1.28-.16.4-.38.83-.68 1.17.42.4.96 1.18.96 2.3 0 .83-.22 1.74-.74 2.46A2.98 2.98 0 0 1 30.24 34H25.5V22Zm.5.5v11h4.24c1 0 1.68-.43 2.12-1.03.44-.6.64-1.41.64-2.15 0-1.15-.66-1.87-.97-2.08l-.26-.17.23-.22c.33-.3.58-.74.75-1.19.17-.45.25-.87.25-1.1 0-1.24-.5-2-1.12-2.45a3.25 3.25 0 0 0-1.82-.61H26Zm.5.5h3.14c.4 0 1.1.06 1.71.43.57.34 1.05.93 1.13 1.9l.02.35c0 .93-.62 1.8-1.58 2.36.2.11.43.26.66.44.45.36.92.9.92 1.66 0 .7-.23 1.4-.65 1.94-.42.54-1.05.92-1.81.92H26.5V23Zm.5 5.25v4.25h3.04c.59 0 1.07-.28 1.41-.73a2.7 2.7 0 0 0 .55-1.63c0-.54-.32-.95-.73-1.27a4.7 4.7 0 0 0-.75-.48l-.08-.05-.16-.09H27Zm0-.5h3.41c1.02-.49 1.59-1.3 1.59-2.07 0-.22-.02-.4-.05-.58a1.78 1.78 0 0 0-.85-1.24c-.5-.3-1.1-.36-1.46-.36H27v4.25Zm.5-3.75h2.13c.97 0 1.87.62 1.87 1.5s-.9 1.5-1.87 1.5H27.5v-3Zm.5.5v2h1.63c.82 0 1.37-.5 1.37-1s-.55-1-1.37-1H28Zm1.63 4.5H27.5v3h2.13c.97 0 1.87-.62 1.87-1.5 0-.89-.9-1.5-1.87-1.5ZM28 31.5v-2h1.63c.82 0 1.37.5 1.37 1s-.55 1-1.37 1H28ZM35 22h7v.5h-6.5v11H42v.5h-7V22Zm1 1h6v.5h-5.5v4.25H42v.5h-5.5v4.25H42v.5h-6V23Zm1 1h5v.5h-4.5v2H42v.5h-5v-3Zm5 5h-5v3h5v-.5h-4.5v-2H42V29ZM43 22l3.03 6L43 34h.52l3.06-6-3.06-6h-.51Zm9 0-3.04 6L52 34h-.56l-3.04-6 3.07-6H52Zm-4.7 6.02L44.24 22h.58l2.76 5.46L50.36 22h.54l-3.05 5.98L50.9 34h-.56l-2.78-5.46L44.78 34h-.52l3.04-5.98ZM49.38 22l-1.9 3.99L45.65 22h.52l1.34 2.83L48.88 22h.5Zm-1.9 8.47L49.42 34h-.55l-1.36-2.48L46.18 34h-.52l1.83-3.53Z" fill="#DD282C"/></svg>