<!-- by TradingView --><svg width="56" height="56" viewBox="0 0 56 56" xmlns="http://www.w3.org/2000/svg"><path fill="#F0F3FA" d="M0 0h56v56H0z"/><path fill-rule="evenodd" d="M43 43h-.87c-2.39-.03-9.05-.93-11.13-10.31 0 0-1.75-.47-3-.47s-3 .47-3 .47c-2.14 9.43-8.78 10.3-11.13 10.31H13c0-10.78 10.31-12 10.31-12 .42-.63.47-3 .47-3s-.05-2.37-.47-3c0 0-10.31-1.34-10.31-12h.88c2.43.02 9.03.92 11.12 10.31 0 0 1.75.47 3 .47s3-.47 3-.47c2.39-9.55 9.35-10.3 11.44-10.31H43c0 10.78-10.31 12-10.31 12-.42.63-.47 3-.47 3s.05 2.37.47 3h.02c.51.1 10.29 1.8 10.29 12ZM25.57 28c0 .26-.57 3-.57 3 1.36-.2 2.97-.25 2.97-.25s1.62.04 3.03.25c0 0-.66-2.71-.66-2.98 0-.26.66-3.02.66-3.02-1.36.2-3 .3-3 .3s-1.6-.1-3-.3c0 0 .57 2.74.57 3ZM15 15s5.63.21 8 8c0 0-7-.85-8-8Zm26 0s-5.63.21-8 8c0 0 7-.85 8-8ZM15 41s5.63-.21 8-8c0 0-7 .85-8 8Zm26 0s-5.63-.21-8-8c0 0 7 .85 8 8Z" fill="url(#amukmsmix)"/><defs><linearGradient id="amukmsmix" x1="12.53" y1="42.99" x2="42.99" y2="12.99" gradientUnits="userSpaceOnUse"><stop offset=".11" stop-color="#43404C"/><stop offset=".38" stop-color="#CD352D"/></linearGradient></defs></svg>