<!-- by TradingView --><svg width="56" height="56" viewBox="0 0 56 56" xmlns="http://www.w3.org/2000/svg"><path fill="#F0F3FA" d="M0 0h56v56H0z"/><path d="M15.08 45.95A.58.58 0 0 1 15 46l.08-.05c1.03-.69 7.27-7.39 6.31-13-.99-5.8-2.83-5.66-2.77-9.25C18.7 20.11 26.06 11.31 32 8c-2.95 2.5-9.7 8.75-9.55 14.32.2 6.97 2.5 5.17 2.5 9.93 0 4.75-2.76 9.57-9.87 13.7Z" fill="url(#aycjmbbmb)"/><path d="M18.63 39.71a15.02 15.02 0 0 1 4.81-26.04c-.46.53-.91 1.07-1.34 1.6a32.08 32.08 0 0 0-3.22 4.82c-.78 1.47-1.35 2.96-1.37 4.2a7.83 7.83 0 0 0 1.17 4.46l.04.06c.58 1.1 1.27 2.4 1.77 5.2.2 1.07-.12 2.44-.9 4.02-.28.56-.6 1.12-.96 1.68Zm4 2.3a15 15 0 1 0 6.36-29c-.57.64-1.13 1.34-1.66 2.07-1.89 2.6-3.2 5.37-3.12 7.78.05 1.71.23 2.82.45 3.6a6.29 6.29 0 0 0 .9 1.9c.27.42.6.95.85 1.6.3.81.48 1.78.48 3.1 0 2.89-1.76 6.06-4.27 8.95Z" fill="url(#bycjmbbmb)"/><path d="M25.63 23.67c0-3.96 2.76-7.43 4.14-8.67 4.43.62 11.45 4.92 11.45 13.5 0 7.93-8.5 15.32-16.3 13.1a11.72 11.72 0 0 0 3.13-8.05c0-5.13-2.42-4.92-2.42-9.88Z" fill="url(#cycjmbbmb)"/><path d="M26 41.81c1.28-1.3 3.2-4.23 3.2-8.27 0-2.91-.45-4.2-.9-5.45-.42-1.2-.83-2.37-.83-4.9.09-.83 1.03-2.72 3.43-4.89 0-.15-.67-2.02-1.21-3.44-1.4 1.3-4.06 4.74-4.06 8.66 0 2.47.6 3.67 1.2 4.87.6 1.23 1.22 2.47 1.22 5.07 0 4.12-2.08 7.12-3.12 8.1.35.11.71.2 1.07.25Z" fill="url(#dycjmbbmb)"/><path d="m29.68 14.86 1.24 3.41c2.24-.5 7.26.64 10.26 8.86-.56-7.82-7.17-11.76-11.4-12.35l-.1.08Z" fill="url(#eycjmbbmb)"/><defs><linearGradient id="aycjmbbmb" x1="16.45" y1="12.66" x2="25.06" y2="47.66" gradientUnits="userSpaceOnUse"><stop stop-color="#3C5D91"/><stop offset=".42" stop-color="#0E2860"/><stop offset="1" stop-color="#304E84"/></linearGradient><linearGradient id="bycjmbbmb" x1="37.68" y1="15.37" x2="19.85" y2="37.92" gradientUnits="userSpaceOnUse"><stop stop-color="#F4B741"/><stop offset="1" stop-color="#AF4E3F"/></linearGradient><linearGradient id="cycjmbbmb" x1="30.09" y1="16.41" x2="33.11" y2="42" gradientUnits="userSpaceOnUse"><stop offset=".22" stop-color="#ACD2D3"/><stop offset="1" stop-color="#006369"/></linearGradient><linearGradient id="dycjmbbmb" x1="27.91" y1="15.71" x2="27.91" y2="41.81" gradientUnits="userSpaceOnUse"><stop stop-color="#357285"/><stop offset=".26" stop-color="#3D9CA9"/><stop offset=".64" stop-color="#32647A"/><stop offset="1" stop-color="#2C4963"/></linearGradient><linearGradient id="eycjmbbmb" x1="31.95" y1="16.32" x2="37.7" y2="26.15" gradientUnits="userSpaceOnUse"><stop stop-color="#235F67"/><stop offset="1" stop-color="#1B4C54"/></linearGradient></defs></svg>