<!-- by TradingView --><svg width="56" height="56" viewBox="0 0 56 56" xmlns="http://www.w3.org/2000/svg"><path fill="#F0F3FA" d="M0 0h56v56H0z"/><path d="M21.09 24.8h-1.1c0-.73-2.05-5.79-5.95-5.79-3.13 0-4.05 2.22-4.13 3.33 0 2.55 3.08 3.33 4.62 3.4 2.48.16 7.45 1.4 7.45 5.13 0 4.67-3.08 6.02-6.74 6.02s-4.47-1.54-4.89-1.54c-.33 0-1.18 1.03-1.56 1.54H8V30h1c0 2.96 3.26 5.58 6.24 5.58 1.16 0 5.05-.1 5.05-2.92s-6.11-3.78-7.8-4.18C10.81 28.08 8 27.13 8 23.66S10.83 18 14.04 18c3.2 0 3.82 1.66 4.6 1.66.64 0 1.16-.9 1.35-1.36h.8l.3 6.5Z" fill="#F20808"/><path d="M17.26 19.42c.5.4.94.74 1.77.74l1.04-1.42h.42l.3 5.17.27.29-.28-5.9h-.8c-.18.45-.7 1.36-1.33 1.36-.27 0-.5-.18-.83-.42A5.54 5.54 0 0 0 14.04 18a6.05 6.05 0 0 0-5.31 2.86c1.1-1.07 3.12-2.54 5.3-2.54 1.83 0 2.58.59 3.23 1.1ZM8 30h1c0 2.96 3.26 5.58 6.24 5.58 1.11 0 4.7-.1 5.03-2.56.36 2.49-2.98 3.07-4.69 3.05-5.37 0-7.03-3.85-7.12-5.79L8 30Zm2.15-8.66a3.3 3.3 0 0 0-.24 1c0 2.55 3.08 3.33 4.62 3.4 2.48.16 7.45 1.4 7.45 5.13 0 .86-.1 1.6-.3 2.24.05-.47.09-1.13.09-1.99 0-2.12-1.79-3.62-6.73-4.74-4.93-1.12-5.48-2.25-5.48-3.54 0-.7.3-1.2.6-1.5Z" fill="#F1C2BB"/><path d="M19.99 24.8h1.1l-.01-.17-.64-.43c-.75-1.83-3.09-5.47-6.36-5.47-3.1 0-3.78 1.4-3.74 2.22.54-.98 1.64-1.94 3.7-1.94 3.9 0 5.95 5.06 5.95 5.78Zm1.77 8.01c-1 1.26-3.48 3.56-6.07 3.56-2.33 0-3.76-.77-4.62-1.24-.37-.2-.64-.34-.83-.34-.5 0-1.02.78-1.23 1.17h-.53v-5.68L8 30v6.89h.79c.38-.51 1.23-1.54 1.56-1.54.1 0 .24.1.43.25.58.43 1.72 1.29 4.46 1.29 3.1 0 5.77-.96 6.52-4.08Zm-1.7.92.15.11c.12-.31.38-1.18.38-2.11 0-1.17-1.37-2.52-6.22-3.62-4.84-1.1-5.74-3.02-5.74-4.97a6.2 6.2 0 0 1 .99-3.32l-.38.3A5.43 5.43 0 0 0 8 23.66c0 3.47 2.8 4.42 4.5 4.82l.67.15c2.24.47 7.12 1.51 7.12 4.03 0 .41-.08.76-.22 1.07Z"/><path d="M24 29.5v7h-1v.5h3v-.5h-1v-6.35L30.43 37H31v-7.5h.9V29H29v.5h1v4.9L25.37 29h-2.21v.5H24Z" fill="#080808"/><path d="M23.16 29.5h1.88L31 36.4v-2.55c-.17-.1-.4-.16-.6-.16-.08 0-.21-.08-.4-.24v.96L25.37 29h-2.2v.5Zm.84 6.93v-1.2l1-1.53v2.8h1v.45l-2-.52Zm5-6.93h3V29h-3v.5Z" fill="#959595"/><path d="M32.59 29.58V29h6.16l.84 2.03h-.6l-.95-1.45h-1.85c-.63 0-1.19.51-1.19 1.14V33h1.48c.48 0 1.05-.39 1.05-.86V32H38v2.57h-.47v-.2c0-.48-.57-.86-1.05-.86H35v1.75c0 .63.56 1.14 1.2 1.14h.36v.6h-3.92v-.6h.31c.63 0 1.05-.5 1.05-1.14v-4.54c0-.63-.42-1.14-1.05-1.14h-.37Z" fill="#080808"/><path d="M32.59 29.44c.54.07 1.44.22 1.9.45.3.15.42.48.51.8.01-.61.57-1.1 1.2-1.1h1.84l.14.21c.33.02.7.11 1.04.34L38.75 29h-6.16v.44ZM35.1 35.71c.18.39.64.7 1.1.7h.36v.35c-.4 0-.8-.06-1.05-.22s-.4-.52-.4-.83ZM36.65 32.99c.4-.07.85-.42.85-.84V32h.5v1.38c-.31-.2-.94-.32-1.35-.4Z" fill="#959595"/><path d="M47.83 31.56h-.7c-.09-.67-.74-2-2.66-2-2.4 0-3.47 2.3-3.47 3.72 0 1.42.86 3.19 3.47 3.19 2.1 0 2.85-1.59 2.97-2.38h.4L48 37h-.56l-.31-.87c-.47.3-1.65.87-2.66.87-1.26 0-4.47-.31-4.47-3.72S42.93 29 44.47 29c1.24 0 2.29.5 2.66.76v-.4h.31l.4 2.2Z" fill="#080808"/><path d="m47.72 30.95-.28-1.58h-.31v.39a5.18 5.18 0 0 0-2.66-.76c-1.15 0-3.08.48-3.98 2.16a9.63 9.63 0 0 0 1.92-1.35c.24-.18.95-.53 1.9-.53.9 0 2.55 1.05 3.41 1.67ZM41.19 34.4c.4 1.06 1.26 2.07 3.28 2.07 2.1 0 2.85-1.59 2.97-2.38h.4l.14 2.5c-.23-.27-.57-.72-.77-.99-.56.37-1.91 1.1-2.78 1.1a3.74 3.74 0 0 1-2.72-.95c-.4-.36-.58-.83-.52-1.35Z" fill="#959595"/><path d="M38.24 24.27c-.54.13.08 1.77.46 2.57-.32.1-.89.39-.64.8.31.53 5.59.31 5.59.34 0 .02 1.1.04 1.32-.34.18-.3-.61-.75-1.03-.93.16-.21.48-.72.48-1.04 0-.39-.11-1.67-.77-1.67-.53 0-1.26.6-1.56.89-.2-.18-.7-.54-1.21-.54-.5 0-.56.5-.53.75-.48-.33-1.58-.95-2.11-.83Z" fill="url(#avwzv4wbk)"/><path d="M29.6 28.31h-1.01l-.66-.7c-.57.1-1.7.08-1.7-.72v-1.66c-.44-.3-1.3-.98-1.23-1.39.1-.51 1.17-2.3 1.94-2.3.33 0 .5-.04.7-.1.28-.1.62-.2 1.51-.2.78 0 1.6.09 2.39.16.75.08 1.48.15 2.15.15.74 0 1.44-.27 2.05-.5.53-.21 1-.39 1.35-.35a4.6 4.6 0 0 0 1.91-.39c-.07.21-.24.7-.36.94-.15.3-.36 1.14 0 1.39.36.24.03.87-.5.84-.3-.02-.56.1-.8.2-.17.09-.33.16-.49.16-.2 0-.48.34-.77.69-.25.3-.51.6-.72.7-.36.17-.69.76-.8 1.03l.95 1.36h-1.06l-.58-.88h-1.5v-.76c.15-.2.43-.63.31-.75-.15-.15-1.05-.1-1.05-.1-.58.07-1.76.28-1.77.6 0 .32.87 1.17 1.31 1.55l.46.66h-.8c-.16-.27-.5-.82-.65-.92-.07-.05-.23-.23-.41-.44-.3-.34-.64-.73-.78-.78-.23-.07-.23.8-.07.95.06.06 0 .1-.07.14-.11.07-.27.16-.2.4.08.3.67.8.95 1.02Zm-3.36-4.14a2.33 2.33 0 0 0-.37-.69c-.11-.02-.34 0-.34.28s.5.7.76.88c0-.08-.02-.3-.05-.47Zm1.75 2.5c0-.27-.64-.8-.96-1.02-.05.05-.14.25-.14.63 0 .4.47.6.74.72l.14.07c.19.1.22-.07.22-.4Z" fill="#D2D1CF"/><path fill-rule="evenodd" d="M36.98 20.8c-.02-.06-.1-.1-.17-.06-.1.05-.2.13-.28.22-.13.11-.25.25-.36.38l-.02.01a4.56 4.56 0 0 1-.45.43l-.06.03c-.06 0-.15-.03-.26-.07l-.24-.08-.11-.04a2.83 2.83 0 0 0-.35-.12.75.75 0 0 0-.16-.02c-.05 0-.11.01-.17.04a21.47 21.47 0 0 0-.75.77l-.3.34-.53.6c-.1.1-.16.21-.18.33-.01.12.02.23.08.32a1.63 1.63 0 0 0 .28.36 6.2 6.2 0 0 1 .25.3l.13.14a.5.5 0 0 1 .1.18c0 .06 0 .14-.05.25-.14-.24-.6-.43-1.6-.52-.9-.08-1.32.14-1.62.34-.14.02-.32.03-.53.03-.31 0-.5-.18-.65-.37a3.3 3.3 0 0 1-.1-.15h-.01l-.08-.12a.36.36 0 0 0-.12-.1.18.18 0 0 0-.1-.02.18.18 0 0 0-.1.05l-.47.38a49 49 0 0 1-.59.44c-.31.01-.74-.04-.7-.27l.02-.17.04-.04a8.68 8.68 0 0 0 .69-.94c.08-.15.1-.33.07-.5a1.9 1.9 0 0 0-.17-.51 4.17 4.17 0 0 0-.49-.77l.3-.33h-.23c-.77 0-1.85 1.79-1.94 2.3-.07.41.79 1.1 1.23 1.4v1.65c0 .8 1.13.82 1.7.73l.66.7h1.01c-.28-.22-.87-.72-.95-1.04-.07-.23.09-.32.2-.39.08-.05.13-.08.07-.14-.16-.15-.16-1.02.07-.95.14.05.48.44.78.78.18.2.34.39.41.44.14.1.5.66.65.92h.8l-.46-.66c-.44-.38-1.32-1.22-1.3-1.55 0-.32 1.18-.53 1.76-.6 0 0 .9-.05 1.05.1.12.12-.16.55-.32.75v.77h1.51l.58.87h1.06l-.34-.49c-.48.05-.75-.2-.95-.42l.07-.01a7.4 7.4 0 0 1 0-1.2c0-.07.06-.14.16-.24.08-.08.19-.16.31-.25l.06-.04c.29-.22.63-.49.8-.89l.15-.35.15-.34c.23.15.65.27 1.26.16.58-.1.98-.11 1.19-.1.07 0 .14-.05.16-.12.01-.07-.04-.14-.11-.15-.23-.02-.66 0-1.28.1-.68.13-1.04-.07-1.15-.17a.5.5 0 0 0 0-.08c0-.15-.18-.17-.3-.07.03.03.04.05.04.08 0 .04 0 .09-.03.17l-.16.4-.16.36c-.14.33-.43.56-.72.78l-.02.02-.03.02c-.13.1-.25.18-.34.28a.73.73 0 0 0-.25.38 3.51 3.51 0 0 0-.02 1c-.08-.07-.16-.13-.25-.12-.34.01-.57-.22-.41-.67l.07-.1c.23-.31.33-.54.27-.76a.76.76 0 0 0-.14-.28l-.14-.17-.03-.03a6.18 6.18 0 0 1-.3-.35 1.38 1.38 0 0 1-.17-.22c-.04-.07-.05-.11-.04-.16 0-.04.03-.1.1-.18l.55-.6v-.01l.29-.32a20.84 20.84 0 0 1 .69-.72h.03a2.63 2.63 0 0 1 .42.11l.1.04.26.09c.11.04.23.07.33.07.07 0 .14-.02.2-.05a4.77 4.77 0 0 0 .52-.49c.13-.14.24-.27.36-.37l.2-.17c.06-.04.1-.11.07-.18Zm-8.21 4.74c.17-.15.36-.3.62-.34-.3-.07-.5-.28-.63-.45l-.1-.15v-.01a2.78 2.78 0 0 0-.07-.09 11.4 11.4 0 0 1-.79.62l.06.15c.08.27.2.64.48.55.16-.06.3-.17.43-.28Zm-2.02-1.34-.02.01-.01.02a1.4 1.4 0 0 0-.23-.66 1 1 0 0 1 0-1.23l.2-.26c.15.18.31.42.43.67.07.16.12.3.14.44.03.14.01.24-.03.32-.16.28-.34.51-.48.69Zm-.88-.72c.11.15.34.5.37.69.03.18.04.39.05.47-.25-.18-.76-.6-.76-.88 0-.27.23-.3.34-.28Zm1.16 2.17c.32.23.96.75.96 1.01 0 .34-.03.51-.22.4a1.96 1.96 0 0 0-.14-.06c-.27-.12-.74-.32-.74-.72 0-.38.1-.58.14-.63Zm5.26-2.57 1.06-1.26a.14.14 0 0 0-.02-.19.13.13 0 0 0-.19.02L32.1 22.9c-.25.29-.47.5-.72.62-.24.12-.52.15-.88.04a.62.62 0 0 1-.32-.27c-.1-.14-.17-.32-.23-.52a4.6 4.6 0 0 1-.18-1.14l-.26-.03v-.02.02a2.7 2.7 0 0 1-.14.25 35.49 35.49 0 0 1-.67 1.16c-.14.22-.12.21-.07.4.01.04.06.07.09.04l.03-.03a21.25 21.25 0 0 0 .8-1.32c.02.24.07.5.14.75.07.22.16.43.27.6.12.17.27.3.46.36.42.13.77.1 1.07-.05.3-.14.56-.4.8-.68Zm4.25-.78a.3.3 0 0 1-.31.31.3.3 0 0 1-.3-.3.3.3 0 0 1 .3-.32c.17 0 .3.14.3.31Zm.82-.2a.3.3 0 0 0 .3-.31.3.3 0 0 0-.3-.31.3.3 0 0 0-.3.31c0 .17.13.31.3.31Z" fill="#100D08"/><defs><linearGradient id="avwzv4wbk" x1="41.11" y1="24" x2="39.69" y2="29.23" gradientUnits="userSpaceOnUse"><stop offset=".31" stop-color="#DAD9D8"/><stop offset=".79" stop-color="#100D08"/></linearGradient></defs></svg>