<!-- by TradingView --><svg width="56" height="56" viewBox="0 0 56 56" xmlns="http://www.w3.org/2000/svg"><path fill="#E2DDD7" d="M0 0h56v56H0z"/><path d="M8 28.56 28.5 8l1.03 1.03-19.48 19.53 5.13 5.14 17.43-17.47L43.9 27.55l-14.35 14.4-1.03-1.04 13.33-13.36-9.24-9.26-17.43 17.47L8 28.56Z" fill="url(#adpdmj5gb)"/><path d="m30.55 10.06 1.03 1.03-17.43 17.47 1.03 1.03 17.43-17.47 1.02 1.03-18.45 18.5-3.08-3.09 18.45-18.5Z" fill="url(#bdpdmj5gb)"/><path d="m33.63 13.15-1.02 1.02 13.34 13.38-15.38 15.42L31.6 44 48 27.55l-14.37-14.4Z" fill="url(#cdpdmj5gb)"/><path d="M32.69 20 16 36.58l1.04 1.04L32.7 22.07l5.22 5.2 1.05-1.04L32.69 20Z" fill="url(#ddpdmj5gb)"/><path d="m18.09 36.59 10.44 10.37L27.5 48 17.04 37.62l1.05-1.03Z" fill="url(#edpdmj5gb)"/><path d="m32.7 24.15 3.13 3.11-10.44 10.37-1.04-1.04 9.39-9.33-1.05-1.04L22.26 36.6l8.36 8.3-1.05 1.04-9.4-9.34L32.7 24.15Z" fill="url(#fdpdmj5gb)"/><path d="M40 27.26 27.48 39.7l-1.04-1.04 12.52-12.43L40 27.26Z" fill="url(#gdpdmj5gb)"/><defs><linearGradient id="adpdmj5gb" x1="28.5" y1="8" x2="28.48" y2="44" gradientUnits="userSpaceOnUse"><stop stop-color="#77454C"/><stop offset="1" stop-color="#451A1E"/></linearGradient><linearGradient id="bdpdmj5gb" x1="28.5" y1="8" x2="28.48" y2="44" gradientUnits="userSpaceOnUse"><stop stop-color="#77454C"/><stop offset="1" stop-color="#451A1E"/></linearGradient><linearGradient id="cdpdmj5gb" x1="28.5" y1="8" x2="28.48" y2="44" gradientUnits="userSpaceOnUse"><stop stop-color="#77454C"/><stop offset="1" stop-color="#451A1E"/></linearGradient><linearGradient id="ddpdmj5gb" x1="32.17" y1="20" x2="30.6" y2="46.96" gradientUnits="userSpaceOnUse"><stop stop-color="#E29A20"/><stop offset=".45" stop-color="#ED8A05"/></linearGradient><linearGradient id="edpdmj5gb" x1="32.17" y1="20" x2="30.6" y2="46.96"><stop offset=".45" stop-color="#ED8A05"/></linearGradient><linearGradient id="fdpdmj5gb" x1="32.17" y1="20" x2="30.6" y2="46.96" gradientUnits="userSpaceOnUse"><stop stop-color="#E29A20"/><stop offset=".45" stop-color="#ED8A05"/></linearGradient><linearGradient id="gdpdmj5gb" x1="32.17" y1="20" x2="30.6" y2="46.96" gradientUnits="userSpaceOnUse"><stop stop-color="#E29A20"/><stop offset=".45" stop-color="#ED8A05"/></linearGradient></defs></svg>