<!-- by TradingView --><svg width="56" height="56" viewBox="0 0 56 56" xmlns="http://www.w3.org/2000/svg"><path fill="#F0F3FA" d="M0 0h56v56H0z"/><path d="M27.99 11.26 13.33 21.77l4.8 18.93 19.87.24 4.65-19.27-14.66-10.4Z" fill="#B2E1F1"/><path d="M35.64 34.14 31.9 20.5h-3.95v13.63h7.69Z" fill="url(#auohgknd0)"/><path fill-rule="evenodd" d="M26.53 12.6 28 11.57l1.37.96-.7.69-.64-.84-.64.95-.86-.73Zm-.26.19-.67.47 1.53.88.11-.52-.97-.83Zm-1.12.8-11.62 8.2L16.59 34H20v-1h7.5v-.5h-7.04V32h7.04v-.5h-6.79V31h6.79v-.5H21V30h6.5v-.5h-6.26V29h6.26v-.5h-5.95V28h5.95v-.5h-5.63V27h5.63v-.5h-5.3V26h5.3v-.5h-5.03V25h5.03v-.5H23V24h4.5v-.5h-4V23h4v-.5h-3.8V22h3.8v-.45H24V21h3.5v-.5H24V20h.76l1.2-1h1.2l-2.01-5.42ZM28.49 19h-1l-.43-1.15h1.86L28.5 19Zm.33 0h1.34l1.2 1h8.57l-9.08-6.42L28.82 19Zm1.6-5.72-.8-.57-.76.76.02.03.19.52 1.35-.74ZM32 20.5h8.64l1.83 1.3-3.44 13.9-2.45 1.51-2.41-1.62-2.38 1.62L29.97 36H33v-1h3.02l-.68-2H28.5V21H32v-.5Zm4.57 17.08 2.35-1.45-.31 1.27-2.03 1.26-2.41-1.63-2.38 1.62-2.43-1.61-2.55 1.61-2.25-1.62-2.5 1.63-2.53-1.63-1.86 1.29-.23-.9 2.1-1.46 2.53 1.62L24.5 36h.1l2.2 1.58L29.29 36h.12l2.38 1.58 2.38-1.62 2.4 1.62Zm-18.82 1.06.3 1.19 1.48-1.09L21.5 40h1.13l1.93-1.26L26.3 40h1.08l1.98-1.26L31.25 40h1.07l1.85-1.26L36.04 40h1.13l.93-.57.4-1.6-1.93 1.2-2.4-1.63-2.38 1.62-2.44-1.62-2.55 1.62-2.25-1.62-2.48 1.62-2.53-1.62-1.8 1.24ZM37.96 40h-.2l.24-.15-.04.15Zm-17.03 0h-2.6l1.2-.89 1.4.89Zm14.55 0-1.31-.89-1.3.89h2.61Zm-4.79 0-1.34-.89-1.4.89h2.74Zm-4.91 0-1.23-.89-1.36.89h2.59Zm12.41 1 .37-1.5.03-.01-.02-.02L43 21.6 28 11 13 21.6 17.86 41H15v.52l10.84 1.64c.57.08 1.16.52 1.16 1.04v.8h2v-.8c0-.52.49-.96 1.05-1.04L41 41.52V41h-2.8Zm-18.66-5.4-2.17 1.5-.52-2.1H23v1h.93l-1.86 1.21-2.54-1.62Zm7.28 1.61L25.13 36h3.59l-1.91 1.21Zm1.8-23.56.18.53-.82.45-.56-.32.15-.67.48-.73.56.74Zm1.91-.08L27.97 15l-2.51-1.45 1.5 4.03v-.07h2.06v.08l1.5-4Z"/><defs><linearGradient id="auohgknd0" x1="31.79" y1="20.51" x2="31.79" y2="34.14" gradientUnits="userSpaceOnUse"><stop offset=".04" stop-color="#617377"/><stop offset=".07" stop-color="#2E413D"/><stop offset=".11" stop-color="#000306"/><stop offset=".14" stop-color="#313F42"/><stop offset=".17" stop-color="#587475"/><stop offset=".2" stop-color="#060612"/><stop offset=".23" stop-color="#32403E"/><stop offset=".28" stop-color="#323A3D"/><stop offset=".33" stop-color="#5D7A76"/><stop offset=".38" stop-color="#384146"/><stop offset=".43" stop-color="#2E3F47"/><stop offset=".47" stop-color="#5F7475"/><stop offset=".49" stop-color="#04080B"/><stop offset=".53" stop-color="#2C3E42"/><stop offset=".58" stop-color="#353E47"/><stop offset=".62" stop-color="#5F737C"/><stop offset=".65" stop-color="#2C3F43"/><stop offset=".69" stop-color="#070508"/><stop offset=".74" stop-color="#2F3E45"/><stop offset=".76" stop-color="#5C7474"/><stop offset=".78" stop-color="#04080B"/><stop offset=".83" stop-color="#284042"/><stop offset=".87" stop-color="#333E44"/><stop offset=".89" stop-color="#070510"/><stop offset=".93" stop-color="#5C7677"/><stop offset="1" stop-color="#5A7775" stop-opacity="0"/></linearGradient></defs></svg>