<!-- by TradingView --><svg width="56" height="56" viewBox="0 0 56 56" xmlns="http://www.w3.org/2000/svg"><path fill="#F0F3FA" d="M0 0h56v56H0z"/><path d="M27.86 12.02c-.11.36-.03.66.25.89l-1.4.16c-.13.01-.2.09-.17.23l1.37 8.2a.12.12 0 0 1-.1.14h-.05a.35.35 0 0 1-.24-.18l-1.95-3.32c-.65-1.11-1.13-2.16-1.75-3.08-.58-.87-.8-.79-.63.24a109.66 109.66 0 0 1 1.02 9.65c0 .02-.02.04-.03.05-.06.05-.13.04-.2-.02a41.55 41.55 0 0 1-2.38-2.5 2.43 2.43 0 0 1-.63-1.16c-.11-.6-.39-2.21-.82-4.87-.05-.29-.2-.36-.45-.2l-.18.1a.64.64 0 0 0-.3.65l.5 3a.2.2 0 0 1-.11.21.2.2 0 0 1-.24-.04l-2.12-2.22c-.23-.25-.45-.24-.66.02l-.05.06c-.2.25-.09.58.32 1l2.9 3c.19.19.36.68.53 1.47.37 1.74.7 3.81 1.02 6.2a.34.34 0 0 1-.09.28.35.35 0 0 1-.27.1c-.98-.05-2.34-.3-2.9-1.16a419.32 419.32 0 0 1-3.5-5.38c-.16-.26-.25-.24-.24.07 0 .42.15.86.44 1.31.18.29 1 1.57 2.48 3.84a.28.28 0 0 1-.14.4.29.29 0 0 1-.17.02l-3.16-.8c-.3-.07-.47.04-.55.32l-.14.56c-.09.34.04.55.37.64l13.9 3.68c.13.86.23 1.72.3 2.57.22 2.27-.11 4.82.31 6.78-2.1.04-3.72.04-4.86 0-2.09-.08-3.32-1.06-4.65-2.72a621.2 621.2 0 0 0-5.3-6.54 5.04 5.04 0 0 1-.97-4.57l1.84-7.96c.3-1.3.61-2.2.92-2.69a5.28 5.28 0 0 1 2.24-1.93c5.23-2.5 8.23-3.9 9-4.24.38-.16.94-.25 1.69-.26Z" fill="#CC972C"/><path d="M36.62 15.55c-.07.24-.21.46-.44.64l-.95-.4c-.09-.04-.14-.01-.15.08l-.46 4.81c-.07.68-.16.68-.3.02l-1.1-5.62a.61.61 0 0 0-.3-.42l-.1-.06a.16.16 0 0 0-.24.08.16.16 0 0 0 0 .09c.79 4.07 1.29 6.68 1.5 7.85.3 1.61.17 2.71.02 4.22-.1.94-.59 1.63-1.04 2.46-.32.59-.61 1.19-1.31 1.02-.23-.06-.38-.22-.44-.5-.46-1.96-.9-4-1.35-6.1-.08-.34-.08-.7-.02-1.04l1.58-8.5a.2.2 0 0 0-.04-.15.21.21 0 0 0-.15-.09h-.08c-.08-.01-.13.02-.14.1a322.1 322.1 0 0 1-1.3 6.78c-.04.14-.08.24-.15.3a.11.11 0 0 1-.11.02.12.12 0 0 1-.07-.1l-1.37-8.13c-.28-.23-.36-.53-.25-.9.73-.05 1.39.05 1.98.3a90.1 90.1 0 0 1 6.78 3.24Z" fill="#AB6E2A"/><path d="m39.94 17.23.1 1.32c-.34 2.27-.56 4.5-.65 6.67-.01.25-.25.61-.71 1.09-.32.32-1.1 1.13-2.33 2.43-.61.64-.87.52-.79-.35l.45-4.67c.03-.24.1-.47.22-.67l2.98-5.07c.11-.2.06-.33-.17-.39l-.16-.04c-.18-.04-.3.02-.4.18a72.9 72.9 0 0 1-1.77 3.23c-.2.34-.35.36-.47.07a.14.14 0 0 1 0-.07l.44-4.27a.32.32 0 0 0-.09-.26.89.89 0 0 0-.41-.24c.23-.18.37-.4.44-.64l3.32 1.68Z" fill="#DCB332"/><path d="m26.7 21.39-.33 6.03c-.52-.37-.94-.8-1.26-1.29-.27-.4-.43-.95-.5-1.66-.22-2.46-.39-4.13-.5-5.04a17.17 17.17 0 0 1-.15-2.6.1.1 0 0 1 .1-.02.1.1 0 0 1 .05.04l2.6 4.54Z" fill="#CC972C"/><path d="M39.94 17.23c.94.8 1.55 1.84 1.85 3.1l1.82 7.77c.27 1.14.4 1.96.39 2.46-.05 2-1.42 3.53-2.86 5.21l-.49-3.1 1.44-.3a.6.6 0 0 0 .5-.47l.36-1.38c.07-.28-.04-.4-.32-.34l-2.25.44.17-4.9.93-.9a.8.8 0 0 0 .24-.65l-.04-.44c-.03-.26-.13-.3-.3-.1-.24.28-.6.62-1.06 1.04-.07.06-.12.08-.16.07a.29.29 0 0 1-.14-.11.28.28 0 0 1-.05-.17c.06-1.02.18-2.25.35-3.7.1-.87.01-1.61-.28-2.21l-.1-1.32ZM26.7 21.39c1.05 1.5 1.66 2.79 1.83 3.86.21 1.25.48 2.76.8 4.52.02.06.01.13-.02.19-.11.22-.25.26-.4.1-.5-.5-1.02-.99-1.54-1.45-.27-.24-.6-.64-1-1.19l.34-6.03Z" fill="#AB6E2A"/><path d="m22.53 30.42-.97-5.81a.24.24 0 0 1 .14-.26.25.25 0 0 1 .3.05l6.99 7.32a.24.24 0 0 1-.1.4.25.25 0 0 1-.15 0l-6.03-1.5a.25.25 0 0 1-.18-.2Z" fill="#CC972C"/><path d="m40.55 25.72-.17 4.9-3.67.75a.24.24 0 0 1-.26-.12c-.3-.52-.23-1 .18-1.45 1.3-1.37 2.61-2.73 3.92-4.08ZM40.65 32.67l.49 3.1-3.7 4.5-.61-6.8 3.82-.8Z" fill="#DCB332"/><path d="m36.83 33.48.6 6.8A5.93 5.93 0 0 1 32.11 43a612.9 612.9 0 0 0-4.16-.07c-.42-1.96-.08-4.51-.3-6.78-.08-.85-.18-1.7-.3-2.57.77.24 1.78.41 2.34.88 1.54 1.28 1.47 4.02 1 5.77-.15.53-.48.98-.7 1.45-.06.1-.03.16.09.16h3.27a.27.27 0 0 0 .25-.17 2.21 2.21 0 0 1 3.23-8.2Z" fill="#BC852C"/></svg>