<!-- by TradingView --><svg width="56" height="56" viewBox="0 0 56 56" xmlns="http://www.w3.org/2000/svg"><path fill="#F0F3FA" d="M0 0h56v56H0z"/><path d="M45 23.77v.9c-.07.7-.2 1.37-.4 2.04a26.03 26.03 0 0 1-.7 1.92c-.1.2-.12.39-.08.55.02.13.1.3.24.52.34.55.56.99.64 1.32a6.45 6.45 0 0 1-.8 5.46 10.2 10.2 0 0 1-4.43 3.49c-.12.06-.15.03-.08-.1a10.08 10.08 0 0 0 1.7-5.65 7 7 0 0 0-2.45-5.26c-1.12-1-2.45-1.8-3.97-2.4-1.88-.74-4-1.3-6.33-1.7-1.9-.32-4.1-.54-6.6-.67-.03 0-.06-.02-.07-.06v-.05c.01-.02.03-.03.06-.04 3-.56 6.22-.56 9.67-.01 3.08.5 6.22 1.4 9.41 2.73.25.1.44.04.59-.17.1-.14.08-.41-.05-.8-.1-.3-.22-.57-.37-.8a17.61 17.61 0 0 0-6.05-5.61 22.27 22.27 0 0 0-7.84-2.76 23.47 23.47 0 0 0-5.67-.34c-.03 0-.04-.02-.02-.04l.03-.03h.01c2.5-.22 5.3-.27 8.36-.16 2.43.09 4.85.4 7.26.96 2.11.48 3.83 1.2 5.15 2.14A6.19 6.19 0 0 1 45 23.77Z" fill="#3C3779"/><path d="M11 23.77v-3.61l.2-3.65c0-.02.01-.03.03-.03l.06-.04h.02c-.1 1.86.02 3.78.36 5.78a22.42 22.42 0 0 0 1.98 6.2 19.4 19.4 0 0 0 3.77 5.3 11.13 11.13 0 0 0 3.45 2.52c.16.06.32.1.48.1.2 0 .33-.06.4-.19.1-.15.1-.35-.01-.6-2.33-5.6-3.34-11-3.02-16.16.05-.9.18-1.73.4-2.5.08-.34.13-.33.15.01.2 4.3.8 8.04 1.8 11.19.73 2.28 1.71 4.1 2.97 5.45a7.06 7.06 0 0 0 5.5 2.44 9.33 9.33 0 0 0 2.81-.5c.74-.24 1.6-.63 2.6-1.17.16-.09.2-.05.12.12-1.33 2.81-3.06 4.54-5.2 5.18a6.3 6.3 0 0 1-5.4-.81c-.21-.14-.48-.14-.79-.01-1 .42-1.85.71-2.55.87-.92.21-1.82.27-2.7.17-1.83-.2-3.34-1.24-4.53-3.13a17.07 17.07 0 0 1-2.06-5.48c-.32-1.5-.54-3.05-.66-4.66L11 23.77Z" fill="#C0D133"/></svg>