<!-- by TradingView --><svg width="56" height="56" viewBox="0 0 56 56" xmlns="http://www.w3.org/2000/svg"><path fill="#87B85F" d="M0 0h56v56H0z"/><path fill-rule="evenodd" d="M28 11c.5 0 1 .02 1.5.07v1c.75.09 1.49.23 2.2.43l.38-.94c1 .28 1.96.67 2.86 1.14l-.38.93c.56.3 1.1.63 1.6 1l.7-.74c.83.61 1.6 1.3 2.29 2.07l-.7.74c.57.63 1.08 1.31 1.52 2.04l.93-.4c.52.87.96 1.8 1.3 2.8l-.93.4c.27.8.47 1.63.6 2.5h1a15.15 15.15 0 0 1 .09 3.08l-1 .01c-.08.9-.23 1.77-.47 2.61l.93.4c-.29 1-.67 1.96-1.15 2.87l-.93-.4c-.39.72-.84 1.4-1.34 2.05l.71.72c-.64.8-1.37 1.54-2.17 2.2l-.7-.72c-.68.54-1.4 1.03-2.16 1.44l.37.94c-.9.48-1.84.87-2.84 1.16l-.37-.93c-.76.21-1.54.37-2.35.45v1a15.19 15.19 0 0 1-3.08 0v-1c-.84-.1-1.66-.28-2.45-.51l-.4.92a14.9 14.9 0 0 1-2.82-1.2l.39-.93c-.6-.35-1.19-.73-1.73-1.16l-.69.74a15.08 15.08 0 0 1-2.21-2.15l.69-.74a14.05 14.05 0 0 1-1.5-2.2l-.92.4a14.9 14.9 0 0 1-1.17-2.88l.93-.4c-.24-.82-.4-1.67-.47-2.54h-1a15.2 15.2 0 0 1 .05-3.08l1-.01c.12-.86.3-1.7.57-2.5l-.92-.39c.32-.99.75-1.93 1.27-2.82l.92.4c.4-.65.83-1.27 1.32-1.85l-.7-.72c.66-.79 1.4-1.5 2.22-2.13l.7.71c.63-.47 1.29-.9 1.98-1.26l-.37-.94c.9-.47 1.86-.85 2.85-1.13l.38.94c.67-.19 1.37-.32 2.08-.4v-1c.52-.06 1.05-.09 1.59-.09Zm0 3a12 12 0 0 1 0 24 12 12 0 0 1 0-24Z" fill="#2A3383"/><path d="M23 43.09c.19.05 1.25.5 1.8 0 .45-.06 3.1-.22 3.2.14.1-.36 2.75-.2 3.21-.14.52.5 1.6.05 1.79 0 .02.32-.71 1.24-1.6 1.24-.9 0-1.78-.51-2-.77-.21-.26-.81-.15-.81-.15s-.03.04.3.3c.33.26 1.42.68 1.44.74.02.06-.4.47-.5.54-.12.08-.76-.48-1.12-.85a3.08 3.08 0 0 0-.73-.53c-.15.07-.46.26-.72.53-.36.37-.99.93-1.11.85-.12-.07-.53-.48-.51-.54.02-.06 1.11-.48 1.43-.74.33-.26.31-.3.31-.3s-.6-.11-.81.15a3.1 3.1 0 0 1-2 .77c-.89 0-1.6-.92-1.57-1.24ZM20.18 39.86s1.51.54 2.1 2.32c.57 1.79.72 1.7.72 1.7s-1.63-.16-2.1-1.37c-.46-1.21-.43-2.18-.72-2.65ZM23 44.21s-1.63-.68-1.96-.91c-.33-.23-.57.5-1.37.46l-1.14-.07S19.47 45 21.3 45c1.83 0 1.69-.79 1.69-.79ZM20.28 42.3c.02-.07-.85-2.5-2.16-3.75 0 0-.56.27-.25 1.75.3 1.47 1.94 2.24 2.4 2Z" fill="#2A3383"/><path d="M20.02 42.82s-1.62-1.18-2.12-1.16c-.5.01-1.63.44-1.96.47-.34.04.5.17 1 .72.5.54.9.72 1.75.72.83 0 1.86-.77 1.86-.77l-.53.02ZM17.48 41.13c-.03-.1-1.9-1.42-1.9-1.42s-1.93-.18-2.43-.31c0 0 .97 2.13 2.38 2.13 1.42 0 1.95-.4 1.95-.4ZM15.21 38.97s-1.17-1.5-1.94-1.7c-.78-.22-2.16-.58-2.16-.58s.84 2.25 2.12 2.25c1.3 0 1.98.03 1.98.03ZM16.07 35.74s1.31 1.87 1.09 4.5c0 0-2.77-1.38-1.1-4.5ZM14.8 37.58s-.33-.85.04-2.15c.37-1.3-.51-2.83-.51-2.83s-.58 1.36-.66 2.4c-.05 1 .67 2.53 1.12 2.58ZM13.62 36.66s-1.3-1.75-1.77-2c-.47-.26-1.5-.67-1.96-1.39 0 0-.18 1.4.7 2.18.9.77 3.03 1.21 3.03 1.21ZM13 34.9s.33-1.3.7-2.04c.37-.72-.06-2.3-.06-2.3s-.89 1.24-1.08 1.63c-.18.4-.26 2.08.43 2.7ZM11.82 33.7c.01-.09-1.11-3.67-2.82-3.82 0 .02-.1 3.21 2.82 3.82ZM12.94 28.93s.07 1.69-.38 2.34c-.45.66-.66 1.08-.55 1.5 0 0-.69-.47-.63-1.7.07-1.22 1.16-2.22 1.56-2.14Z" fill="#2A3383"/><path d="M9.08 26.72s1.73.62 1.74 3.73c0 0-2.28-1.08-1.74-3.73ZM12.3 26.24s.66 1.33-1.08 3.53c0 0-.7-2.7 1.08-3.53Z" fill="#2A3383"/><path d="M11.26 22.05c0 .02-.98 3.23-.05 6.68l-.23.07c-.95-3.52.05-6.82.05-6.82l.23.07Z" fill="#2A3383"/><path d="M11.5 23.77s-.32 1.62-.02 3.49l-.24.03c-.3-1.92.02-3.57.03-3.57l.23.05ZM12.1 23.88s-.2 1.53-.12 2.64l-.24.02c-.08-1.15.13-2.69.13-2.69l.24.03ZM9.76 23.5s-.13 2.35-.1 3.5h-.24c-.03-1.15.1-3.5.1-3.5h.24ZM10.4 23.57s-.27 2.69-.04 4.25l-.25.03c-.22-1.6.05-4.3.05-4.31l.24.03ZM35.82 39.86s-1.51.54-2.1 2.32c-.57 1.79-.72 1.7-.72 1.7s1.63-.16 2.1-1.37c.44-1.23.44-2.18.72-2.65ZM33 44.21s1.63-.68 1.96-.91c.33-.23.57.5 1.37.46l1.14-.07S36.53 45 34.7 45c-1.83 0-1.69-.79-1.69-.79ZM35.74 42.3c-.02-.07.85-2.5 2.15-3.75 0 0 .57.27.26 1.75-.32 1.47-1.96 2.24-2.41 2Z" fill="#2A3383"/><path d="M35.98 42.82s1.62-1.18 2.12-1.16c.5.01 1.63.44 1.96.47.34.04-.5.17-1 .72-.5.54-.9.72-1.75.72-.83 0-1.86-.77-1.86-.77l.53.02ZM38.52 41.13c.03-.1 1.9-1.42 1.9-1.42s1.93-.18 2.43-.31c0 0-.97 2.13-2.38 2.13-1.42 0-1.95-.4-1.95-.4ZM40.8 38.97s1.18-1.5 1.95-1.7c.77-.22 2.16-.58 2.16-.58s-.84 2.25-2.13 2.25c-1.28 0-1.98.03-1.98.03ZM39.94 35.74s-1.32 1.87-1.1 4.5c0 0 2.78-1.38 1.1-4.5ZM41.2 37.58s.33-.85-.04-2.15c-.37-1.3.51-2.83.51-2.83s.58 1.36.66 2.4c.07 1-.67 2.53-1.12 2.58ZM42.4 36.66s1.3-1.75 1.77-2c.46-.26 1.5-.67 1.96-1.39 0 0 .17 1.4-.71 2.18-.89.77-3.02 1.21-3.02 1.21ZM43 34.9s-.33-1.3-.7-2.04c-.37-.72.06-2.3.06-2.3s.89 1.24 1.08 1.63c.18.4.26 2.08-.43 2.7ZM44.18 33.7c-.01-.09 1.11-3.67 2.82-3.82 0 .02.12 3.21-2.82 3.82ZM43.06 28.93s-.07 1.69.38 2.34c.45.66.66 1.08.55 1.5 0 0 .69-.47.63-1.7-.07-1.22-1.16-2.22-1.56-2.14Z" fill="#2A3383"/><path d="M46.92 26.72s-1.73.62-1.74 3.73c0 0 2.28-1.08 1.74-3.73ZM43.7 26.24s-.66 1.33 1.08 3.53c0 0 .7-2.7-1.08-3.53Z" fill="#2A3383"/><path d="M44.74 22.05c0 .02.98 3.23.05 6.68l.23.07c.95-3.52-.05-6.82-.05-6.82l-.23.07Z" fill="#2A3383"/><path d="M44.5 23.77s.32 1.62.02 3.49l.24.03a10.6 10.6 0 0 0-.03-3.57l-.23.05ZM43.9 23.88s.22 1.53.14 2.64l.24.02c.08-1.15-.13-2.69-.13-2.69l-.24.03ZM46.26 23.5s.13 2.35.1 3.5h.23c.04-1.15-.1-3.5-.1-3.5h-.23ZM45.6 23.57s.27 2.69.04 4.25l.25.03c.22-1.6-.05-4.3-.05-4.31l-.24.03Z" fill="#2A3383"/><path d="m23.31 17.65-.66.14-.02.22c-.16.26-.26.29-.2.68-.12.09-.22.37-.28.58l.12.05c-.3.24-1.67 5.61-1.59 5.73-.27.56-.47 1.3-.68 1.9l.06.18c-.35.54 2.63.18 2.66 2.64 0 .63.1.69.05.94-.15 1.02.2.75.06 1.17.29.15.06-.04.1.25l-.04 1.2c.07.55.66.8.35 1.33.03 0 3.08 2.31 2.5.65 0-.1-.04-.59 0-.68l.16-1.4c0-.11-.05-.73-.08-.76.1-.18.1-1.5.1-1.82l.34.05c.6.27 1 0 1.01.8l.1.5.03.82v.28c-.14.23.09.47.28.7.08.08.27.08.43.05.37-.09.27-.2.46-.34.05-.4.1-.29-.04-.66-.1-.3-.05-.23-.03-.59.06-1.58-.08-1.2 1.33-1.56l-.02 4.3c.22.3-.04.6.04.8.2.23.87.2 1.19.2.21-.23.48-.15.54-.29.6-.2 1-.88 1.14-1.44-.15-.07-.1.02-.02-.15.2-.46.12-.4.2-.72v-.07c.08-.84.36-2.4.23-2.78.28-.68-.05-1.04.54-1.1l-.01.38c.01-.05 1.8-2.15 1.86-2.2.18-.17.04-.08.22-.16l.21-.07.05-.02c-.14-.15-.1-.42-.06-.69.03-.06-.02.01-.02-.12.02-.24.13.03.02-.18-.33-.21-.18-.18-.3-.48-.14-.32-.55-1.47-.67-1.58l.12-.1c-.4-.68-1.8-6.41-2.45-6.44v-.1c-1.65-.08-.74-.26-2.72-1.06l-.6-.21-.37-.07c-.2-.17-.22-.1-.2-.24-.27-.02-.2-.06-.48-.11l-.2.14-.15.16c-.18-.29-2.19.23-2.54.42-.18.08-.3.12-.4.27-.26.06-.88.36-1.03.56l-.64.1Z" fill="#D87705"/><path d="M26.18 26.54c-.17 1.46-.22.78-.22 1.95-.18.68-.04 1.34-.06 1.9l.22.16c.18-.23.1-.17.1-.47.06-.96.03-1.96.24-2.91.22-.13.38.05.53.1.26-.3 1.55-.29 1.88-.05.1.12.01 2.1 0 2.23-.03.26-.24.89-.23 1.53l.03-.03.02-.12c1.31-.85.04-2.6.84-3.34.26.3.23 2.49.2 2.64l-.02.15c0 .15-.12-.05.05.25.29-.1.26-.5.21-.78-.06-.37 0-.66-.01-.99l.07-1.84c.37.01.41.1.58-.05l-.53-.09-.05.06c-.29-.07-.22-.07-.25-.42l-.35.06c.04-.3.04-.23.24-.48.2-.26.01-.17.24-.26-.01-.31-.01-.03.14-.31-.18.13-.5.4-.7.6-.33.3-.3.51-.77.48-.1-.33.03-.21-.04-.51l-.1-.44c-.3-.46-.13-.18-.27-.16-.21.01-.07-.03-.27-.15-.02.01-.1.1-.12.1-.14.1.03 0-.15.06l-.3.14.09.12c.3.21.33.44.24.78-.23.21-.95-.23-.95-.23l-.84-.99-.34-.6.65 1.91Z" fill="#B35010"/><path d="m30.1 26.77.52.09.14.01c1.24.12 2.58.03 3.91.17-.13.52-1.39.33-1.86.28-.36-.03-1.86-.03-2.07-.15-.36.17-.44-.1-.48.35.6.39 3.24-.03 3.45.42-.67.16-3.18-.2-3.47.04-.1.45.6.36.93.32l2.2.12c.32.06.4.16.43.18-.12.1.01.03-.17.09l-.2.03c-.1.01-.31.01-.43.03-.3.01-.58-.02-.87-.03-.62-.05-1.28-.18-1.72.01l-.08.05c.38.3-.2.06.43.15.56.07.94.03 1.42.07.2.02 1.7.1 1.09.42l.04.05c1.38.4.58-1.1 2.4-1.98.48-.2.08 0 .2-.8h-.16c-.12.47-.62.23-1.12.18-.5-.03-1-.09-1.5-.07-.83 0-2.31-.17-3.04-.03Z" fill="#534F4F"/><path d="m24.12 20.82.27.37c-.24.08-.16.05-.32.03h-1.04c-.5-.01-.92.08-1.44.03l-.03.08 2.3.03c0 .26-.12.35-.32.5-.01.36.07.04-.03.42a9.72 9.72 0 0 0-2.19.07l.06.08c.5-.02 1.82-.1 2.24.04v.33c-.23.14-2.12.18-2.42.06l-.04.23.01-.1c.24 0 .45 0 .68.02l2.03-.09.01.5.17.43c-.65.29-2.63-.07-3.12.18-.24.18-.1.08-.2.42l3.33-.09c.28.02.71.08 1.05-.1-.38-.1-.17-.05-.23-.17.03 0 .15-.15.2-.28.03-.1.04 0 .01-.24l-.01-.06-.05-.21c-.06-.4-.12-.78.08-.96.38-.1 1.5.2 2.05-.02.14-.39 0-.66-.39-.76.21.28.48.34.26.69-.3-.1-.17-.14-.3-.35-.25.36.06.33-.56.36-.16-.16-.12-.24-.22-.46-.45.04-.24.5-.57.39-.27-.1-.12.04-.17-.26-.2-.1-.18-.15-.13-.31-.15-.25-.02-.26.09-.53-.27-.08-.21.21-.21-.24l-.02.06c.05-.18-.01-.57-.24-.7-.02.38-.05.38-.23.67l-.36-.06Z" fill="#B46C12"/><path d="M32 23.2c.04-.25-.15-.32.21-.43.42-.12 1.51.08 1.94.14l.04.12c0 .34-2 .2-2.2.18Zm1.93-1.27c-.09.24.25.38-1.2.33-.16 0-.49.1-.63-.16-.03-.06-.1.18.02-.27.68-.08 1.2.04 1.81.1Zm-6.23-.4.22-.04.78 2.1.03.46c-.35.12-.26-.44.32-.06.39-.5 1.64-1.75 1.57-.36 0 .13-.03.22-.07.36-.02.04-.05.03-.05.15.02.2-.06.01.08.18.12-.3.2-.4.45-.17-.12-.25-.09-.18-.01-.34l-.13-.02c.23-.16.03-.31.35-.43.37.18.08.12.1.25 0 .33-.08.12.22.21l.01.18c.16-.1.19-.15.34-.25-.12-.66.56-.45 1.13-.45.52 0 1.12-.03 1.63 0l-.2-.53c-.46 0-2.05.05-2.41-.09l-.02-.36a9.89 9.89 0 0 1 2.32.02l-.17-.85-.04.3c-1.7.49-3.08-1.08-2.29.5-.08.17-.4 1.3-.72.59l-.38-.35c-.27-.2-.58-.34-.88-.03-.09.24-.2.24-.4.4 0-.35.02.02-.04-.2l.05-.32c-.35-.03-.7.03-.99-.1-.03-.54.19-.27.35-.68-.22.06-.16.09-.47.1l-.18-.37-.44.18-.31-.36c.06-.17.06-.17.13-.27l-.28-.03c.1.33.06.27-.02.36l.29.24c.03.18 0 .15 0 .21v.1c-.39.91.23 1.88.13-.24Z" fill="#C96704"/><path d="M27 27.23c.02.2.02.04.05.16l.3 3.84v.37l.09.52.03.82c.14.13.23.36.44.38l.53-.08c.45 0-.05-.08.16.03.25.86-.82.65-.85.65.08.1.28.1.44.06.4-.09.28-.2.49-.35.04-.4.09-.28-.05-.66-.11-.3-.05-.23-.03-.6.01-.33-.07-1.04.15-1.25-.01-.65.2-1.29.24-1.55.01-.13.03-2.27-.06-2.39-.32-.24-1.66-.26-1.93.05Z" fill="#4A3B51"/><path d="m25.45 18.48.1.48c.22.2.23.55.14.84-.3.13-.22.07-.57 0-.1.33-.2.31-.46.43-.01 0 .2.8.25.65.62-.4-.1-.17.92-.74.2.23-.05.21.56.36.3.08.47.1.72.21-.2-.16-.77-.24-1.07-.34.08-.5.32-.42.74-.47.21.98.55-.06.82-.04.59.04-.35.6 1.04.43.73-.09 1.59-.61.32.27l.74-.13c.01-.02.05-.06.06-.05.02.02.06-.06.1-.09.05-.07.02 0 .08-.12.6.12-.21-.04.47.23.38.15.21.18.44.04-.06.32-.1.27.06.51.44-.27.08-.6-.12-.87v-.06l-.27-.18c-.84-.25-.44-.13-.34-1.38-.36.1-.04-.01-.34.23l-.03.63c-.1.18-.26.13-.47.1-.08-.36.07-.48-.17-.69l-.17.24.02.23-.23.13-.04.35c.1.3.04.48-.38.5-.56.04-.42 0-.55-.41-.42-.32.08-.1-.16-.4l-.18.25c-.46.24-.35.24-.38.42l-.03.1c-.3-.09-.15-.12-.36-.4-.2-.17-.19-.14-.26-.36l-.53.07-.15-.46-.18-.87-.19.01.05.35Z" fill="#D87705"/><path d="m22.88 32.55.01-.15c0-.13 1.74-.14 2.1-.16.7-.04.52.05.57.16-.17.18-2.29.22-2.68.15Zm-.05-.26.05.27c-.02.05.06.83.09.92l1.8-.05c.29 0 .36-.01.51.1-.34.38-1.2.05-1.58.32.31.03.68-.01 1-.03.93-.06.78-.1.89.15-.26.29-1.46.03-1.86.21.43.03 1.37-.2 1.64.15-.33.26-.28-.04-.6.24.38 0 .71-.07 1 .08l.16-1.4c0-.12-.04-.73-.07-.76-.33-.25-.02-.35-.6-.34-.28.02-.55.05-.84.06-.42-.01-1.2-.04-1.59.08Z" fill="#90512F"/><path d="m28.72 30.83-.02.12.1-.01 1.05-.27-.01 4.3c.2.3-.05.6.03.8.2.23.87.2 1.2.2.2-.23.47-.15.54-.29-.19.08-.55.02-.82 0-.5-.06-.58-.01-.5-.45.35-.04.83.08 1.1-.13-.3-.33-.81-.17-1.06-.35-.58-.5 1.34-.06 1.91-.2-.23-.22-.54-.22-.97-.28-.28-.04-.8 0-1-.18-.07-.09-.09.1-.1-.24.42-.16 1.6.32 2.36.06-.15-.85-1.86-.09-2.33-.54-.36-.1-.27-.28-.26-.7.02-.56.1-1.76-.1-2.05l-1.12.21Z" fill="#B28F12"/><path d="M30.83 20.13c.2.27.58.61.12.87-.15-.24-.13-.21-.06-.51-.24.13-.07.1-.43-.05-1.46-.6.31.5.36.9-.4-.2-.29-.43-.86-.36-.36.05-1.16.05-.88.62.65-.15.53-.03 1.06.15-.15-.28-.2-.43-.06-.69.33.01.94.56.57.87l.14.1-.12.05c-.2.06-.06.02.06.14.16.18.03-.06.2.2-.04.14.02.07-.14.07l.38.34c.01-.27-.02-.16-.06-.37.33-.03.12-.08.25.09-.13-.14-.28-.17-.3-.4-.01-.26.18-.25.32-.53l-.32.07c.05-.42.1-.42.5-.4.42 0 2.42.03 2.56.1.01-.29 0-.7-.23-.75-.23.15-.94.03-1.26.01-.51-.01-.78 0-1.31.05l-.1-.35c-.07-.2 0-.04.14-.37.37-.79.53-1.22 1.27-2.2v-.1l-.62-.03.1.12c-.55.7-.9 1.37-1.08 2.36h-.2Z" fill="#B06D2E"/><path d="M30.27 34.1c.2.17.72.13 1 .17.41.06.74.05.97.27-.59.15-2.51-.28-1.9.21.22.2.75.03 1.05.35-.27.2-.75.07-1.1.13-.08.44 0 .4.5.45.27.03.63.1.82 0 .43-.13.45-.3.75-.61.3-.3.1-.15.17-.38.09-.39.1-.04.2-.45-.14-.07-.08.02 0-.15l-2.43-.18-.03.18Z" fill="#534F4F"/><path d="M29.99 23.3c-.05.27-.03.09-.08.3-.01.01-.06 0-.06.03-.09.33-.04.04-.12.04l.03-.01c-.12.31-.27.4-.15.58-.23.1 0-.04-.18 0l.06.14c.01.18.01 0-.03.15-.03.07-.08.2-.08.25-.18.72.17-.01-.01.66-.4-.09-.06.08-.35-.16-.14-.12-.1-.1-.15-.27l-.29.2.17.25-.25.1.1.44c.07.31-.06.18.04.51.45.04.44-.17.77-.48.2-.2.52-.47.7-.6-.15.27-.15 0-.14.31l.08-.07c.24-.29.03-.38.47-.6l.09.2.47.02c-.14-.12-.06-.01-.08-.2.17-.17.14-.11.26-.22l-.64-.01c-.15-.24-.1-.17-.09-.5-.48.21-.06.63-.82 1 .19-.4.16-.6.22-.82.18-.64.03-.42.22-.5 0 0 .03 0 .05-.02 0-.02.03 0 .04-.02-.01-.03-.09 0-.04-.25.03-.21.07-.12.16-.65-.13-.27.19-.06-.25-.22.04.31.1.28-.12.42Z" fill="#D87705"/><path d="M28.75 24.08c.15.6.34.37.24.7l-.27-.22c-.41-.48-.25-.26-.41-.32l-.15-.09c-.03.05-.12.15-.12.17l-.02.03-.01.03-.02.04c-.4-.13-.06-.15-.4-.2-.13-.04-.07 0-.13 0 0 .32-.12.11.15.26.12.06.2-.04.27.27.07.3-.12.1-.2.42v.17c0-.02.02.04 0 .06-.2-.21-.13-.1-.46-.2-.2.06-.03.02-.14.15l.37.3-.1-.12.3-.13.16-.06s.1-.1.12-.1c.2.11.06.16.27.14.15-.01-.03-.3.27.17l.25-.1-.17-.26.29-.2c.06.18.03.15.15.27.29.24-.05.08.35.17.18-.68-.17.06.01-.66l.08-.26c.06-.15.04.03.03-.15l-.06-.13c.18-.05-.05.1.18 0-.1-.18.04-.27.15-.59l-.03.02c.06 0 .01.28.12-.05 0-.03.05-.01.06-.03.05-.2.03-.03.08-.3l-.1-.22-.4.43c-.02.02-.03.03-.03.05l-.1.13c-.14.23-.14.14-.3.32-.31-.21-.15-.27-.59-.17.06.18-.03.38.3.26Z" fill="#CE520D"/><path d="m30.05 26.83.04-.06c.71-.14 2.21.03 3.06.01.5-.01 1 .05 1.5.08s.98.28 1.11-.18l-.12-.22c-.3-.03-5.64-.04-5.68-.03l.09.4Z" fill="#384569"/><path d="M32.48 32c.24.03.88.41-.62.37-.47-.02-1.27-.15-1.53.01.05.39.4.32.8.27l1.84.15c.13-.57 0-.52.1-1-.2-.37-.95-.2-1.33-.23-.36-.03-1.1-.17-1.36.04.12.47 1.72.06 2.1.4ZM31.1 29.7h.63l1.24.08c.37.1.22.06.28.29-.18.1-.47.1-.7.12-.7.03-1.94-.2-2.25.01.17.35 1.03.21 1.4.24.3.03 1.22.18 1.42.12.12-.3.22-.8.2-1.1l-.05-.04c-.23-.03-1.18-.03-1.48-.01-.41.01-1.18-.15-1.49.03.19.36.34 0 .8.25Z" fill="#4A3B51"/><path d="M20.17 26.66c-.13.06-.1.06-.16.27l.04.02c.5.1 2.36-.05 3.01-.08l1.5-.06c.29 0 1.24.08 1.4-.18-.13-.26.17-.12-.33-.18l-5.46.21Z" fill="#333B74"/><path d="M25.12 21.12c-.1.27-.24.27-.1.53 0-.43.02-.44.38-.68l.14.21c.06.09.03.07.1.15-.11.14-.02 0-.11.17-.13.22-.03 0-.11.27.67-.29.44-.41 1.32-.18.39.1.54.36.39.76.2.02.21-.1.36-.34l.12-.29v-.1c0-.06.03-.03 0-.21l-.28-.25c.07-.09.1-.03.01-.36l.29.03.22.11.28-.1c.13.11.1-.19.12.19.15-.06.09-.1.1-.32l-1.12.05-.04.27c0-.02-.03.04-.05.06-.24-.05-1.52-.74-2.02.03Z" fill="#D87705"/><path d="m26.34 17.9.06-.32c.3-.03.05.03.32-.06.21-.06.38-.05.53.07l.03.62c.35-.44-.1.39.06-.12.17-.56-.1-.17.14-.51.28.27.24.5.16.87l.05.03c0 .01.16.18.38.18l.04-1.14c-.45-.12-.72-.48-.59-.84-.09-.14-.12-.29-.21-.36-.12-.11-.23-.05-.3.13-.15.36-.05.53.01.81-.28-.06-.2-.12-.62-.15-.09-.43.2-.72-.27-.73-.17.28-.06.67.05 1.08l.13.33c0 .06.02.09.03.1Z" fill="#AC532B"/><path d="M23.59 34.9c.33-.01.65-.01.97-.03.72-.01.56.02.68.18-.14.14.15.14-.6.17-.23.01-.46.01-.67.03l.18.22c.4.15.9.18 1.16.26.14.04.25.18.4 0a.5.5 0 0 0 .06-.45c0-.1-.05-.59-.02-.68-.28-.15-.6-.06-1-.07l-1.43.03-.02-.02c.3.26 0 .14.29.36Z" fill="#4A3B51"/><path d="m27.13 20.73.12.01 1.12-.04.62-.1c.36-.26.62-.07.79-.35-.02-.02-.17-.1-.2-.1l-.1-.04-.07-.01-.04-.02c-.3-.07-.1.05-.3-.12-.17.18-.11.35-.4.38-1.39.16-.45-.4-1.04-.44-.24-.01-.29.21-.35.42l-.38.02-.09-.4c-.42.04-.66-.04-.74.47.29.08.86.15 1.06.32Z" fill="#EACB0B"/><path d="M27.57 16.21c-.82.06-1.47.09-2.2.48-.01.36-.03.1.13.2.1-.27.03-.2.36-.29.23.77.3 1.23.38 2l.04.37c0 .1-.01.1-.03.18l-.06.12c-.32-.48-.42-2.07-.74-2.35l.21 1.24.18.87c.28.32.03.4.52.36.1-.45-.17-1.15-.02-1.51l-.04-.06-.14-.33c-.1-.42-.23-.8-.04-1.08.46.01.18.3.27.73.4.05.33.1.62.15-.06-.3-.17-.45-.02-.8.08-.2.18-.25.3-.14.11.07.14.22.22.36l.07-.02.23-.1.12-.21-.02-.11-.04-.07-.3.01Z" fill="#6E7050"/><path d="M21.06 23.43c-.15.27-.27.3-.13.6.48-.25 2.46.1 3.11-.18l-.16-.43-2.82.01Z" fill="#545070"/><path d="m31.05 25.3 3.16.07c.43 0 .5-.03.75-.3-.44-.18-3.28-.2-3.73-.2-.14.1-.1.05-.26.21.03.2-.05.1.08.21Z" fill="#D5AF08"/><path d="m20.38 26 .6.01c.25-.15.84-.1 1.13-.12l3.08-.06c.35-.06.12.08.24-.15-.16-.27-.07-.18-.45-.16l-.65.01c-.92 0-3.28.18-3.81.05l-.15.09.01.33Z" fill="#384577"/><path d="m30.85 26.25 3.43.05.29-.08-.2-.36-3.54-.03c-.12.27.06.05-.15.24l.17.18Z" fill="#D5AF08"/><path d="m23.24 27.38-1.48.05c-.33 0-.3-.06-.47.13.1.45.32.21 1.4.2.54-.02 1.04-.06 1.58-.05h.79c.4-.01.53.03.48-.34-.2-.1-2-.03-2.3.01Z" fill="#484758"/><path d="m28.99 20.6-.62.1c-.02.21.04.25-.1.31l-.02.26.18.38c.3-.02.24-.05.47-.11l.2.02-.02.01c-.24-.5.15-.47.17-.47l.15-.07c.44-.21.18-.03.56-.08.57-.07.47.15.86.36a.98.98 0 0 0-1.07-.87l-.76.15Z" fill="#9F3623"/><path d="M30.74 27.17c.2.12 1.71.12 2.07.15.46.03 1.73.24 1.86-.28-1.33-.14-2.66-.05-3.91-.17.12 0 .01-.01.07.1-.18.11-.06-.05-.09.2Z" fill="#D5AF08"/><path d="M20.78 24.66c.27.32.44.24 1.06.23l2.85-.05c.35-.04.28-.07.34-.28l-.12-.06-.06-.02c-.3-.03-.04.06-.8 0-.54-.04-2.94.1-3.27.18Z" fill="#33427C"/><path d="m31.94 23.73 2 .05c.28-.02.61.07.87-.06l-.1-.44c-.52-.04-1.1 0-1.64 0-.59 0-1.27-.2-1.13.45Z" fill="#384569"/><path d="M26.34 17.9c-.15.35.12 1.06.02 1.5-.49.04-.26-.04-.52-.35l.15.46.53-.07c.06.22.05.2.26.36l-.09-.35c.15 0 .67-.04.77.06l.03.05.06.1.18-.25c.25.3-.27.09.17.4l-.03-.2v-.22l-.08-.07-.28-.08c-.14-.4-.12-.7-.22-1.02l-.03-.61c-.15-.12-.31-.14-.52-.08-.28.1-.02.03-.32.06l-.08.3Z" fill="#B35010"/><path d="m21.84 28.22.27.24 3.1-.15c.33-.03.32.02.36-.25-.3-.23-1-.02-1.68-.1-.27.16-2.1 0-2.05.26Z" fill="#474767"/><path d="M31.36 21.6c.21-.18.35-.01.49.05.31.15 2.24.15 2.33.12l.04-.3c-.13-.02-.1.01-.12-.13-.14-.07-2.13-.09-2.56-.1-.39 0-.45 0-.5.4l.32-.04Z" fill="#384569"/><path d="m31.5 24.42-.02.02-.12.28c.55.03 3.44.14 3.68.02.1-.5-1.1-.32-1.54-.33-.6 0-1.44-.06-2 .01Z" fill="#384577"/><path d="m25.57 24.6.35.6.35-.01c-.2-.48.03-.21-.17-.7-.14-.34.1-.11-.27-.73a2.7 2.7 0 0 1-.15-.28v-.03l.01-.1c-.01-.3-.06-.4-.18-.49l-.33-.2c-.14 1.55.13 1 .4 1.94Z" fill="#EACB0B"/><path d="M21.16 23.09c-.1.09-.22.2-.1.34l2.82-.01-.02-.5-2.02.1c-.23 0-.44-.04-.68-.02v.09Z" fill="#D38D0A"/><path d="M30.35 25.43v.25l5.02.03c-.14-.37-.65-.22-1.09-.24-.44 0-.86.02-1.28 0-.84-.01-1.85-.12-2.65-.04Z" fill="#384569"/><path d="M27.52 16.7c-.13.37.14.73.6.85-.02.32-.43 1.54-.43.96 0-.03-.03-.03-.05-.03.08-.4.12-.6-.16-.87-.32.43-.21.68-.12 1.27l.13.38.29.07c-.15-.33-.23-.2-.17-.5l.46.04c.27-.45.05-1.1.09-1.6.03-.43.06-.77-.21-.88-.02.03-.11.2-.13.21l-.22.1h-.08Z" fill="#6F5032"/><path d="M21.2 22.86c.3.12 2.2.08 2.42-.06v-.33c-.42-.12-1.74-.06-2.24-.04-.18.1-.27.25-.18.43Z" fill="#474678"/><path d="m21.7 20.9-.1.35c.54.06.95-.03 1.45-.03h1.04c.15 0 .07.03.32-.03l-.3-.37c-.34-.06-.9-.02-1.28-.03l-.65-.02c-.22-.01-.43-.06-.48.12Z" fill="#D38D0A"/><path d="m23.3 17.64.02.07c.13.05.66.84.78 1.07.43.76.44 1.15.82 1.18.06-.5-.17-.5-.15-.85-.2-.17-.27-.59-.4-.86-.1-.18-.42-.66-.43-.73l-.64.12Z" fill="#474678"/><path d="M21.44 21.86h2.1c.22-.15.34-.24.32-.5l-2.3-.03-.12.53Z" fill="#545070"/><path d="m22.29 28.82.06.17c.26.16 2.92.06 3.2-.1 0-.37-.24-.28-.63-.26-.47.01-2.42.06-2.63.2ZM34.5 22.76c0-.32 0-.3-.1-.44a9.88 9.88 0 0 0-2.31-.01l.01.36c.35.15 1.94.09 2.4.09Z" fill="#474767"/><path d="M26.75 26.2s.73.43.95.22l.06-.23c0-.06-.01-.18-.03-.24-.07-.24-.06-.16-.27-.31l-.36-.3c.1-.14-.06-.08.13-.15.11-.23-.18-.4.14-.53-.23.05-.21.1-.33.29-.23.34-.15.13-.36.34-.34.33.03.74.07.9ZM26.7 29.57c.28.32.11.24.19.48.01.03.09.17.09.2l-.14-2.84c-.3-.01-.14-.01-.2.17l-.2.64c-.02.27-.19 1.44.07 1.53.32.1.16-.04.2-.18Z" fill="#E8B10B"/><path d="m31.24 17.19-.38-.15c-.3.37-.75 2.1-.63 2.6.5.04.18-.6.8-1.88.12-.26.3-.33.21-.57Z" fill="#474767"/><path d="m29.1 21.56.61.07c.08.17-.04.42-.12.57l-.31-.01c-.08-.12-.08-.14-.14-.27-.1-.23-.1-.08-.05-.36Zm-.04.01.02-.01-.2-.02c-.16.4-.36.14-.34.68.28.15.63.07.98.1.21-.03.27-.01.38.1.3-.3.6-.16.87.04.17-.02.1.07.14-.08-.18-.25-.03-.01-.2-.2-.12-.13-.25-.07-.06-.13-.13-.13-.13-.1-.3-.21-.15-.09-.05-.06-.23-.13-.51-.17-.39-.29-1.06-.14Z" fill="#90512F"/><path d="M30.83 20.05v.06l.22-.01c.16-1 .51-1.67 1.08-2.36l-.1-.12-.29-.16c-.29.5-.47.61-.65 1.26-.15.45-.38.87-.26 1.33Z" fill="#474767"/><path d="m29.52 16.9.16.03c.1-.25 0-.22.23-.33l-.6-.21.01.18c-.54.03-.2-.03-.38.14.27.18.58 4.02.58.2Z" fill="#B06D2E"/><path d="m21.91 20.32 2.2-.01c-.22-.66-1.43-.53-2.02-.5l-.2.14.02.37Z" fill="#D08C2C"/><path d="m25.42 21.77-.26.2c.05.3-.1.17.17.25.35.1.14-.35.57-.4.1.23.06.3.22.47.63-.01.31 0 .55-.36.14.21 0 .23.3.35.23-.35-.04-.4-.25-.7-.86-.22-.63-.1-1.3.19Z" fill="#6F5032"/><path d="M22.88 31.1c.2.1 2.87.14 2.7-.24-.11-.2-1.19-.1-1.46-.09-1.04.05-1.21-.04-1.24.33Z" fill="#474767"/><path d="M31.48 21.07c.38.26 1.65.17 2.12.06l-.04-.13-.02-.06-.26-.17c-.2-.04-.43-.04-.65-.06-.51 0-.95-.15-1.15.36Z" fill="#D5AF08"/><path d="M33.72 20.02c-.07-.18 0-.1-.1-.2-.49-.17-1.68-.35-1.98.28.33.2 1.78.15 2.08-.08Z" fill="#D38D0A"/><path d="M24.9 20.88c0 .45-.05.18.22.24.48-.77 1.77-.08 2-.05l.05-.06.05-.27-.12-.01c-.26-.1-.44-.14-.73-.21-.6-.15-.35-.14-.56-.36-1 .55-.28.31-.9.72Z" fill="#935017"/><path d="M30.32 23.1c-.08.53-.14.44-.17.65-.03.25.03.22.05.25-.02.02-.05 0-.05.02l-.04.01c-.2.1-.06-.13-.23.51-.06.23-.03.42-.21.83.77-.38.35-.8.82-1l.09-.05c-.14-.17-.06.01-.08-.18-.01-.12.03-.1.05-.15a.9.9 0 0 0 .07-.36c.03-.63-.03-.62-.25-.72.04.18.15.07-.05.2Z" fill="#E8B10B"/><path d="M25.04 17.62h.05c-.35-.3 0-.43-.47-.46-.21.31.07.94.21 1.29l.36.84c.15.3-.1.1.21.28.1-.13.08-.03.08-.24l-.05-.24c-.13-.45-.36-1.03-.39-1.47Z" fill="#364786"/><path d="m30.68 31.15 1.67.03.66.07v-.36c-.42-.03-.9-.01-1.31-.04-.41-.02-1.1-.17-1.38.04.2.36.08.05.36.26Z" fill="#484758"/><path d="m25.5 16.89-.03.04c.31.29.42 1.88.74 2.36l.06-.12c.01-.1.03-.1.03-.18l-.05-.38a9.29 9.29 0 0 0-.38-2c-.34.08-.28 0-.37.28Z" fill="#364786"/><path d="m31.23 20.34.09.34c.51-.04.8-.07 1.31-.04.32.01 1.02.12 1.26-.02l-.12-.27c-.4-.07-.85-.03-1.27-.03-.34-.01-1.08.06-1.27.02ZM22.92 31.75c.1.07.08.09.34.12l.36-.02 1.44-.03c.51-.01.44-.18.48-.28-.33-.1-2.28-.02-2.42.03-.23.09-.09-.05-.2.18Z" fill="#474767"/><path d="m23.32 34.57 1.43-.03c.32-.3.28.02.6-.24-.26-.36-1.19-.13-1.64-.15l-.56.02c.08.16.1.24.17.4Z" fill="#B46C12"/><path d="M23.5 18.8c-.03.37.26-.07.26.64-.55.07-.93-.1-1.53.12.18.2.1.13.83.16.32.02.64-.03.8.23l.18-.18c.17-.18.12-.1.11-.3-.05-.24-.48-.68-.68-.84l.03.16Z" fill="#474767"/><path d="M32.9 33.37v-.07l-.13-.12c-.5.01-2.18-.2-2.44-.02.14.3.78.23 1.1.24.5.03.9.08 1.35.12l.11-.15Z" fill="#363958"/><path d="M22.88 32.55c.4.06 2.51.03 2.68-.17-.05-.1.13-.2-.58-.15-.35.02-2.09.05-2.09.15l-.01.17Z" fill="#474767"/><path d="m23.06 34.1.1.07.57-.02c.4-.18 1.6.08 1.86-.2-.11-.26.03-.22-.88-.16-.33.03-.7.08-1.01.03l-.58-.01-.06.28Z" fill="#484758"/><path d="M27.4 33.07c-.14.23.1.47.29.7.03 0 1.06.2.81-.65-.2-.1.3-.03-.15-.03l-.51.07c-.21-.01-.29-.24-.42-.37l-.02.28Z" fill="#2E3334"/><path d="M29.94 25.73c-.23.09-.04 0-.24.25-.2.26-.21.18-.24.48l.35-.06c.12-.2.1-.16.39-.16.18-.02.45.01.65.03l-.15-.18c.2-.2.03.03.15-.24l-.62-.02c-.06-.31-.1-.28.12-.39v-.13l.23-.02-.1-.2c-.43.22-.2.3-.46.6 0-.02-.06.02-.08.04Z" fill="#D38D0A"/><path d="m22.26 19.3 1.27-.01c-.14-.62-.51-.36-.83-.66l-.27.03c-.13.09-.23.37-.3.58l.13.06Z" fill="#E88E0F"/><path d="M24.97 16.95c.06.39.15.25.12.67h-.05c.32.3.12.54.4.86l.04-.29.18-.01-.21-1.25.03-.04c-.15-.1-.14.15-.12-.2-.17.06-.29.1-.4.26Z" fill="#CD712A"/><path d="m32.09 19.05-.02.18 1.41.01-.1-.42c-.07-.2-.04-.22-.14-.33l-.08.2c-.7-.05-.56.06-1.07.36Z" fill="#B06D2E"/><path d="M29.68 16.93c-.09.54-.2.7.17 1.04.15-.1.1.06.17-.23l.33-.99-.42-.15c-.25.1-.15.08-.25.33Z" fill="#474678"/><path d="M22.82 30.4v.09h1.01l.29-.14.21-.03c.6-.04 1.01.15 1.14-.2-.55-.05-2.26.14-2.6.1-.1.1-.13-.18-.05.18Z" fill="#474767"/><path d="M27.16 22.53c-.12.35-.26.29-.32.51l-.01.29.27-.05c.4-.28.4.06.57-.25l.03-.59c-.03-.16 0-.1-.09-.2-.18.04-.1.2-.45.3Z" fill="#B03411"/><path d="M32.13 18.73c-.24.4-.25.15-.04.32.51-.3.38-.4 1.06-.38l.07-.2c-.13-.3-.04-.2-.28-.41-.19.06-.34.16-.47.28-.08.06-.12.1-.18.17-.25.24-.14.04-.16.22Z" fill="#474767"/><path d="m22.43 18.67.27-.03c.38-.07.53.02.8.15l-.02-.15-.16-.39c-.23-.09-.47-.16-.7-.24-.16.24-.25.27-.2.66Z" fill="#51568F"/><path d="m23.95 35.26.67-.03c.77-.03.47-.03.6-.16-.12-.17.05-.2-.68-.18-.33.01-.63 0-.97.03l.38.34Z" fill="#90512F"/><path d="M25.04 21.65c-.06.16-.06.2.14.31l.25-.2c.1-.27-.01-.02.11-.27.1-.16 0-.04.12-.16l-.1-.15-.14-.21c-.36.24-.4.25-.38.68Z" fill="#E8B10B"/><path d="M29.1 21.55c-.07.29-.07.14.04.37.06.13.05.15.14.27l.31.01c.08-.15.2-.4.12-.57l-.62-.07Z" fill="#504F35"/><path d="m34.39 25.86.2.36-.3.08c.25.07.58.06.8-.02.11-.03.1-.04.16-.09-.05-.25-.15-.39-.86-.33Z" fill="#B46C12"/><path d="M22.62 18c.23.07.47.15.7.24l.03-.24c-.24-.1-.12-.05-.24-.24l.2-.05v-.07l-.67.13-.02.23Z" fill="#D3A34F"/><path d="M29.91 22.44c-.1-.13-.17-.15-.38-.1l-.04.31c.06.21.04-.16.03.21.2-.16.29-.18.4-.42Z" fill="#D38D0A"/></svg>