<!-- by TradingView --><svg width="56" height="56" viewBox="0 0 56 56" xmlns="http://www.w3.org/2000/svg"><path fill="#F0F3FA" d="M0 0h56v56H0z"/><path d="M11.5 33H7.6l-3.56-9.28a.5.5 0 0 1 .01-.42.53.53 0 0 1 .31-.27.76.76 0 0 1 .26-.03h1.3c.16 0 .27.01.32.03.09.04.16.09.23.16l.12.24c.4 1 1.29 3.3 2.68 6.9l.11.15c.06.04.12.06.18.06.05 0 .1-.03.16-.08l.1-.16 2.5-6.79c.07-.18.12-.29.16-.32a.56.56 0 0 1 .23-.16.93.93 0 0 1 .3-.03h1.4c.1 0 .18.01.24.03.1.04.2.11.26.21.07.1.1.21.09.33A67212.07 67212.07 0 0 0 11.5 33ZM26 33h-2.6a20.91 20.91 0 0 1-.01-.68.24.24 0 0 0-.1-.12.3.3 0 0 0-.26-.05.57.57 0 0 0-.16.11c-.42.36-.9.6-1.44.74h-1.6a5.44 5.44 0 0 1-3.08-1.69 4.92 4.92 0 0 1-1.25-3.19 4.8 4.8 0 0 1 .57-2.36 5.12 5.12 0 0 1 3.13-2.53 5.4 5.4 0 0 1 6.08 2.26 4.89 4.89 0 0 1 .72 2.77V33Zm-7.93-4.95a2.51 2.51 0 0 0 .79 1.8 2.66 2.66 0 0 0 1.89.73 2.77 2.77 0 0 0 1.89-.75 2.51 2.51 0 0 0 .78-1.8 2.51 2.51 0 0 0-.79-1.8 2.66 2.66 0 0 0-1.9-.73 2.77 2.77 0 0 0-1.88.75 2.5 2.5 0 0 0-.78 1.8ZM32.22 33h-.93a5.35 5.35 0 0 1-3.55-2.35 4.87 4.87 0 0 1-.74-2.97v-4.04c0-.15.01-.24.03-.29a.56.56 0 0 1 .57-.35h1.29c.16 0 .26.01.32.03.1.04.2.1.26.19.07.1.1.2.1.3v4.5a2.5 2.5 0 0 0 .48 1.5 2.55 2.55 0 0 0 1.31.94 2.85 2.85 0 0 0 .86.15V33ZM39.7 33h-1.9a5.38 5.38 0 0 1-2.2-.92 5.04 5.04 0 0 1-2.06-3.4c-.03-.2-.04-.5-.04-.94v-4.11c0-.13.01-.22.03-.27a.54.54 0 0 1 .35-.33.8.8 0 0 1 .24-.03h1.34c.1 0 .2 0 .26.03.09.03.16.08.22.14.06.06.1.13.13.22l.02.25v4.55a2.46 2.46 0 0 0 .66 1.56 2.77 2.77 0 0 0 4.1-.12 2.48 2.48 0 0 0 .56-1.84v-4.15c0-.14.01-.24.03-.3a.57.57 0 0 1 .38-.33A150.26 150.26 0 0 0 43.3 23c.16 0 .27.02.33.04.09.03.16.08.22.14.07.07.11.14.13.23l.02.2v4.15a4.79 4.79 0 0 1-1.42 3.76A5.21 5.21 0 0 1 39.69 33Z" fill="#00B3A9"/><path d="m48.5 24.94 1.24-1.73a.6.6 0 0 1 .17-.18.34.34 0 0 1 .3 0l.46.31c.1.07.17.12.18.16.04.07.05.14.03.21 0 .04-.04.1-.1.19l-.84 1.15a.2.2 0 0 0-.03.2c.02.06.07.1.14.13a185.23 185.23 0 0 0 1.55.01c.11 0 .19.01.23.04.1.05.16.14.17.27a12.3 12.3 0 0 1 0 .6c0 .13-.06.22-.17.27a.55.55 0 0 1-.23.03 185.23 185.23 0 0 0-1.55.02.21.21 0 0 0-.14.14.2.2 0 0 0 .03.19 253.55 253.55 0 0 0 .95 1.34c0 .07 0 .14-.03.2-.02.05-.09.1-.2.17a50.37 50.37 0 0 0-.47.31c-.1.04-.2.04-.28 0a.6.6 0 0 1-.17-.18 476.59 476.59 0 0 0-1.24-1.73l-1.24 1.73a.6.6 0 0 1-.17.18.34.34 0 0 1-.3 0l-.46-.31c-.1-.07-.17-.12-.19-.16a.35.35 0 0 1-.03-.21 253.55 253.55 0 0 0 .94-1.34.2.2 0 0 0 .04-.2.21.21 0 0 0-.14-.13 185.27 185.27 0 0 0-1.55-.01c-.11 0-.19-.01-.23-.04-.1-.05-.16-.14-.17-.27a14.75 14.75 0 0 1 0-.6c0-.13.06-.22.17-.27a.55.55 0 0 1 .23-.03 185.27 185.27 0 0 0 1.55-.02.21.21 0 0 0 .14-.14.2.2 0 0 0-.03-.19 253.55 253.55 0 0 0-.95-1.34.35.35 0 0 1 .03-.2c.02-.05.09-.1.2-.17a50.37 50.37 0 0 0 .47-.31c.1-.04.2-.04.28 0 .04.02.1.08.17.18a476.59 476.59 0 0 0 1.24 1.73Z" fill="#EF5422"/></svg>