<!-- by TradingView --><svg width="56" height="56" viewBox="0 0 56 56" xmlns="http://www.w3.org/2000/svg"><path fill="#F0F3FA" d="M0 0h56v56H0z"/><path fill-rule="evenodd" d="M7.45 30.73 5.03 24H4l3 8h1l3-8H9.97l-2.42 6.73h-.1ZM13 32v-8h5v1h-4v2.5h3.5v1H14V31h4v1h-5Zm7-8v8h1.01v-3h1.83l.28-.01 1.7 3.01H26l-1.85-3.23c1.02-.36 1.85-1.15 1.85-2.32 0-1.62-1.63-2.45-3.17-2.45H20Zm1.01 4h1.8c1.36 0 2.19-.6 2.19-1.55 0-.96-.85-1.45-2.2-1.45H21v3ZM27 25v-1h7v1h-3v7h-1v-7h-3Zm8 7h1v-8h-1v8Zm4 0h-1v-8h1v3.97h.08L42.72 24H44l-3.4 3.6L44 32h-1.19L40 28.28 39 29.41V32Zm7.03 0H45l3-8h1l3 8h-1.03l-.73-2h-3.48l-.73 2Zm2.5-6.73L49.88 29h-2.76l1.35-3.73h.06Z"/></svg>