<!-- by TradingView --><svg width="56" height="56" viewBox="0 0 56 56" xmlns="http://www.w3.org/2000/svg"><path fill="#F0F3FA" d="M0 0h56v56H0z"/><path fill-rule="evenodd" d="M28 44.5a16.5 16.5 0 1 0 0-33 16.5 16.5 0 0 0 0 33Zm0 .5a17 17 0 1 0 0-34 17 17 0 0 0 0 34Z" fill="#131313"/><path fill-rule="evenodd" d="M28 38.5a10.5 10.5 0 1 0 0-21 10.5 10.5 0 0 0 0 21Zm0 .5a11 11 0 1 0 0-22 11 11 0 0 0 0 22Z" fill="#131313"/><path d="m23.17 23.13-.35-2.23.71 1.98.02-.01c.03-.05.1-.12.19-.17.13-.08.33-.12.6.07.43.3.23.59.04.82l-.03.03-.09.12a.75.75 0 0 0-.04.06l.41.27-.13.31-.42-.22a.68.68 0 0 1-.1.23c-.17.23-.49.41-.95.1-.44-.29-.45-.59-.33-.8a.65.65 0 0 1 .2-.21l-1.85-.47 2.12.12Zm.71.74-.5-.4-.34.22c-.08.06-.14.15-.15.23 0 .05.02.19.28.36.25.17.4.13.47.08.1-.06.17-.18.19-.25l.05-.24Zm.13-.22.15-.2.03-.03.13-.2.02-.08c-.01-.02-.04-.08-.16-.16a.44.44 0 0 0-.19-.09l-.1.01a.46.46 0 0 0-.15.14l-.01.01-.19.21.47.39ZM28.39 21.43l1.56-1.62-1.15 1.77h.02c.06 0 .15 0 .25.05.15.06.3.2.3.51.02.42-.14.68-.38.7-.16.01-.37-.18-.5-.16l.01.57h-.31l.03-.5c-.06.03-.26.09-.36.09-.27 0-.61-.13-.65-.69-.03-.52.2-.62.44-.65.1-.01.2 0 .3.03l-.75-1.86 1.19 1.76Zm-.16 1.02.02-.64-.39-.04c-.47-.16-.53.64-.18.79.11.04.25.02.32-.01l.22-.1Zm.25-.03c.13-.01.32.18.44.17.15 0 .2-.22.2-.44-.02-.36-.33-.32-.62-.34l-.02.61ZM33.64 23.12l2.2-.43-1.95.78.01.01c.05.04.13.1.18.2.09.12.13.32-.05.59-.23.35-.5.47-.71.35-.14-.09-.2-.36-.32-.43l-.32.48-.26-.18.32-.4a1.38 1.38 0 0 1-.35-.13c-.23-.15-.42-.46-.13-.93.28-.45.52-.4.74-.28.09.05.16.12.22.2l.46-1.96-.04 2.13Zm-.72.74.38-.51-.3-.26c-.28-.4-.79.22-.59.54.07.1.19.17.27.18l.23.04Zm.22.12c.11.06.16.33.26.4.12.07.3-.07.42-.25.2-.3-.09-.45-.31-.64l-.37.5Z" fill="#4C833C"/><path d="M33 27.5a4.5 4.5 0 1 1-9 0 4.5 4.5 0 0 1 9 0Z" fill="#0600F5"/><path d="M29.3 23.07a.75.75 0 0 1-.06.25c-.02.02-.03.06-.04.1-.03.13-.07.3-.25.4-.26.13-.46.27-.4.43l.03.08c.03.1.04.16.31.15.35-.01.9.08 1.15.18.18.08.33.33.42.5l.08.12.01.02c.1.13.26.36.42.48.08.07.13.14.18.21.04.07.1.14.18.22.18.18.46.45.54.4.05-.02.05-.07.05-.19 0-.1 0-.22.03-.41.02-.18-.07-.29-.12-.35-.08-.1-.08-.1.46-.1h.27a4.5 4.5 0 0 0-3.27-2.49Zm-3.98 7.62c.1-.4.25-.86.37-1.1v-.01c.26-.5.45-.86.46-1.13 0-.23-.04-.27-.32-.5l-.14-.12a23.84 23.84 0 0 1-1.51-1.6l-.02.08-.06.27-.05.26a4.54 4.54 0 0 0 1.27 3.85Zm4.1-5.56c.42.3.8.31.9.31.28.3.88 1 1.1 1.35.2.31.12.54.03.79-.03.09-.07.18-.09.29-.05.22-.17.5-.3.76l-.22.53c-.15.41-.59 1.01-.87 1.04-.22.03-.23 0-.28-.08a.91.91 0 0 0-.05-.08 3.73 3.73 0 0 1-.02-.92c.03-.62.05-1.37-.05-1.64-.18-.47-.74-.43-1.17-.27-.42.16-1.09-.16-1.09-.91 0-.76.37-.95.72-1.1.16-.06.21-.13.26-.2.06-.08.1-.14.32-.16.35-.02.38 0 .72.24l.09.05Z" fill="#00FC05"/><path fill-rule="evenodd" d="M20 33.5h2.15V33H20v.5Zm1.07 2.5h2.15v-.5h-2.15v.5Zm5.05 0h-2.15v-.5h2.15v.5Zm.76 0h2.15v-.5h-2.15v.5Zm5.05 0h-2.15v-.5h2.15v.5Zm.77 0h2.15v-.5H32.7v.5Zm-7.84-2.5H22.7V33h2.15v.5Zm.85 0h2.14V33h-2.14v.5Zm5.02 0h-2.15V33h2.15v.5Zm.81 0h2.15V33h-2.15v.5Zm5.46 0h-2.15V33H37v.5Zm-15.45.92c0 .28-.21.5-.48.5a.49.49 0 0 1-.48-.5c0-.27.22-.5.48-.5.27 0 .48.23.48.5Zm.25 0c0 .42-.33.75-.73.75a.74.74 0 0 1-.72-.75c0-.41.33-.75.72-.75.4 0 .73.34.73.75Zm2 0c0 .28-.21.5-.48.5a.49.49 0 0 1-.48-.5c0-.27.22-.5.48-.5.27 0 .48.23.48.5Zm.24 0c0 .42-.32.75-.72.75a.74.74 0 0 1-.72-.75c0-.41.32-.75.72-.75.4 0 .72.34.72.75Zm1.36.5c.26 0 .48-.22.48-.5 0-.27-.22-.5-.48-.5a.49.49 0 0 0-.48.5c0 .28.21.5.48.5Zm0 .25c.4 0 .72-.33.72-.75a.74.74 0 0 0-.72-.75c-.4 0-.73.34-.73.75 0 .42.33.75.73.75Zm2.94-.75c0 .28-.21.5-.48.5a.49.49 0 0 1-.48-.5c0-.27.22-.5.48-.5.27 0 .48.23.48.5Zm.24 0c0 .42-.32.75-.72.75a.74.74 0 0 1-.72-.75c0-.41.32-.75.72-.75.4 0 .72.34.72.75Zm1.53.5c.26 0 .48-.22.48-.5 0-.27-.22-.5-.48-.5a.49.49 0 0 0-.48.5c0 .28.21.5.48.5Zm0 .25c.4 0 .72-.33.72-.75a.74.74 0 0 0-.72-.75c-.4 0-.72.34-.72.75 0 .42.32.75.72.75Zm2.55-.75c0 .28-.21.5-.48.5a.49.49 0 0 1-.48-.5c0-.27.22-.5.48-.5.27 0 .48.23.48.5Zm.24 0c0 .42-.32.75-.72.75a.74.74 0 0 1-.72-.75c0-.41.32-.75.72-.75.4 0 .72.34.72.75Zm1.35.5c.27 0 .48-.22.48-.5 0-.27-.21-.5-.48-.5a.49.49 0 0 0-.47.5c0 .28.21.5.47.5Zm0 .25c.4 0 .73-.33.73-.75a.74.74 0 0 0-.73-.75c-.4 0-.72.34-.72.75 0 .42.33.75.72.75Z" fill="#797979"/><path fill-rule="evenodd" d="M15.58 26.99c.92.74.57 1.7.28 2.1.35-.03 1.03-.34 1.03-1.36s-.96-1.35-1.44-1.38c-.02-.9-.01-2.75.13-2.88l.08-.08c.25-.21.73-.65.62-.76a1.71 1.71 0 0 0-1.2-.55c-.66 0-1.07.36-1.07.5 0 .16 0 .57.4.76.38.2.46.32.46.67 0 .35-.15.62-.26.62-.12 0-1.15.07-1.15.3 0 .24.02.4.18.4.14 0 .15-.01.31-.17l.06-.05c.17-.16.47-.07.6 0v1.24c-1.16 0-1.4.64-1.4.78 0 .15.04.7 1.2.7.91 0 1.16-.56 1.17-.84Zm-.53-3.78c.28 0 .51-.13.51-.3 0-.17-.23-.3-.51-.3s-.51.13-.51.3c0 .17.23.3.51.3Zm-.68 4.19c.28 0 .5-.14.5-.3 0-.17-.22-.3-.5-.3s-.51.13-.51.3c0 .16.23.3.5.3Zm1.98-1.22a.45.45 0 1 0 0-.9.45.45 0 0 0 0 .9Z"/><path d="m16.81 22.22-3.24-1.61.28-.45 3.2 1.56-.24.5ZM17.57 17.93c-.28.33-.22.96-.15 1.23.2-.78.6-.84.77-.78.11.1.24.39-.13.7a.77.77 0 0 0-.24.9l1.6 1.16.24-.33-1.28-1.06.75-.85c.3-.33.31-.58.28-.66-.42-.47-1.5-.72-1.84-.3ZM19.6 18.77c.54.03 1.66-.2 1.8-1.36-.24.02-.84-.01-1.27-.34-.54-.42-.47-1.73.22-1.74.5-.02.78.38.97.65.07.1.13.2.19.23.2.13 1.4-.21 1.4-.41 0-.2-.29-.31-.83-.36-.53-.05-.94-.3-1.06-.68-.13-.39.6-1.13.95-1.43.28-.25.55.19.65.44-.16.06-.53.25-.65.56-.1.26.2.43.68.7.22.1.46.24.72.41.84.55.35 1.02-.47 1.22-.65.16-.9.42-.93.53-.16 2.18-1.64 1.96-2.37 1.58Zm.82-2.21c.13.13.33.14.44.03.1-.12.08-.32-.05-.45-.14-.13-.34-.14-.45-.03-.1.12-.08.31.06.45ZM25.79 16.08c0-.7.62-1.33.92-1.56-.14.17-.43.67-.43 1.33 0 .65.61.71.92.65.38 0 1.15-.07 1.15-.42 0-.43-.84-.08-.84-.83s.63-1.56 1.19-1.56c.45 0 .31.55.19.83-.77 0-1.24.62-.48.62.6 0 .7.32.67.48-.09 1-1.32 1.37-1.88 1.37-.57 0-1.41-.04-1.41-.9ZM29.7 15.47c0-.56.51-.54.57-.53 0 .52.57.7 1.02.53.44-.16-.28-.53-.51-1.23-.19-.57.35-.7.64-.7.84.45.35 2.43.16 2.72-.18.29-.54.13-.66 0s-1.23-.22-1.23-.79ZM32.75 14.13c.24-.8.5-.93.6-.9.38.65-.58 2.74-1.11 3.71l-.38-.2a62 62 0 0 0 .89-2.61Z"/><path fill-rule="evenodd" d="M32.65 16.8c-.02.38.12 1.21.83 1.55.87.42 1.8-.52 2.35-1.17.55-.65.37-1.65-.14-1.66-.4 0-1.02.85-1.27 1.29.04.16.18.52.38.62-1.2.99-1.93 0-2.15-.62Zm2.42.09c.1.08.3.02.43-.15.13-.17.14-.38.03-.46-.11-.09-.3-.02-.44.15-.12.17-.14.37-.02.46ZM40.08 17.4a.46.46 0 1 1-.93 0 .46.46 0 0 1 .93 0Zm.92.66a.46.46 0 1 1-.92 0 .46.46 0 0 1 .92 0Zm-2.76 2.03 1.6-1.61c-.28 0-.97-.05-1.53-.25s-1.07.34-1.26.64c.37.23 1.04.76.76 1.05-.27.3-.26.6-.22.7.5.85 1.53 2.52 1.72 2.46.24-.07 1.24-1.16 1.14-1.46-.1-.3-.01-.82.23-.72.19.09.65.57.85.8l.47-.47c-.3-.4-1-1.19-1.32-1.14-.27.04-.45.22-.64.41l-.32.3c-.29.2-.04.63.11.82l-.4.42-1.2-1.95Zm.1-.8c.08-.02.43-.29.59-.42-.38-.2-.91-.08-1.04 0-.12.09.33.44.44.42Z"/><path d="M38.77 23.08c-.14.28-.25.99.46 1.53.68.53 1.36.29 1.84.12.15-.05.28-.1.39-.12.46-.07.12.36-.33.7-.45.35-.47.46-.3.65.06.08.25.15.44.21.26.09.52.18.5.31-.05.22-.88.2-1.07.2h-.03c-.1 0-.25.75.15 1.16.17.17.32.28.43.36.15.11.2.15.08.2-.08.01-.2-.03-.33-.07-.2-.07-.4-.13-.41.06l-.02.18c-.03.18-.04.26.31.29h.4c.25 0 .4-.02.34.16-.08.22-1.25.22-1.82.2-.06-.83-.14-2.5 0-2.53.18-.06.5-.25.5-.55 0-.1-.21-.21-.48-.35-.45-.23-1.1-.56-1.3-1.18-.27-.79.05-1.35.25-1.53Zm3.63 5.14a.38.38 0 1 0 0-.76.38.38 0 0 0 0 .76Zm1.04.25a.38.38 0 1 0 0-.75.38.38 0 0 0 0 .75Zm-.38.27a.38.38 0 1 1-.75 0 .38.38 0 0 1 .75 0Z"/><path fill-rule="evenodd" d="m41.3 33.28-.1-.03a1.54 1.54 0 0 1-.44-.28c-.12-.1-.21-.23-.27-.36a.97.97 0 0 1-.1-.41c0-.15.03-.3.1-.44a.97.97 0 0 1 .61-.6c.13-.06.28-.08.44-.07.16.01.33.05.5.13l.1.04c.18.07.33.16.45.27.12.1.2.22.27.36a1.02 1.02 0 0 1 0 .86 1 1 0 0 1-.6.6c-.14.05-.29.07-.45.06-.16-.01-.33-.05-.5-.13Zm.14-.6.1.04.31.1h.26a.41.41 0 0 0 .2-.08c.05-.05.09-.1.12-.18a.44.44 0 0 0 .03-.21.42.42 0 0 0-.08-.2.77.77 0 0 0-.18-.17c-.08-.06-.18-.1-.3-.16l-.1-.04a1.63 1.63 0 0 0-.3-.1.75.75 0 0 0-.26 0 .4.4 0 0 0-.32.26.41.41 0 0 0 .04.4c.05.07.11.13.19.18.08.06.18.1.29.16Zm.4 1.3-.22.55c.09.03.15.08.2.13.03.06.06.12.06.18 0 .07-.01.15-.05.23a.47.47 0 0 1-.11.17.33.33 0 0 1-.17.08.65.65 0 0 1-.24-.02c-.1-.02-.2-.05-.32-.1l-.12-.06c-.12-.04-.22-.1-.3-.15a.68.68 0 0 1-.18-.16.33.33 0 0 1-.06-.17c0-.06 0-.12.03-.19.04-.1.09-.17.14-.21a.29.29 0 0 1 .18-.08c.07 0 .15.02.23.05l.23-.54a1.02 1.02 0 0 0-.47-.04.84.84 0 0 0-.42.2c-.13.1-.23.25-.31.44-.06.15-.1.29-.09.43 0 .13.03.26.1.39.06.12.15.23.26.33.12.1.26.19.43.26l.13.05c.16.07.33.11.48.12.15.02.3 0 .42-.04a.89.89 0 0 0 .34-.21 1.19 1.19 0 0 0 .34-.9.85.85 0 0 0-.5-.74Zm-4.01 4.14-.07-.07a1.58 1.58 0 0 1-.32-.42 1.2 1.2 0 0 1-.13-.44c-.01-.15 0-.3.05-.44s.13-.27.23-.39.22-.21.35-.27a.9.9 0 0 1 .4-.09c.15 0 .29.04.43.1.15.07.29.17.42.3l.08.07c.13.13.24.27.31.42a1.1 1.1 0 0 1-.15 1.27c-.1.12-.22.2-.35.27a.92.92 0 0 1-.4.09c-.14 0-.29-.04-.43-.1a1.5 1.5 0 0 1-.42-.3Zm.33-.53.07.07c.09.08.17.15.26.2a.7.7 0 0 0 .23.1c.07.01.14.01.2-.01a.4.4 0 0 0 .17-.12.45.45 0 0 0 .1-.2.46.46 0 0 0 0-.21.81.81 0 0 0-.11-.24 1.67 1.67 0 0 0-.22-.25l-.07-.07a1.6 1.6 0 0 0-.26-.2.7.7 0 0 0-.23-.1.37.37 0 0 0-.2 0 .4.4 0 0 0-.17.13.44.44 0 0 0-.1.4c.02.08.06.16.11.24.06.09.13.17.22.26Zm-1.82 1.84.34-.23a.36.36 0 0 1 .18-.07c.05 0 .1 0 .14.03l.12.12a.3.3 0 0 1 .05.14c0 .05 0 .1-.03.14a.43.43 0 0 1-.14.15l-.32.21-.34-.49Zm-.22-.32.24-.16c.08-.05.14-.1.17-.15.03-.05.05-.1.05-.15 0-.05-.02-.1-.06-.15a.33.33 0 0 0-.12-.11.22.22 0 0 0-.16-.01.64.64 0 0 0-.2.1l-.24.16.32.47Zm.81 1.2-.3.2-.19.13-1.39-2.05.74-.5c.12-.08.24-.15.36-.2a.9.9 0 0 1 .32-.06c.1 0 .2.02.28.07.09.04.16.11.23.21.05.08.09.17.1.27a.5.5 0 0 1-.09.36.5.5 0 0 1 .13-.03c.1-.01.2 0 .29.06.08.04.15.1.2.19.1.13.14.26.14.4 0 .12-.03.25-.12.37a1.4 1.4 0 0 1-.37.36l-.33.21Zm-4.22-.43-.19.08-.27.12 1 2.26.55-.24-.24-.53-.53-1.05 1.26 1.36.36-.16-.17-1.85.43 1.1.23.53.55-.24-1-2.26-.27.12-.2.09-.25.11.2 1.8-1.2-1.35-.26.1Zm-2.67 2 .04.1c.06.18.14.33.24.46.1.13.22.22.35.3a1 1 0 0 0 .4.11 1.14 1.14 0 0 0 .84-.3 1.02 1.02 0 0 0 .34-.78c0-.16-.04-.33-.1-.51l-.03-.1a1.57 1.57 0 0 0-.25-.46c-.1-.13-.21-.23-.34-.3a.97.97 0 0 0-.4-.11c-.15-.01-.3 0-.46.06a1.1 1.1 0 0 0-.38.23c-.11.1-.2.21-.25.34-.06.14-.09.28-.09.45 0 .16.03.33.1.51Zm.62-.1-.04-.1a1.46 1.46 0 0 1-.07-.32.73.73 0 0 1 0-.26.4.4 0 0 1 .28-.3.4.4 0 0 1 .4.07c.06.04.12.1.17.19.05.08.1.18.13.3l.04.1c.04.11.07.22.08.32v.25a.42.42 0 0 1-.1.2.43.43 0 0 1-.19.11.41.41 0 0 1-.2.02.41.41 0 0 1-.2-.09.74.74 0 0 1-.16-.2c-.06-.08-.1-.18-.14-.3Zm-17.34-9.8v-.32L16 31.1v.64l-1.68.31 1.68.37v.55l-1.69.37 1.69.31v.64l-2.68-.57v-.67l1.52-.36-1.52-.35v-.35Zm3.44 3.38-.08-.14-.13-.23-.08-.13-2.7.46.33.58.5-.11.42.73-.35.37.34.58 1.75-2.1Zm-1.4.8-.28-.48.91-.21-.63.69Zm.44 2.32.17.17c.14.13.28.23.44.3a1.17 1.17 0 0 0 .96.02c.16-.07.3-.16.44-.3l.07-.08c.14-.13.24-.27.3-.43.07-.16.1-.32.1-.48a1.46 1.46 0 0 0-.42-.93l-.17-.16-.29-.29-.2-.2L15.32 38l.2.2.28.29Zm1.54-1.54-1.19 1.19.17.17c.1.09.2.15.3.17.1.02.22 0 .33-.04.12-.05.24-.13.36-.25l.08-.09c.1-.09.16-.18.2-.26a.65.65 0 0 0 .1-.26.49.49 0 0 0-.04-.24.67.67 0 0 0-.15-.23l-.16-.16Zm4.54 2.43-.38 1.07.3-.24.8-.57.72.26-1.2.77.34 1.64-.7-.25-.19-1.08-.33.18-.22.63-.58-.2.86-2.41.58.2Zm3.63 2.58.03-.1c.05-.2.07-.38.06-.55a1.19 1.19 0 0 0-.13-.46 1.02 1.02 0 0 0-.29-.35c-.12-.1-.26-.16-.42-.2a1.18 1.18 0 0 0-.48-.04c-.15.02-.3.07-.42.16-.13.08-.24.2-.34.33-.1.14-.17.31-.22.5l-.03.11c-.05.2-.07.38-.06.55.01.17.06.33.13.46a1.08 1.08 0 0 0 .71.56c.17.04.33.05.48.03.15-.02.29-.07.42-.15.13-.09.24-.2.34-.34.1-.14.17-.31.22-.5Zm-.6-.27-.03.1c-.03.13-.07.24-.12.33-.05.1-.1.16-.16.22a.43.43 0 0 1-.2.11.44.44 0 0 1-.22 0 .46.46 0 0 1-.2-.11.45.45 0 0 1-.11-.2.82.82 0 0 1-.03-.27c0-.1.02-.21.06-.34l.03-.1c.03-.13.07-.24.12-.33a.8.8 0 0 1 .16-.22.42.42 0 0 1 .42-.1.44.44 0 0 1 .3.3c.03.07.04.16.04.27 0 .1-.02.21-.06.34Zm1.99-.86h-.78v2.47h.6v-.57l-.07-1.18.6 1.75h.4l.6-1.75-.07 1.18v.57h.6v-2.47H28l-.55 1.72-.55-1.72ZM19 37.84l1.15.72-.3.47-.35-.22-.77 1.21.35.23-.3.46-1.14-.72.3-.47.35.22.77-1.21-.35-.22.3-.47Z"/></svg>